<svg xmlns="http://www.w3.org/2000/svg" width="1920.999" height="98.999" viewBox="0 0 1920.999 98.999"><g transform="translate(0.5 0.499)"><path d="M-12079.933-8577q-50.875-.032-101.753-.024-47.038-.019-94.075-.053c-1.079,0-2.16-.031-3.239-.046V-8675h1920v92.455a107.349,107.349,0,0,1-14.046-.225,57.945,57.945,0,0,0-11.574.219,101.874,101.874,0,0,1-10.786.475q-27.272.36-54.551.684c-1.83.021-3.683-.009-5.494-.089a9.441,9.441,0,0,1-2.435-.392,24.194,24.194,0,0,0-7.93-1.063c-13.516-.053-27.035-.154-40.548-.086-9.547.046-19.081.382-28.631.5-3.979.046-7.963.034-11.948.019-2.536-.01-5.068-.019-7.6-.01-9.359.028-18.722.188-28.071.114-22.561-.182-45.111.056-67.669.074q-20.333.019-40.668-.154c-2.422-.016-4.829-.329-7.232-.518-.857-.067-1.692-.234-2.53-.231a14.108,14.108,0,0,0-3.021.244,16.026,16.026,0,0,1-6.514.256c-1.785-.231-3.624-.45-5.5-.552a62.616,62.616,0,0,0-11.947.625c-2.558.354-5.063.749-7.584,1.131a33.4,33.4,0,0,1-7.457.392,4.662,4.662,0,0,0-.931.021,97.376,97.376,0,0,1-10.277.759c-2.383.089-4.765.2-7.156.259-1.587.036-3.207.043-4.791-.013-3.905-.136-7.781-.225-11.72-.071-4.323.167-8.693.2-13.02.364-2.357.092-4.657.357-7,.5-.882.059-1.824.01-2.739.01l-.154.153a13.765,13.765,0,0,0,2.4.376c4.145-.08,8.293-.19,12.406-.372,2.08-.09,4.08-.383,6.151-.524a91.414,91.414,0,0,1,11.078.194c.552.027,1.112.043,1.67.049q19.6.255,39.192.509,2.8.037,5.581.24c-1.5,0-3,.013-4.5-.006a2.737,2.737,0,0,0-1.522.286c-2.423,1.449-2.191,1.387-7.189,1.381q-27.056-.028-54.113-.089c-5.356-.007-10.715.037-16.071.055-.511,0-1.025-.018-1.651-.027.083-.237.154-.437.25-.709-7.045.071-14.037.146-21.122.216.2-.443,1.023-.595,2.016-.632,2.385-.1,4.776-.154,7.162-.243a60.061,60.061,0,0,0,8.135-.626,7.47,7.47,0,0,0-1.254-.243c-1.79.013-3.587.043-5.371.1-7.963.24-15.92.5-23.883.728-2.147.062-4.317.019-6.472.049a17.222,17.222,0,0,0-4.588.629,7.218,7.218,0,0,1-1.788.262q-27.166.268-54.335.506a4.69,4.69,0,0,1-.986-.071c.891-.12,1.784-.237,2.675-.354-.006-.03-.012-.059-.019-.089h-1.34l-116.51-.05q-18,0-35.994.006c-.678,0-1.361.007-2.036-.012a4.069,4.069,0,0,1-2.519-.583c1.646-.095,3.245-.185,5.276-.3a15.375,15.375,0,0,0-1.59-.352c-1.56-.169-3.146-.311-4.73-.452-1.837-.161-3.178-.5-3.732-1.144-.32-.37-.961-.536-2.136-.573-2.015-.064-4.015-.2-6.062-.376l2.716-.293a3.607,3.607,0,0,0-.469-.1q-11.515-.564-23.032-1.115c-1.3-.062-2.635-.053-3.954-.053q-11.338,0-22.677.01a58.45,58.45,0,0,0-8.971.625,50.043,50.043,0,0,1-9.806.24c-5.011-.222-10-.345-15.051-.089a66.676,66.676,0,0,1-9.288-.191,11.784,11.784,0,0,0-3.738.274l8.835.413a6.881,6.881,0,0,1-2.928.422,89.981,89.981,0,0,0-9,.207c-4.25.15-8.539.157-12.813.212-.706.01-1.415-.046-2.259-.073l9.3-.7c-.009-.049-.015-.1-.024-.145-1.091-.059-2.179-.16-3.272-.173-14.718-.145-29.436-.1-44.15.05-1.079.013-2.151.062-3.227.1a2.6,2.6,0,0,0-.373.08c.515.07.938.147,1.39.182.771.059.983.2.975.466-.028.678.009.681-2.031.739-2.869.08-5.735.19-8.607.219a25.663,25.663,0,0,1-3.729-.24,35.39,35.39,0,0,0-5.155-.274c-3.5,0-7.011-.027-10.558-.133,1.827-.225,4.053-.139,5-1-.669.021-1.2.037-1.729.059q-9.772.379-19.544.755a11.71,11.71,0,0,1-1.214-.077c.009-.049.019-.1.027-.147,2.795-.256,5.59-.509,8.533-.777-.416-.129-.715-.225-.859-.268,2.681,0,5.46-.028,8.233.006,5.6.064,11.189.163,16.783.24a8.137,8.137,0,0,0,1-.117,4.789,4.789,0,0,0-.912-.222c-7.337-.469-14.758-.607-22.206-.622q-7.617-.01-15.238.015a3.47,3.47,0,0,0-.789.077q4.668.2,9.337.41c.019.04.034.083.053.123-1,.08-1.981.2-2.992.229-1.75.052-3.513.052-5.272.074-2.816.033-3.707.2-5.3,1-1.227-.329-2.487-.644-3.654-1-1.3-.389-1.271-.6-.031-1.008.3-.1.61-.2.915-.3-.03-.043-.059-.086-.089-.133-3.088.053-6.207.028-9.258.17-5.846.274-11.66.379-17.571.265-4.69-.089-9.424.1-14.139.127q-13.017.069-26.036.08a29.291,29.291,0,0,0-7.177.592,14.518,14.518,0,0,1-2.993.212q-9.42.038-18.838.031-5.282,0-10.561,0a8.635,8.635,0,0,1-1.177-.043,47.923,47.923,0,0,0-10.373-.207c-3.784.259-7.584.4-11.438.364a13.226,13.226,0,0,0-3.89.412,8.7,8.7,0,0,1-2.237.231c-3.106-.049-6.209-.133-9.307-.234-1.121-.037-1.516-.382-1.759-.7s-.728-.373-1.565-.339c-1.19.046-2.4.046-3.588.1-.521.024-1,.139-1.507.209.031.047.065.09.1.133l4.21.123a4.036,4.036,0,0,1-2.472.592c-2.986-.07-5.991-.077-8.962-.185-5.017-.179-9.975-.1-14.924.216-4.453.286-8.918.154-13.39.024-3.778-.107-7.578-.133-11.355-.24-2.376-.064-4.762-.16-7.088-.333a45.005,45.005,0,0,0-9.5.312,36.769,36.769,0,0,1-4.619.348c-5.189.019-10.379.013-15.568.01q-4.1,0-8.191,0a23.337,23.337,0,0,1-6.518-.765,18.711,18.711,0,0,0-7.4-.28,118.643,118.643,0,0,1-12.706.965c-2.749.083-5.565-.044-8.339-.13a77.47,77.47,0,0,0-10.1.247,60.119,60.119,0,0,1-12.193-.062,66.736,66.736,0,0,0-13.122-.07c-5.267.48-10.665.566-16.052.641q-25.293.343-50.594.613c-1.273.016-2.559-.021-3.825-.07a16.421,16.421,0,0,1-4.551-.759,17.773,17.773,0,0,0-5.178-.653c-9.075-.1-18.147-.216-27.223-.237-14.567-.037-29.1.247-43.63.592-2.8.065-5.621.059-8.437.056-1.464,0-2.924-.006-4.385,0q-9.892.047-19.778.1c-2.681.016-5.358.053-8.037.05q-23.338-.023-46.674-.056-32.64-.018-65.274-.016a91.139,91.139,0,0,1-10.7-.646,41.444,41.444,0,0,0-4.252-.164,5.245,5.245,0,0,0-1.458.229,10.939,10.939,0,0,1-4.548.345c-1.485-.166-2.962-.339-4.407-.533a2.92,2.92,0,0,0-1.661.127,5.5,5.5,0,0,1-3.2.2,23.353,23.353,0,0,0-7.208-.107c-3.834.508-7.571,1.1-11.353,1.648-.361.052-.74.107-1.125.126-6.851.317-13.7.645-20.558.94-2.693.117-5.411.169-8.12.24a9.054,9.054,0,0,1-1.424-.05,42.963,42.963,0,0,0-7.091-.212c-5.414.15-10.905.169-16.216.515-4.259.277-8.459.345-12.729.36a6.1,6.1,0,0,0-1.061.188,7.331,7.331,0,0,0,1.042.157c4.274.059,8.552.145,12.829.136a50.422,50.422,0,0,0,5.605-.336,78.287,78.287,0,0,1,12.545-.429c4.739.21,9.461.321,14.23.21,1.525-.034,1.529-.009,2.346.518-1.532.154-3.023.367-4.573.438-1.184.053-2.432-.11-3.655-.117-3.667-.019-7.34-.03-11.007-.006-4.992.037-9.981.142-14.974.163q-7.012.028-14.024.016-3.066,0-6.133,0h-1.461c.5-.367.912-.672,1.387-1.023-3.91.124-7.67.191-11.383.373-11.739.567-23.536.666-35.363.666Zm-142.618-.928a2.847,2.847,0,0,0,2.586-.053,7.137,7.137,0,0,0-1.519-.293A2.263,2.263,0,0,0-12222.551-8577.928Zm1350.4-.188a86.943,86.943,0,0,0,14.773.108c-2.886-.212-5.775-.366-8.675-.365C-10868.078-8578.373-10870.111-8578.3-10872.149-8578.116Zm103.742-.641c-2.1.059-4.2.148-6.3.225l-.24.139a4.725,4.725,0,0,0,.845.17c1.022.043,2.059.086,3.085.074,1.011-.01,2.021-.074,3.011-.148.219-.015.542-.219.465-.268a2.087,2.087,0,0,0-.828-.191Zm-1324.759-.333c-.015.037-.027.071-.04.108,1.884.145,3.751.326,5.655.428,1.377.074,1.938-.187,2.36-.979Zm1091.712-.351c.579.166,1.146.332,1.753.508.363-.083.685-.154,1.014-.228a4.494,4.494,0,0,0-1.661-.508A3.987,3.987,0,0,0-11001.454-8579.44Zm196.333.492c1.414-.116,2.542-.212,3.877-.323a12.432,12.432,0,0,0-1.629-.132A5.711,5.711,0,0,0-10805.121-8578.948Zm-66.082-1.5c.024.058.049.116.07.172l6.136.539c.61-.4,1.211-.792,1.947-1.272C-10865.922-8580.787-10868.661-8580.772-10871.2-8580.451Zm-1354.226.129,6.265-.133a10.146,10.146,0,0,0-2.723-.362A14,14,0,0,0-12225.429-8580.322Zm983.682-.523h3.2a9.082,9.082,0,0,0-1.877-.2A3.135,3.135,0,0,0-11241.747-8580.846Zm-400.028-2.1a25.783,25.783,0,0,1-8.86,1.223c-2.708.031-5.408.17-8.11.263l-.1.12c1.171.12,2.326.311,3.519.342,2.543.071,5.109.1,7.661.067,6.549-.076,13.094-.193,19.64-.3a35.106,35.106,0,0,0,5.488-.5,29.064,29.064,0,0,1,4.5-.326c6.074-.044,12.15-.025,18.225-.053,1.544-.009,3.085-.1,4.626-.16-.01-.037-.019-.074-.028-.111a89.9,89.9,0,0,0-10.089-.576q-5.4.01-10.789.071c-8,.092-15.981-.019-23.956-.222-.07,0-.145,0-.221,0A5.3,5.3,0,0,0-11641.775-8582.944Zm-202.494,1.34a6.868,6.868,0,0,0,4.533-.193C-11841.2-8581.733-11842.593-8581.675-11844.27-8581.6Zm839.4-.4a24.8,24.8,0,0,0,8.062,0,11.379,11.379,0,0,0-2.666-.274C-11000.612-8582.279-11002.2-8582.187-11004.872-8582Zm-797.823-.123c-1.476.037-2.955.064-4.431.1-.01.059-.016.12-.025.182,1.692.037,3.387.077,5.141.117.188-.229.289-.4-.511-.4C-11802.575-8582.127-11802.633-8582.127-11802.7-8582.125Zm765.876.117,2.382-.123a4.813,4.813,0,0,0-1.167-.156A2.4,2.4,0,0,0-11036.819-8582.008Zm-740.242-.539c-1.442.043-2.879.1-4.317.154.009.036.019.076.024.113,1.411,0,2.819,0,4.228-.006a1.93,1.93,0,0,0,.5-.126,1.692,1.692,0,0,0-.425-.136Zm122.886-.071a13.557,13.557,0,0,0,6.366-.114C-11649.917-8582.7-11652.025-8582.658-11654.176-8582.618Zm1233.856-1.59a12.3,12.3,0,0,1-4.533.915c-2.835.148-5.71.213-8.563.33-1.085.046-2.154.145-3.232.222.027.043.053.083.077.126,3.713.216,7.457.25,11.217.207q9.467-.111,18.937-.2a25.139,25.139,0,0,0,4.968-.5,21.049,21.049,0,0,1,3.763-.32c2.28-.021,4.561-.019,6.844-.016,1.917,0,3.834,0,5.751-.006,3.39-.021,6.779-.1,10.169-.145.028-.037.056-.077.087-.114-.367-.053-.722-.114-1.095-.16a70.7,70.7,0,0,0-8.5-.41q-4.021,0-8.037,0-8.033,0-16.07-.009c-3.437-.01-6.869-.1-10.3-.157l-.172,0A2.724,2.724,0,0,0-10420.319-8584.208Zm-1527.483,1.433h7.1a16.934,16.934,0,0,0-3.555-.378A16.778,16.778,0,0,0-11947.8-8582.775Zm1326.324-.277a2.569,2.569,0,0,0-.563.148,2.822,2.822,0,0,0,.6.12c.946-.007,1.9-.037,2.842-.062l.163-.13a6.134,6.134,0,0,0-.9-.142h-.1C-10620.121-8583.117-10620.8-8583.088-10621.479-8583.053Zm-872.946-.074c2.147.3,2.8.284,3.291-.19a5.5,5.5,0,0,1-1.371-.028,8.309,8.309,0,0,0-.847-.062A1.849,1.849,0,0,0-11494.425-8583.127Zm-160.608-.156c-.644.04-1.267.12-1.9.185.628.024,1.254.062,1.883.067.459,0,.924-.04,1.384-.062.012-.064.021-.132.033-.2-.288,0-.581-.009-.869-.009C-11654.681-8583.3-11654.858-8583.3-11655.033-8583.283Zm626.716.15c.992-.016,1.726-.024,2.453-.037a4.176,4.176,0,0,0-1.26-.239A2.8,2.8,0,0,0-11028.317-8583.133Zm442.6-.006h5.513a8.335,8.335,0,0,0-2.5-.369A14.406,14.406,0,0,0-10585.722-8583.139Zm-805.5-.5h-14.826A70.187,70.187,0,0,0-11391.218-8583.641Zm-680.327-.3c2.931.8,4.856,0,6.974-.456-1.026-.021-2.075-.079-3.1-.079A11.261,11.261,0,0,0-12071.545-8583.937Zm1642.847-.143-3.494.08v.349a1.466,1.466,0,0,0,.265.046c1.464-.043,2.925-.089,4.389-.129.776-.021.816-.154.478-.373C-10427.592-8584.1-10428.144-8584.091-10428.7-8584.079Zm-131.252.37h4.795a.79.79,0,0,0,.006-.083h-4.785C-10559.941-8583.765-10559.944-8583.736-10559.95-8583.709Zm-676.647-.406c-.016.058-.031.116-.046.175,1.294.056,2.588.117,3.889.154a4.8,4.8,0,0,0,.841-.126,2.666,2.666,0,0,0-.7-.194q-1-.013-1.993-.012Zm-86.723-.354.215.406a62.694,62.694,0,0,0,10.047-.107c6.372-.416,12.825-.576,19.3-.66,1.208-.015,2.4-.179,3.6-.271-.043-.062-.086-.123-.129-.182C-11301.26-8585.016-11312.239-8584.744-11323.32-8584.47Zm-469.058.268c-1.953-.11-3.91-.219-6.129-.345C-11796.594-8583.783-11794.448-8584.072-11792.378-8584.2Zm1064.125-.027a.992.992,0,0,0,.176.037c3.377.049,6.758.095,10.169.145a24.331,24.331,0,0,0-5.7-.554A24.456,24.456,0,0,0-10728.253-8584.229Zm-122.048-1.106c3.22.472,5.723-.17,8.508-.49a24.023,24.023,0,0,0-2.73-.139A21.221,21.221,0,0,0-10850.3-8585.336Zm272.425-.456c1.854.653,3.926.472,6.228.345a18.076,18.076,0,0,0-4.064-.436C-10576.41-8585.883-10577.127-8585.851-10577.876-8585.792Zm-1478.646-4.349c1.178.53,4.848.324,6.869-.163a22.986,22.986,0,0,0-3.267-.248A14.572,14.572,0,0,0-12056.522-8590.141Zm1221.174-1.331c2.888.506,5.5.087,8.132-.117a39.1,39.1,0,0,0-4.1-.25A20.8,20.8,0,0,0-10835.349-8591.472Z" transform="translate(12279 8675)"/><path d="M-12078.791-8576.5h-1.142c-20.223-.013-40.785-.015-60.67-.017-13.465,0-27.389,0-41.083-.008-23.52-.01-47.432-.024-70.558-.038l-23.518-.015c-.712,0-1.434-.014-2.132-.027-.372-.007-.743-.014-1.114-.019l-.493-.007V-8675.5h1921v93.428l-.473.026c-1.647.092-3.361.138-5.1.138-2.828,0-5.776-.119-9.016-.362-1.614-.125-3.22-.187-4.771-.187a54.96,54.96,0,0,0-6.7.4,90.017,90.017,0,0,1-9.69.464l-1.15.015c-15.944.211-33.278.428-54.552.684-.382,0-.771.007-1.155.007-1.454,0-2.923-.032-4.367-.1a10,10,0,0,1-2.583-.421,23.2,23.2,0,0,0-7.761-1.033c-3.006-.012-6.062-.026-9.019-.04-7.178-.034-14.6-.068-21.9-.068-3.435,0-6.584.007-9.628.022-5.437.026-10.961.148-16.3.267-4.037.09-8.212.182-12.323.232-1.889.021-3.953.032-6.31.032-1.926,0-3.846-.007-5.646-.014-1.832-.007-3.624-.014-5.4-.014-.779,0-1.5,0-2.2,0-3.369.011-6.8.038-10.109.064-4.187.034-8.519.069-12.776.069-1.845,0-3.543-.006-5.191-.02-5.69-.046-11.755-.068-18.541-.068-8.639,0-17.423.037-25.917.072-7.605.031-15.47.063-23.207.07h-3.191c-13.667,0-27.209-.083-37.48-.155-1.731-.012-3.472-.175-5.155-.332-.693-.064-1.41-.132-2.112-.187-.333-.025-.662-.066-.979-.105a12.294,12.294,0,0,0-1.49-.124h-.02a13.968,13.968,0,0,0-2.891.227,13.664,13.664,0,0,1-3.721.482,23.567,23.567,0,0,1-2.988-.213c-2.01-.261-3.706-.453-5.459-.549-.874-.046-1.775-.069-2.677-.069a66.719,66.719,0,0,0-9.175.69c-1.947.271-3.9.568-5.784.856q-.9.138-1.793.273a36.659,36.659,0,0,1-5.585.465c-.665,0-1.332-.023-1.982-.068-.108-.008-.227-.013-.342-.013a3.525,3.525,0,0,0-.48.029,97.573,97.573,0,0,1-10.331.764q-.929.035-1.855.073l2.838.036c8.3.106,16.878.217,25.315.33,1.913.025,3.8.106,5.611.241l-.037,1c-.865,0-1.731,0-2.595,0-.746,0-1.354,0-1.913-.01h-.1a2.085,2.085,0,0,0-1.155.216l-.176.105c-2.094,1.253-2.336,1.349-5.841,1.349h-1.431c-9.466-.01-19.09-.028-28.4-.046-8.429-.016-17.145-.032-25.717-.043h-1.157c-3.146,0-6.345.016-9.438.031-1.794.009-3.649.019-5.474.024-.329,0-.66-.007-1.011-.015l-.65-.013-.692-.011.229-.654c0-.013.009-.024.013-.036l-8.168.083-12.24.125-.787.008.328-.716a1.278,1.278,0,0,1,.686-.618c-4.416.137-8.947.277-13.412.405-1.271.036-2.566.036-3.819.036-.874,0-1.776,0-2.66.013a16.8,16.8,0,0,0-4.454.609,7.774,7.774,0,0,1-1.924.281c-17.113.169-34.515.326-51.343.479l-2.992.027h-.135a4.885,4.885,0,0,1-.951-.081l-2.259-.437-54.575-.022-58.265-.025q-10.248,0-20.506,0l-15.488,0c-.282,0-.567,0-.852,0-.354,0-.773,0-1.2-.013a4.519,4.519,0,0,1-2.749-.646l-1.5-.837,1.711-.1.089,0-1.146-.1c-2.164-.189-3.456-.607-4.068-1.314-.209-.241-.772-.369-1.773-.4-1.84-.06-3.774-.179-6.089-.378l-.006-.5-.936-.046c-6.5-.318-13.212-.647-19.824-.958-1.025-.048-2.067-.052-3.047-.052h-.884c-4.766,0-9.61,0-14.3.006l-8.381,0a57.669,57.669,0,0,0-8.894.619,35.684,35.684,0,0,1-5.485.368c-1.482,0-3-.059-4.42-.122-3.618-.16-6.412-.231-9.059-.231-2.106,0-4.051.046-5.944.142-1.009.052-2.043.079-3.076.082l-.956.38a7.2,7.2,0,0,1-2.627.473c-.172,0-.346-.006-.517-.017-.677-.043-1.373-.064-2.131-.064-1.425,0-2.857.077-4.243.151-.844.045-1.715.092-2.582.121-3.191.112-6.455.146-9.612.177-1.054.011-2.142.021-3.211.035-.478.009-.951-.016-1.455-.039-.265-.013-.538-.025-.827-.034l-.021-1,.8-.06c-4.325-.029-8.779-.044-13.3-.044-8.043,0-16.416.045-25.6.138-.262,0-.524.009-.787.015a.882.882,0,0,1,.047.325l0,.039a.945.945,0,0,1-.608,1.023,7.691,7.691,0,0,1-1.906.16q-1.154.032-2.308.068c-2.066.063-4.2.13-6.31.15h-.237a26.113,26.113,0,0,1-3.566-.246,34.347,34.347,0,0,0-4.892-.27h-.668c-3.837,0-7.046-.042-10.1-.133l-.038-.811-.838.033c-5.035.2-10.243.4-15.368.592-.046,0-.095,0-.143,0-.253,0-.506-.024-.75-.048-.13-.013-.253-.024-.374-.032l-.557-.038.1-.55.015-.077c0-.023.009-.047.013-.07l.052-.286c-.764.014-1.527.021-2.274.026q-.8.007-1.6.017c-2.754.032-3.562.184-5.086.95l-.17.086-.185-.05-1.019-.27c-.883-.231-1.8-.472-2.65-.729-.586-.175-1.316-.393-1.324-.967a.619.619,0,0,1,.154-.424l-.828.007c-2.076.02-4.223.039-6.3.135-4.456.21-8.655.312-12.839.312-1.591,0-3.194-.016-4.766-.046-.83-.016-1.688-.023-2.624-.023-2.073,0-4.19.039-6.237.076-1.726.032-3.511.064-5.265.074-8.184.043-16.7.069-26.038.08a29.331,29.331,0,0,0-7.053.576,14.621,14.621,0,0,1-3.117.228c-5.129.021-10.344.024-15.387.028q-4.373,0-8.733,0l-5.279,0h-.307a6.532,6.532,0,0,1-.944-.049,37.212,37.212,0,0,0-5.573-.381c-1.39,0-2.924.059-4.691.179-3.644.249-7.025.37-10.338.37-.379,0-.763,0-1.139,0h-.278a12.03,12.03,0,0,0-3.465.393,9.05,9.05,0,0,1-2.229.253h-.16c-2.785-.044-5.832-.12-9.314-.234a2.477,2.477,0,0,1-2.141-.9c-.041-.055-.2-.149-.809-.149h-.021l-.876.507a4.423,4.423,0,0,1-2.54.661l-.193,0c-1.153-.027-2.328-.045-3.465-.062-1.808-.027-3.677-.057-5.5-.122-1.751-.062-3.526-.094-5.277-.094-3.17,0-6.4.1-9.6.309-1.8.115-3.73.172-5.906.172-2.484,0-5.011-.073-7.454-.145l-.076,0c-1.886-.054-3.811-.088-5.672-.12s-3.792-.066-5.684-.12c-2.809-.076-5.067-.183-7.11-.334-1.071-.08-2.154-.121-3.219-.121a45.853,45.853,0,0,0-6.178.429,37.021,37.021,0,0,1-4.685.353c-2.476.009-5.184.014-8.523.014l-5.3,0h-1.745q-4.1,0-8.19,0h-.054a23.558,23.558,0,0,1-6.6-.784,14.625,14.625,0,0,0-4-.494,23.39,23.39,0,0,0-3.192.229,117.444,117.444,0,0,1-12.76.97c-.606.019-1.232.027-1.913.027-1.7,0-3.434-.058-5.112-.114l-1.344-.043c-1.217-.038-2.325-.057-3.389-.057-2.422,0-4.6.1-6.646.3-1.886.187-3.831.281-5.78.282a62.031,62.031,0,0,1-6.515-.346,65.636,65.636,0,0,0-6.819-.356c-2.037,0-4.125.1-6.2.287-5.435.5-11.1.573-16.091.643-13.568.184-27.367.344-40.711.5l-9.884.115c-.2,0-.4,0-.607,0-1.171,0-2.349-.04-3.243-.075a16.977,16.977,0,0,1-4.689-.783,17.043,17.043,0,0,0-5.025-.628l-4.381-.049c-7.485-.084-15.225-.171-22.837-.188-14.875-.036-29.787.264-43.617.592-2.168.051-4.307.058-6.3.058l-1.756,0h-.4l-2.17,0c-.828,0-1.551,0-2.211.006-5.5.026-11.086.057-16.489.086l-3.289.019c-.935.006-1.886.014-2.8.021-1.619.014-3.293.028-4.94.028h-.295c-6.13-.006-12.361-.016-18.388-.024-9.271-.014-18.856-.027-28.286-.031-11.511-.006-23.213-.008-34.53-.009-10.077,0-20.5,0-30.744-.007a91.025,91.025,0,0,1-10.756-.65,35.012,35.012,0,0,0-3.635-.155l-.564,0h-.013a4.8,4.8,0,0,0-1.286.2,10.333,10.333,0,0,1-3.148.458,14.916,14.916,0,0,1-1.607-.092c-1.224-.137-2.831-.321-4.419-.535a4.982,4.982,0,0,0-.653-.052,1.747,1.747,0,0,0-.739.141,4.932,4.932,0,0,1-2,.382,8.3,8.3,0,0,1-1.5-.147,20.7,20.7,0,0,0-3.732-.326,25.464,25.464,0,0,0-3.319.224c-2.625.348-5.25.74-7.788,1.119-1.165.174-2.368.354-3.558.528l-.037,0c-.364.053-.74.106-1.137.125l-4.922.229c-4.651.217-9.446.441-14.194.648a4.722,4.722,0,0,1,.711.406l.052.034,1.2.774-1.422.143c-.453.046-.911.1-1.354.147-1.053.119-2.141.242-3.246.293-.166.007-.335.011-.518.011-.542,0-1.1-.033-1.634-.064-.5-.03-1.026-.061-1.529-.063-1.936-.01-4.229-.02-6.561-.02-1.594,0-3.046,0-4.44.014-2.233.017-4.5.047-6.7.077-2.711.036-5.515.074-8.273.086-2.922.012-6.087.017-9.961.017q-3.056,0-6.11,0-2.045,0-4.087,0h-2.985l1.228-.9.1-.072-2.025.057c-2.675.074-5.2.144-7.748.268C-12055.523-8576.581-12067.574-8576.5-12078.791-8576.5Zm-140.931-1.043c12.671.007,25.41.014,38.036.019,13.694,0,27.618.006,41.083.008,19.886,0,40.447,0,60.67.017h1.142c11.2,0,23.24-.081,35.339-.665,2.558-.125,5.089-.2,7.769-.269,1.181-.033,2.4-.066,3.623-.105l1.6-.051-1.285.952-.164.122q2.011,0,4.029,0h.07l-1.354-.217,2.873-.523c.1-.019.207-.043.318-.069a3.582,3.582,0,0,1,.832-.126c3.761-.014,8.212-.067,12.7-.359,3.795-.247,7.74-.328,11.556-.407,1.536-.032,3.124-.065,4.679-.108.872-.023,1.8-.047,2.739-.047a31.677,31.677,0,0,1,4.435.264,6.6,6.6,0,0,0,.914.051c.129,0,.269,0,.428-.006l1.858-.047c2.055-.051,4.18-.1,6.253-.193,5.216-.225,10.512-.472,15.634-.711l4.922-.229c.348-.016.7-.066,1.041-.116l.036,0c1.187-.173,2.39-.353,3.553-.527,2.543-.38,5.172-.772,7.806-1.122a26.625,26.625,0,0,1,3.45-.231,21.639,21.639,0,0,1,3.914.344,7.338,7.338,0,0,0,1.314.13,3.966,3.966,0,0,0,1.591-.3,2.724,2.724,0,0,1,1.144-.227,5.826,5.826,0,0,1,.787.062c1.577.212,3.178.4,4.4.531a13.847,13.847,0,0,0,1.5.086,9.318,9.318,0,0,0,2.843-.41,5.778,5.778,0,0,1,1.592-.252h.021l.564,0a35.3,35.3,0,0,1,3.744.163,90.081,90.081,0,0,0,10.639.643c10.247,0,20.667.006,30.743.007,10.616,0,21.569,0,32.387.008l-2.268-.483,3.943-.166c1.634-.068,3.045-.127,4.531-.193l2.525-.111-2.062.958c7.957,0,15.97.017,23.761.028l7.807.012.082-.515c0-.024.007-.049.011-.073s.01-.076.016-.112l.068-.409.414-.009,1.256-.025c1.041-.021,2.117-.044,3.173-.07.065,0,.128,0,.187,0,.451,0,.906.032,1.086.413a.743.743,0,0,1-.188.8l-.009.011,4.485,0h.294c1.644,0,3.315-.015,4.932-.028.92-.008,1.871-.016,2.808-.021l3.289-.019c5.4-.029,10.992-.06,16.489-.086.662,0,1.387-.006,2.217-.006l2.17,0h.4l1.754,0c1.982,0,4.115-.007,6.272-.058,13.035-.31,27.03-.595,41.055-.595l2.588,0c7.617.019,15.359.1,22.846.188l4.382.049a17.672,17.672,0,0,1,5.331.68,16.01,16.01,0,0,0,4.411.732c.886.034,2.051.074,3.2.074.2,0,.4,0,.6,0l9.884-.114,4.923-.058-.53-.063c-.35-.042-.71-.086-1.064-.123l-.946-.1.616-.725.049-.058.053-.062.144-.168.22-.008c.81-.027,1.634-.061,2.43-.091.677-.027,1.362-.055,2.052-.079l-.029-.008-1.457-.412c-.214-.008-.425-.018-.634-.026l-.548-.023-.009-.287-.6-.17.593-.011-.017-.529.522-.057c.452-.049.919-.1,1.395-.13h0c.2-.015.4-.017.564-.017.147,0,.3,0,.442,0s.285,0,.427,0h.6l-.1.588c0,.021-.008.043-.011.065,1.772-.033,3.521-.063,5.27-.095h.062l4.5-.079-3.9.949a17.358,17.358,0,0,0,5.258-1.047,5.923,5.923,0,0,1,1.683-.2c.081,0,.16,0,.234,0,6.717.171,12.642.254,18.111.254,1.978,0,3.938-.011,5.825-.032,3.637-.041,7.269-.064,10.794-.071h.139a90.071,90.071,0,0,1,10.007.579l.341.038.087.332c.006.021.011.041.016.062s.009.033.013.05l.14.529q1.147.081,2.285.2a61.126,61.126,0,0,0,6.41.34c1.917,0,3.828-.094,5.682-.278,2.083-.206,4.289-.306,6.744-.306,1.074,0,2.192.019,3.42.057l1.346.044c1.67.056,3.4.113,5.079.113.671,0,1.287-.009,1.884-.027a116.5,116.5,0,0,0,12.652-.96,24.282,24.282,0,0,1,3.329-.238,15.634,15.634,0,0,1,4.278.533,22.6,22.6,0,0,0,6.327.745h.052q4.1,0,8.193,0h1.744l5.3,0c3.338,0,6.045,0,8.52-.014a35.86,35.86,0,0,0,4.555-.344,46.877,46.877,0,0,1,6.312-.437c1.09,0,2.2.042,3.293.123,2.026.151,4.271.257,7.064.332,1.887.054,3.812.088,5.673.12s3.792.066,5.684.12l.076,0c2.437.07,4.955.144,7.425.144,2.154,0,4.065-.056,5.842-.17,3.22-.206,6.47-.311,9.661-.311,1.763,0,3.55.031,5.313.094,1.818.066,3.682.095,5.484.122l1.229.02-.019-.027-.44-.662.787-.11c.157-.022.313-.049.477-.076a8.811,8.811,0,0,1,1.076-.138c.656-.03,1.328-.044,1.978-.058.531-.012,1.081-.023,1.614-.044.139,0,.263-.008.378-.008a1.922,1.922,0,0,1,1.6.542c.127.167.359.474,1.379.507,3.476.114,6.518.19,9.3.234h.144a8.029,8.029,0,0,0,1.943-.212,12.971,12.971,0,0,1,3.75-.434h.286c.374,0,.755,0,1.131,0,3.29,0,6.649-.12,10.27-.368,1.79-.121,3.348-.181,4.76-.181l.551,0c-1.138-.066-2.258-.162-3.352-.287l.057-1h14.826l.049,1c-2.72.267-5.253.4-7.744.4q-.683,0-1.36-.014c.938.064,1.832.162,2.7.293a5.854,5.854,0,0,0,.795.037h.307q5.279.006,10.561,0l3.451,0c5.042,0,10.256-.008,15.385-.028a14.67,14.67,0,0,0,2.87-.2,30.075,30.075,0,0,1,7.3-.607c9.337-.011,17.853-.037,26.034-.08,1.748-.01,3.529-.042,5.252-.074,1.186-.021,2.394-.044,3.6-.059q-.574-.035-1.134-.087l-.271-.025-.126-.24-.187-.353-.406-.766.808-.021c10.213-.253,21.787-.539,33.039-.813l.261-.006.154.211c.046.062.091.126.136.191l.5.717-.871.067c-.385.029-.779.067-1.16.1-.806.077-1.639.158-2.475.168-5.331.069-12.34.206-19.276.659-1.146.074-2.312.15-3.492.2,1.5.027,3.026.042,4.542.042,4.168,0,8.352-.1,12.792-.311,2.094-.1,4.249-.116,6.334-.136.965-.009,1.962-.018,2.938-.034l.278,0,.15.234c.026.041.052.078.078.116l.386.55-.637.212c-.144.048-.287.094-.431.14l-.483.158-.079.026.094.028c.838.253,1.743.49,2.618.721l.84.222a7.935,7.935,0,0,1,2.955-.862l-2.433-.106,3.6-.826a4.006,4.006,0,0,1,.9-.09l2.586,0c3.156-.006,6.42-.012,9.629-.012l3.024,0c8.79.018,15.856.216,22.237.623a3.132,3.132,0,0,1,.752.163c.088.026.171.053.252.073l2.6.664-2.662.316c-.1.013-.2.028-.311.046a4.687,4.687,0,0,1-.734.075h-.021c-2.163-.029-4.358-.063-6.481-.1l-3.164-.048-.245.223a2.3,2.3,0,0,1-.3.233c1.577.02,3.246.028,5.055.028h.668a35.388,35.388,0,0,1,5.033.279c.366.053.75.1,1.142.132l1.029-.588a3.6,3.6,0,0,1,1.568-.27h0a9.533,9.533,0,0,1,1.983.215l2.906.637,1.312-.04q1.154-.035,2.31-.069a13.763,13.763,0,0,0,1.537-.086c0-.015,0-.031,0-.048a2.793,2.793,0,0,0-.508-.072c-.333-.025-.646-.072-.979-.122l-.439-.063-2.817-.385,2.779-.6c.06-.013.107-.024.154-.037a1.351,1.351,0,0,1,.31-.054l.92-.031c.757-.027,1.539-.056,2.315-.064,9.187-.093,17.563-.138,25.609-.138,6.375,0,12.617.029,18.552.088.752.009,1.506.059,2.234.107.348.023.707.047,1.061.066l.384.021.078.377c.008.035.014.072.02.109,0,.017,0,.032.008.049l.049.271c1.74-.026,3.487-.063,5.211-.125.679-.022,1.363-.057,2.035-.092l-2.648-.124,3.618-.814a12.763,12.763,0,0,1,2.83-.332c.349,0,.706.017,1.062.048,2.009.18,4.031.271,6.011.271,1.077,0,2.156-.027,3.208-.08,1.911-.1,3.872-.144,6-.144,2.662,0,5.469.071,9.1.232,1.408.063,2.913.121,4.375.121a34.669,34.669,0,0,0,5.331-.356,58.789,58.789,0,0,1,9.047-.631l8.381,0c4.686,0,9.531-.006,14.3-.006h.884c.991,0,2.046,0,3.094.053,6.613.311,13.33.641,19.826.959l3.207.157a1.7,1.7,0,0,1,.346.061c.058.015.123.031.2.049l3,.648.259.009c1.354.043,2.077.259,2.5.746.288.333,1.112.772,3.4.973,1.563.14,3.177.283,4.74.453a7.106,7.106,0,0,1,1.021.209c.182.046.388.1.625.152l3.455.782-1.755.1,12.955,0q10.257,0,20.507,0l58.265.025,58.245.024h1.738l.089.389c.008.036.016.07.022.106l.809-.008c10.895-.1,22.03-.2,33.171-.3l0-.74c1.943-.174,3.953-.259,6.143-.259h.026c2.52,0,5.279.116,8.686.366l0,.49,3.315-.032a6.786,6.786,0,0,0,1.653-.241,17.773,17.773,0,0,1,4.721-.649c.891-.013,1.8-.013,2.674-.013,1.246,0,2.534,0,3.79-.036,4.939-.142,9.96-.3,14.814-.448,2.972-.093,6.045-.187,9.068-.279,1.7-.05,3.515-.083,5.382-.1a3.61,3.61,0,0,1,.882.144c.148.037.3.074.475.109l2.635.53-2.649.453c-.948.162-1.886.275-2.812.358l5.166-.053,2.918-1.145a6.235,6.235,0,0,1,2.431-.489,12.829,12.829,0,0,1,1.7.136l.5.067.1-.1h.205c.29,0,.586,0,.872.01s.572.01.854.01c.384,0,.694-.01.979-.028.951-.06,1.91-.14,2.838-.218,1.362-.114,2.771-.232,4.181-.288,2.167-.083,4.379-.134,6.518-.182s4.344-.1,6.5-.182c1.4-.055,2.84-.082,4.4-.082,2.625,0,5.191.077,7.356.152.765.027,1.589.041,2.452.041.727,0,1.482-.01,2.31-.028,1.682-.041,3.389-.109,5.039-.176q1.055-.042,2.11-.083a96.822,96.822,0,0,0,10.223-.754,4.637,4.637,0,0,1,.627-.04c.139,0,.282.006.413.015.626.044,1.27.066,1.911.066a35.824,35.824,0,0,0,5.435-.453l1.792-.273c1.89-.289,3.845-.588,5.8-.858,1.477-.2,2.885-.363,4.24-.478l-4.563-.064h-.025a1.218,1.218,0,0,1-.237-.044l-.03-.008-2.078-.531,2.1-.442a24.6,24.6,0,0,1,4.743-.383h.021a24.41,24.41,0,0,1,5.817.572l2.9.8c1.6.115,3.193.308,4.688.5a22.651,22.651,0,0,0,2.86.205,12.662,12.662,0,0,0,3.454-.446,14.342,14.342,0,0,1,3.152-.263h.024a13.007,13.007,0,0,1,1.612.132c.308.037.625.077.936.1.71.056,1.431.124,2.128.188,1.662.156,3.38.317,5.068.328,10.271.072,23.811.155,37.474.155h3.19c7.735-.007,15.6-.039,23.2-.07l3.233-.014,1.67-.476c.042-.013.089-.028.138-.045a1.956,1.956,0,0,1,.532-.122c.621-.032,1.349-.065,2.07-.065h.1a3.51,3.51,0,0,1,.713.1c.095.02.184.037.271.052l1.1.178-.441.358c5.5-.021,11.044-.035,16.534-.035,4.3,0,8.319.01,12.132.027l3.2-.687a14.916,14.916,0,0,1,3.12-.381,8.865,8.865,0,0,1,2.645.392l2.4.736h.235c4.254,0,8.582-.035,12.769-.069,3.314-.026,6.742-.054,10.113-.064.7,0,1.423,0,2.2,0,1.776,0,3.569.007,5.4.014,1.8.007,3.719.014,5.643.014,2.353,0,4.413-.011,6.3-.032,4.105-.05,8.278-.143,12.313-.232,5.347-.118,10.877-.24,16.321-.267,3.046-.016,6.2-.022,9.633-.022,7.3,0,14.723.034,21.9.068,2.956.014,6.013.028,9.019.04a24.088,24.088,0,0,1,8.1,1.094,8.847,8.847,0,0,0,2.284.361c1.43.063,2.884.1,4.323.1.381,0,.766,0,1.144-.007,4.974-.06,9.731-.117,14.308-.174-.317-.016-.633-.032-.944-.051l-.271-.016-.134-.235c-.019-.032-.04-.065-.064-.1l-.452-.708.838-.061q.469-.034.937-.07c.753-.059,1.532-.119,2.31-.151l.745-.03v-1l.488-.011,1.471-.033,2.024-.047c.378-.008.754-.014,1.123-.02l.517-.008.151,0,.128.082c.354.229.492.491.41.782,0,.008,0,.016-.007.023q.757-.032,1.508-.071a11.762,11.762,0,0,0,4.336-.863,3.2,3.2,0,0,1,1.522-.295l.172,0h.008q1.25.022,2.5.048c2.558.05,5.2.1,7.8.109,2.8.008,5.834.012,9.553.012q4.6,0,9.193,0,2.676,0,5.36,0a71.878,71.878,0,0,1,8.565.414c.241.029.477.065.7.1l.4.061.891.128-.579.688c-.007.009-.015.018-.021.027q.732.04,1.467.1c3.213.242,6.137.36,8.939.36,1.551,0,3.085-.037,4.568-.111v-91.48h-1919v96.884l.626.012c.693.013,1.411.026,2.113.026l23.519.015,29.225.018-.888-.266,1.132-.564a2.7,2.7,0,0,1,1.29-.4,7.421,7.421,0,0,1,1.641.308l1.291.324Zm1429.188-.06h1.158c8.572.011,17.289.027,25.718.043,9.307.018,18.93.036,28.4.046h1.43c3.016,0,3.348-.038,4.848-.922-8-.106-16.11-.211-23.967-.312l-13.877-.179-.37,0a.523.523,0,0,1,.15.513c-.1.394-.662.6-.927.616-.953.071-1.983.14-3.039.149l-.353,0c-.93,0-1.859-.039-2.758-.076a3.332,3.332,0,0,1-.714-.128c-.076-.02-.148-.038-.22-.054l-1.253-.28,1.46-.842.124,0q.957-.034,1.913-.071l1.051-.04c-1.483-.073-2.986-.13-4.475-.13-1.183,0-2.262.035-3.3.106-.88.061-1.765.149-2.62.236-1.15.116-2.341.236-3.544.288-3.645.161-7.59.279-12.418.373h-.078a8.128,8.128,0,0,1-1.674-.237c-.255-.055-.5-.106-.737-.146l-.684-.113-1.254.1c-.814.068-1.613.136-2.534.211l-2.067.17.293,0,.714-.007-.258.729c.331.007.645.014.95.014,1.822-.006,3.677-.016,5.47-.024C-10796.883-8577.586-10793.683-8577.6-10790.534-8577.6Zm-1207.286-.215c-1.869,0-3.731.066-5.564.2,2.146-.028,4.36-.058,6.541-.074,1.063-.007,2.158-.012,3.325-.013l-.685-.03C-11995.41-8577.79-11996.628-8577.817-11997.82-8577.817Zm390.543-3.771h-.271c-3.439,0-7,.009-10.491.034a28.335,28.335,0,0,0-4.414.318q-.52.091-1.048.165l1.984-.026C-11617.084-8581.158-11612.123-8581.227-11607.277-8581.589Zm-33-1.019a4.965,4.965,0,0,0-1.313.127,17.276,17.276,0,0,1-4.6,1.032c4.33-.054,8.7-.125,12.948-.193l5.2-.084a34.751,34.751,0,0,0,5.41-.5c.277-.048.575-.092.892-.13h-.2c-5.479,0-11.412-.083-18.138-.254C-11640.135-8582.606-11640.205-8582.607-11640.276-8582.607Zm367.294.2.157.339.278-.024,1.065-.1-.731-.218Zm879.749-.545c-1.783,0-3.155.006-4.449.018a20.3,20.3,0,0,0-3.666.31c-.234.048-.468.093-.7.134l6.637-.087,1.152-.015c2.906-.035,5.9-.072,8.734-.361-1.079,0-2.14,0-3.054,0h-2.263Zm-25.787-1a2.25,2.25,0,0,0-1.075.189,9.926,9.926,0,0,1-3.129.828c5.177-.061,11.027-.126,16.8-.18a24.646,24.646,0,0,0,4.872-.489c.358-.074.746-.133,1.143-.179-3.087,0-5.7,0-8.137-.011-2.609-.008-5.259-.06-7.82-.109q-1.247-.025-2.492-.048h-.008Zm-1668.114,5.908c-.137,0-.286,0-.442-.013-1.31-.069-2.62-.179-3.887-.284-.583-.048-1.187-.1-1.78-.144l-.643-.05.207-.61c.016-.044.031-.086.049-.132l.118-.3,1.074-.06c2.357-.131,4.729-.262,7.22-.4l.888-.05-.418.784A2.312,2.312,0,0,1-12087.135-8578.042Zm1087.419-.374-.124-.036-.687-.2-1.065-.309-1.646-.473,1.643-.487a4.422,4.422,0,0,1,1.247-.248,4.9,4.9,0,0,1,1.855.547l1.443.608-1.646.367c-.288.063-.574.127-.894.2Zm134.847-.812-.172-.015-1.943-.171-4.192-.368-.311-.027-.112-.291c-.02-.051-.042-.1-.064-.157l-.256-.607.654-.083c1.563-.2,3.174-.279,4.878-.365,1.072-.055,2.18-.111,3.3-.2l1.953-.153-1.641,1.07-.922.6c-.355.232-.689.451-1.026.67Zm-1.138-1.1.882.077.207-.135C-10865.284-8580.368-10865.647-8580.35-10866.007-8580.331Zm-1363.654.6,4.106-1.073a14.372,14.372,0,0,1,3.668-.512,10.586,10.586,0,0,1,2.855.381l3.293.909Zm1228.343-1.435a18.521,18.521,0,0,1-3.651-.345l-3.682-.73,3.745-.259c2.615-.181,4.255-.278,5.43-.278a11.9,11.9,0,0,1,2.771.285l2.952.632-3,.354A38.7,38.7,0,0,1-11001.318-8581.167Zm-37.509-.237,1.754-1.034a2.863,2.863,0,0,1,1.469-.349,5.324,5.324,0,0,1,1.289.171l3.22.812-3.315.173-2.383.123Zm-740.863-.375h-2.093l-.065-.424c0-.016-.01-.046-.016-.07l-.145-.595.61-.024c1.405-.054,2.858-.11,4.322-.154h.021a1.212,1.212,0,0,1,.471.118c.041.017.079.032.106.042l1.594.511-1.613.446c-.035.01-.076.024-.12.039a1.523,1.523,0,0,1-.509.105C-11778.026-8581.779-11778.928-8581.779-11779.69-8581.779Zm-156.3-.5h-16.491l4.578-.989a17.337,17.337,0,0,1,3.648-.389,17.488,17.488,0,0,1,3.66.389Zm443.624-.15a16.067,16.067,0,0,1-2.123-.206l-1.286-.181,1.075-.729a2.308,2.308,0,0,1,1.354-.366,8.3,8.3,0,0,1,.854.06l.044,0a8.149,8.149,0,0,0,.834.059,2.814,2.814,0,0,0,.412-.027l1.538-.228-1.117,1.081A2.063,2.063,0,0,1-11492.371-8582.426Zm461.689-.17,2.155-.991a3.3,3.3,0,0,1,1.4-.322,4.641,4.641,0,0,1,1.408.262l2.96.923-3.1.055-1.331.021-1.123.017Zm-1038.415-.5a9.647,9.647,0,0,1-2.58-.357l-1.506-.412,1.465-.539a11.885,11.885,0,0,1,4.045-.566c.641,0,1.3.022,1.93.044.389.014.792.027,1.183.035l4.3.09-4.21.9c-.368.078-.74.17-1.1.259A14.187,14.187,0,0,1-12069.1-8583.1Zm1513.941-.112h-5.415l.134-.618a.679.679,0,0,1,.018-.087l.095-.378h5.675v.5c0,.052,0,.1-.008.131l-.047.448Zm-677.56-.076h-.059c-1.055-.03-2.125-.077-3.159-.123l-.732-.032-.613-.026.15-.595c.015-.062.031-.124.048-.185l.1-.368h.382l1.994,0c.762,0,1.4,0,2,.012a1.92,1.92,0,0,1,.65.151c.064.024.126.047.182.063l2.139.635-2.205.339c-.078.012-.162.029-.251.048A3.056,3.056,0,0,1-11232.715-8583.285Zm-562.687-.254a8.669,8.669,0,0,1-3.29-.544l-2.849-1.137,3.063.174,3.7.208,2.427.137,0,1c-.265.017-.537.036-.8.056C-11793.886-8583.595-11794.649-8583.539-11795.4-8583.539Zm947.425-1.13a16.343,16.343,0,0,1-2.4-.172l-1.937-.284,1.835-.68a21.762,21.762,0,0,1,5.951-.66,24.326,24.326,0,0,1,2.789.143l4.26.5-4.261.49c-.632.072-1.262.163-1.87.252A29.9,29.9,0,0,1-10847.978-8584.669Zm273.4-.154a10.109,10.109,0,0,1-3.462-.5l-2.23-.786,2.357-.184c.8-.062,1.517-.093,2.2-.093a18.649,18.649,0,0,1,4.175.448l3.486.79-3.569.2-.522.03C-10572.992-8584.869-10573.794-8584.823-10574.58-8584.823Zm-1479.5-4.5a7.045,7.045,0,0,1-2.646-.356l-1.3-.586,1.381-.354a15.067,15.067,0,0,1,3.727-.427,23.513,23.513,0,0,1,3.338.253l2.575.371-2.529.61A21.349,21.349,0,0,1-12054.082-8589.328Zm1221.662-1.4a17.266,17.266,0,0,1-3.015-.248l-2.65-.464,2.64-.519a21.183,21.183,0,0,1,4.129-.377,38.9,38.9,0,0,1,4.152.253l-.014,1c-.485.037-.98.083-1.459.128C-10829.859-8590.849-10831.124-8590.731-10832.42-8590.731Z" transform="translate(12279 8675)" fill="rgba(0,0,0,0)"/></g></svg>