<svg xmlns="http://www.w3.org/2000/svg" width="216.001" height="46" viewBox="0 0 216.001 46"><path d="M-12065.641-8629a.31.31,0,0,1-.156-.031c-.019-.009-.034-.012-.05-.019,0,.016,0,.031.006.05h-.092l-.065-.01h-.046c-.006,0-.013.01-.016.007s-.012-.016-.021-.021c.007-.025.007-.028.013-.025a.069.069,0,0,0,.059-.012.046.046,0,0,1,.056.021.029.029,0,0,0,.021.019.14.14,0,0,0,.055-.01s0,0,.007-.006,0-.01-.007-.01a.076.076,0,0,1-.052-.018.223.223,0,0,0-.071-.025.023.023,0,0,0-.03.01,0,0,0,0,1,0,0l-.037-.01c-.028-.015-.059-.033-.087-.046,0,0,0-.006-.006-.009-.016-.025-.031-.056-.049-.08s-.019-.016-.031.006-.01.009-.013-.01,0-.012-.009-.006a.068.068,0,0,1-.019.024c-.006.01-.013,0-.019-.019,0,0,0-.009-.006-.009a.018.018,0,0,0-.019.009.07.07,0,0,1-.047.031h-.277c-.067,0-.132,0-.2,0a.127.127,0,0,1-.033,0,.756.756,0,0,1-.084-.006h-.021a.067.067,0,0,1-.033,0,.794.794,0,0,0-.188-.028c-.037,0-.077.006-.117.013-.006,0-.016.009-.021.03a.094.094,0,0,1-.019.04.026.026,0,0,1-.016,0c-.073-.013-.145-.019-.215-.031a.112.112,0,0,1-.071-.031c-.019-.021-.037-.019-.056,0s-.034.021-.053,0a.032.032,0,0,0-.043-.013.069.069,0,0,1-.037.006.093.093,0,0,1-.052-.046c-.013-.019-.021-.019-.031.013s-.019.037-.03.037h-.1c-.007,0-.013-.007-.019-.019s-.025-.025-.04-.016a.059.059,0,0,1-.031.019c-.016.006-.031.006-.049.012a.05.05,0,0,1-.056,0,.062.062,0,0,0-.065-.009.152.152,0,0,1-.04.009s-.006-.012-.009-.03a.036.036,0,0,0,.019-.007v-.006s0-.009-.006-.009l-.016-.007s-.006,0-.006.019,0,.031-.01.034a.278.278,0,0,1-.037.013c-.006,0-.009,0-.012-.013s-.01-.021-.016-.021a.063.063,0,0,1-.05-.016c-.015-.013-.03-.016-.043.01,0,0,0,0-.006,0a.126.126,0,0,1-.047,0h-.08s-.009,0-.012-.01c-.01-.03-.019-.03-.031-.03a1.042,1.042,0,0,1-.11,0,.4.4,0,0,0-.062-.006.108.108,0,0,1-.074-.013c-.013-.009-.024-.006-.04-.009v.006c0,.007,0,.01,0,.016a.073.073,0,0,1,0,.05.259.259,0,0,1-.016.049c-.006-.04-.009-.049-.021-.049a.037.037,0,0,1-.021,0c-.006,0-.009-.009-.013-.012v-.007l.04-.018s0-.007-.006-.007h-.04a.349.349,0,0,1-.027.034h.015a.038.038,0,0,1,0,.016l.037.037v.006s0,.006-.006.006l-.071-.034a.055.055,0,0,1-.016.019c.007.016.013.016.019.025a.207.207,0,0,1-.043.006c-.016.016-.027.031-.043.049s-.013.025-.117.037-.123.025-.053.04c.087.019.121.034.056.05h-6.187v-.01q-2.316.006-4.629,0-5.181,0-10.366.006h-.148a34.469,34.469,0,0,1-3.568-.145c-.379-.041-.764-.056-1.162-.081.05.077.09.143.143.223h-.8c-.468,0-.937,0-1.4,0-.512-.007-1.021-.028-1.525-.037-.376,0-.749,0-1.125,0a3.678,3.678,0,0,1-.37.024,4.069,4.069,0,0,1-.469-.1c.084-.114.084-.12.241-.114a9.814,9.814,0,0,0,1.448-.046,3.8,3.8,0,0,1,1.278.1,2.554,2.554,0,0,0,.573.074c.435,0,.869-.019,1.307-.031a.353.353,0,0,0,.1-.034.314.314,0,0,0-.107-.04,9.624,9.624,0,0,1-1.3-.08c-.54-.073-1.1-.08-1.652-.11a2.051,2.051,0,0,0-.724.046.427.427,0,0,1-.143.01c-.277-.016-.555-.025-.828-.053-.7-.064-1.4-.136-2.1-.207a.682.682,0,0,1-.114-.024c-.385-.12-.765-.249-1.155-.36a1.144,1.144,0,0,0-.737.024.291.291,0,0,1-.323-.043.158.158,0,0,0-.169-.03c-.148.043-.3.08-.45.116a.551.551,0,0,1-.462-.076.278.278,0,0,0-.148-.047,1.98,1.98,0,0,0-.435.034,4.454,4.454,0,0,1-1.091.142c-2.216,0-4.432,0-6.647,0q-2.38,0-4.755.013c-.273,0-.548-.006-.819-.01-.672-.009-1.344-.019-2.016-.024h-.437c-.289,0-.579,0-.869-.012-1.482-.074-2.961-.139-4.443-.13-.925.006-1.849.031-2.776.053a.922.922,0,0,0-.527.142.923.923,0,0,1-.462.166c-.13.01-.262.019-.389.016q-2.58-.064-5.155-.136a10.052,10.052,0,0,1-1.637-.139,3.214,3.214,0,0,0-1.337.016,2.865,2.865,0,0,1-1.242.013,3.7,3.7,0,0,0-1.029-.053,6.471,6.471,0,0,1-.848.027,5.84,5.84,0,0,1-1.294-.209.919.919,0,0,0-.755.062,1.235,1.235,0,0,1-.663.166h-.844c-.527,0-1.051,0-1.578,0a1.706,1.706,0,0,1-.472-.074,2.181,2.181,0,0,0-.968-.07,6.3,6.3,0,0,1-.721.074c-.385.024-.773.027-1.158.052a6.9,6.9,0,0,1-1.362,0,6.9,6.9,0,0,0-1.522-.049c-.3.024-.607.024-.912.04a.276.276,0,0,1-.253-.127c.151-.012.29-.021.429-.027a.116.116,0,0,0,.012-.028.573.573,0,0,0-.153-.046c-.121-.013-.244-.013-.367-.024-.083-.007-.136.009-.16.074a.194.194,0,0,1-.179.153c-.314.021-.632.04-.946.053a.473.473,0,0,1-.231-.053.683.683,0,0,0-.394-.089,7.362,7.362,0,0,1-1.165-.08,2.345,2.345,0,0,0-1.058.046.483.483,0,0,1-.12.01h-1.075c-.641,0-1.279,0-1.92-.007a.739.739,0,0,1-.3-.046,1.422,1.422,0,0,0-.73-.13q-1.327,0-2.653-.019c-.48-.006-.962-.046-1.439-.027a12.423,12.423,0,0,1-1.79-.059c-.312-.031-.629-.024-.943-.034l-.009.028.092.064c.127.09.13.136,0,.219-.117.077-.246.148-.373.219a.589.589,0,0,0-.539-.219c-.179-.006-.36-.006-.536-.019a2.49,2.49,0,0,1-.308-.049.1.1,0,0,0,.006-.025l.952-.092a.18.18,0,0,0-.08-.016c-.518,0-1.035-.006-1.554,0a17.139,17.139,0,0,0-2.262.136.362.362,0,0,0-.092.049c.033.006.067.028.1.024q.855-.028,1.71-.052c.283-.007.564,0,.838,0-.015.009-.046.027-.086.056.3.058.582.116.869.172a.113.113,0,0,0,0,.031.457.457,0,0,1-.123.016c-.666-.053-1.328-.108-1.994-.164-.052,0-.1-.009-.173-.012.093.188.321.169.506.216-.36.024-.718.03-1.075.03a1.759,1.759,0,0,0-.524.059,1.294,1.294,0,0,1-.379.056c-.293-.01-.585-.031-.878-.05-.207-.012-.2-.012-.207-.16,0-.059.021-.089.1-.1.044-.009.087-.024.139-.04-.018-.009-.027-.016-.036-.019-.111-.009-.219-.019-.33-.021-1.5-.03-3-.04-4.5-.009a3.02,3.02,0,0,0-.336.037v.03c.309.05.619.1.946.151-.087.009-.157.019-.229.019-.437-.013-.875-.016-1.307-.047a4.354,4.354,0,0,0-.918-.046.391.391,0,0,1-.3-.09c.312-.033.592-.062.9-.092a.589.589,0,0,0-.382-.059,3.239,3.239,0,0,1-.946.04,7.67,7.67,0,0,0-1.534.019,2.4,2.4,0,0,1-1-.05,2.914,2.914,0,0,0-.912-.139h-2.311c-.136,0-.271,0-.4.01-.782.08-1.565.163-2.345.243a.309.309,0,0,0-.05.021c.1.024.191.043.277.064a5.216,5.216,0,0,1-.619.08c-.117.01-.182.047-.216.127a.458.458,0,0,1-.379.249c-.163.031-.323.063-.483.1a.8.8,0,0,0-.16.077l.536.068a.272.272,0,0,1-.256.126c-.071,0-.139,0-.21,0-1.22,0-2.443,0-3.664,0l-11.87.01h-.139v.021l.271.077a.256.256,0,0,1-.1.015c-1.843-.037-3.688-.07-5.534-.11a.34.34,0,0,1-.182-.059.945.945,0,0,0-.466-.136c-.095,0-.187,0-.28,0-.129,0-.256,0-.382-.007-.811-.049-1.621-.107-2.432-.16-.182-.012-.363-.019-.549-.019a.382.382,0,0,0-.126.053,2.954,2.954,0,0,0,.829.136c.243.019.487.031.728.053.1.009.185.04.206.139l-2.151-.047c.01.059.016.1.025.154-.065,0-.117.006-.167.006-.548-.006-1.094-.015-1.639-.012-1.837,0-3.674.016-5.514.019-.508,0-.486.015-.73-.3a.168.168,0,0,0-.157-.062c-.153,0-.3,0-.459,0a4.507,4.507,0,0,1,.57-.055l3.994-.108c.055,0,.113-.006.169-.012a4.317,4.317,0,0,1,1.128-.04c.21.027.416.092.626.113.419.037.844.062,1.264.08a.764.764,0,0,0,.246-.083.289.289,0,0,1-.016-.034,2.065,2.065,0,0,1-.28,0c-.237-.033-.472-.092-.712-.11-.44-.037-.888-.043-1.328-.08a7.592,7.592,0,0,0-1.192.016,3.91,3.91,0,0,1-.49,0c-.243-.013-.487-.037-.728-.056a4.97,4.97,0,0,1-1.048-.166.236.236,0,0,0-.095-.007,1.608,1.608,0,0,1-.759-.083c-.259-.083-.515-.17-.773-.25a3.1,3.1,0,0,0-1.217-.135,3.689,3.689,0,0,0-.561.12.794.794,0,0,1-.663-.053.69.69,0,0,0-.308-.056,1.959,1.959,0,0,0-.26.05,4.613,4.613,0,0,1-.736.113c-1.38.022-2.761.037-4.142.034-2.3,0-4.6-.056-6.894-.016-.952.016-1.907-.019-2.859-.024-.266,0-.53,0-.792,0-.4,0-.8.006-1.2,0-.971-.024-1.941-.1-2.915-.107-1.378-.016-2.755.006-4.133.018a1.286,1.286,0,0,0-.808.231.529.529,0,0,1-.246.087,4.3,4.3,0,0,1-.561.018q-2.779-.069-5.56-.147a5.081,5.081,0,0,1-1.1-.1,2.783,2.783,0,0,0-1.181-.047,5.046,5.046,0,0,1-1.43.047H-12269v.08h-.019c-.16,0-.326,0-.49,0s-.351,0-.529,0a.407.407,0,0,1-.188-.037c-.021-.009-.04-.012-.059-.019,0,.019,0,.034.007.056h-.007c-.037,0-.07,0-.107,0s-.05-.006-.077-.006a.265.265,0,0,0-.056,0c-.009,0-.016.009-.021.006s-.016-.016-.021-.024c0-.028,0-.028.013-.028a.108.108,0,0,0,.073-.012.046.046,0,0,1,.062.024c.013.012.022.019.031.019.024,0,.046-.007.067-.007,0,0,0-.006.007-.009s0-.013-.007-.013a.116.116,0,0,1-.067-.019.15.15,0,0,0-.034-.015h-.086a.012.012,0,0,1-.01,0,.011.011,0,0,0-.009,0h-1.442c-.006,0-.012-.007-.012-.01,0-.052,0-.1-.007-.154-.033,0-.067.007-.1.013-.009,0-.019.01-.027.034a.078.078,0,0,1-.021.04.029.029,0,0,1-.021,0c-.087-.01-.176-.019-.263-.031a.144.144,0,0,1-.083-.036.043.043,0,0,0-.07,0c-.022.024-.04.027-.062.006a.052.052,0,0,0-.052-.016.082.082,0,0,1-.047.01.14.14,0,0,1-.064-.053c-.012-.019-.027-.019-.037.016s-.021.04-.037.04h-.12c-.009,0-.019-.01-.024-.019s-.034-.031-.049-.019a.12.12,0,0,1-.037.019c-.021.006-.04.009-.062.013a.071.071,0,0,1-.068,0,.079.079,0,0,0-.077-.013c-.015.006-.033.006-.049.013s-.006-.016-.013-.034a.079.079,0,0,0,.021-.007s0,0,0-.006l-.009-.012a.142.142,0,0,0-.019-.007s-.006,0-.009.019,0,.037-.01.037a.134.134,0,0,1-.049.013s-.007,0-.01-.013-.012-.021-.021-.021a.074.074,0,0,1-.059-.019.033.033,0,0,0-.053.009.009.009,0,0,1-.009,0h-.151c-.006,0-.012,0-.019-.013-.009-.031-.021-.031-.036-.031l-.136,0a.3.3,0,0,0-.071-.009.135.135,0,0,1-.092-.013.149.149,0,0,0-.05-.009v.006c0,.006,0,.01.006.016a.078.078,0,0,1,0,.056.548.548,0,0,0-.019.052c-.009-.043-.015-.052-.03-.056a.118.118,0,0,1-.028,0s-.009-.006-.015-.012v-.007a.457.457,0,0,0,.049-.021,0,0,0,0,0,0,0c-.027,0-.053,0-.08,0a.224.224,0,0,0-.114.034s0,.009-.006.012,0,.007.006.007c.028,0,.059-.01.087-.013a.21.21,0,0,1,.043,0,.06.06,0,0,0,0,.016.562.562,0,0,1,.043.04v.009s0,0-.007,0c-.033-.012-.067-.027-.1-.04l-.009,0c.006.047.016.04.027.053a.184.184,0,0,1-.056.009.029.029,0,0,0-.027.013.024.024,0,0,1-.019.013.257.257,0,0,1-.046-.01c-.01,0-.01,0-.01-.04,0-.016,0-.021,0-.024s.007-.01.01-.01a.009.009,0,0,1,0-.006.032.032,0,0,0-.016,0,.918.918,0,0,0-.231,0,.016.016,0,0,0-.015.009v.007l.046.036s-.006.007-.01,0a.657.657,0,0,1-.067-.01c-.016-.006-.031-.021-.046-.012s-.013,0-.016-.022a.285.285,0,0,1,.046-.021c-.009-.015-.016-.021-.021-.015a.039.039,0,0,1-.049.009.086.086,0,0,0-.077.006c-.019.007-.034.013-.053-.012s-.027-.034-.046-.034h-.139l-.12.062a.009.009,0,0,1,0,.006.045.045,0,0,1,.015.016.058.058,0,0,1-.03.019c-.007,0-.01.013-.013.031a.084.084,0,0,1-.019.062l-.024.024s0,.01-.01.019a.154.154,0,0,1,.028.016c0,.024-.006.03-.013.033h-.811v.007a.124.124,0,0,1,.013.019s0,0-.006,0c-.093-.006-.188-.016-.28-.028,0,0-.01-.006-.013-.012-.006-.021-.013-.034-.021-.034h-.016a.041.041,0,0,1-.019,0c-.043-.013-.083-.024-.126-.04a.075.075,0,0,0-.025,0s-.006.006-.009.012a.077.077,0,0,0,.043.034c.013.006.024.006.037.013s.01.012.01.033l-.108-.009v.037h-.009l-.08,0c-.1,0-.191,0-.284.006-.024,0-.024,0-.037-.074,0-.012-.006-.015-.009-.015h-.024a.046.046,0,0,1,.03-.013l.2-.028a.012.012,0,0,0,.01,0c.019-.009.037-.024.059-.009s.019.021.03.027a.245.245,0,0,0,.065.019s.009-.012.012-.019v-.009c-.006,0-.009,0-.015,0a.418.418,0,0,0-.037-.028c-.021-.009-.043-.009-.068-.019a.077.077,0,0,0-.059,0,.035.035,0,0,1-.024,0l-.037-.013a.111.111,0,0,1-.056-.04,0,0,0,0,0,0,0c-.016.009-.027,0-.04-.021a.694.694,0,0,1-.04-.059c-.021-.028-.04-.047-.062-.034a.127.127,0,0,0-.027.031c-.013.015-.025.015-.034-.016-.006-.01-.013-.013-.016-.013s-.009.01-.016.013-.024.027-.036.027c-.071.007-.143.01-.213.01-.117,0-.234-.016-.352-.007a.746.746,0,0,1-.147-.006h-.04a.223.223,0,0,1-.062,0c-.049-.006-.1-.024-.147-.027-.071,0-.142,0-.21.006-.018,0-.03.013-.043.056,0,.012-.009.021-.012.021a.05.05,0,0,1-.028.006l-.286-.037a.075.075,0,0,1-.056-.024c-.019-.027-.04-.027-.059-.013a.067.067,0,0,1-.074.013v-1.362h.016l-.009-1.017c0-.761,0-1.522-.007-2.28a1.311,1.311,0,0,1,.216-.82,1.376,1.376,0,0,0,.12-.255c-.114.012-.212.021-.333.03v-.163c0-.1,0-.213.007-.32s.04-.223.052-.336a1.229,1.229,0,0,0,0-.247c0-.024-.055-.056-.04-.08a.76.76,0,0,1,.143-.1c.172.021.179.021.166.056a.372.372,0,0,0,.067.317c.062.1.019.19-.135.28-.068.04-.108.083-.111.126a1.332,1.332,0,0,0,.046.287c0,.009.031.016.05.024.021-.009.059-.016.062-.024a.414.414,0,0,1,.114-.284.916.916,0,0,0,.166-.363c.021-.053.037-.107-.067-.16-.022-.009-.022-.021-.016-.031a.839.839,0,0,1,.077-.182c.1-.154.2-.308.3-.462,0-.01.021-.016.037-.024.179-.084.37-.167.533-.256.1-.053.107-.108-.034-.16-.074-.028-.062-.053.064-.071.068-.013.071-.021.04-.037-.062-.033-.116-.067-.172-.1s-.025-.073.113-.1c.037-.009.074-.021.071-.034-.006-.03,0-.064-.053-.095-.132-.077-.206-.157-.209-.241,0-.486,0-.974,0-1.46,0-.352-.013-.7-.019-1.048,0-.059.012-.12.016-.179.012-.148.024-.3.033-.444a.512.512,0,0,0,0-.095.571.571,0,0,1,.019-.191,2.776,2.776,0,0,0,.191-.98,4.481,4.481,0,0,0-.077-.609c-.006-.044-.056-.084-.21-.117-.135-.025-.222-.062-.246-.1a.161.161,0,0,1-.021-.084c.064-.379.126-.755.2-1.134a.513.513,0,0,1,.209-.36c.127-.1.127-.194-.024-.293-.136-.093-.151-.185-.019-.274.1-.073.114-.15.08-.225s-.07-.126-.043-.188a.593.593,0,0,1,.312-.286c.11-.053.114-.114-.093-.163-.179-.043-.246-.093-.243-.148s0-.12,0-.182c0-.117,0-.231,0-.348,0-.037.049-.074.114-.105.135-.07.179-.139.1-.213a.435.435,0,0,1-.108-.16c-.034-.083-.04-.169-.077-.256s-.083-.2.01-.3a.272.272,0,0,0,.067-.332,1.289,1.289,0,0,1-.059-.2c-.009-.03.08-.043.191-.055.016.03.027.062.04.092a.194.194,0,0,0,.043,0c.021-.012.059-.021.067-.033s.016-.053.031-.08-.009-.031-.107-.037-.216-.013-.229-.037a1.125,1.125,0,0,1-.074-.21c0-.015.021-.036.074-.049.111-.027.136-.056.133-.086a.33.33,0,0,1,.117-.26c.077-.076.1-.156-.065-.23a.028.028,0,0,1-.015-.028v-.237c0-.139,0-.28.009-.422,0-.021.01-.049.071-.064.182-.05.188-.1.188-.163.006-.194.013-.389.028-.583.006-.1.07-.213.04-.314a.457.457,0,0,1,.086-.395.533.533,0,0,0,.053-.209.18.18,0,0,1-.04,0c-.034.009-.065.015-.1.021a.619.619,0,0,1-.324,0c-.114-.024-.216-.056-.32-.083.259-.034.312-.056.323-.117a.44.44,0,0,1,.025-.12c.009-.021.046-.044.073-.065h.04c.044.071.087.142.133.21.019-.006.021-.013.021-.019,0-.114.01-.229.006-.342a.713.713,0,0,0-.2-.5.49.49,0,0,0-.07-.021c-.016.009-.04.015-.04.024.024.123.059.249.077.373a1.006,1.006,0,0,1,0,.188c-.016,0-.043-.012-.087-.021-.086.067-.169.13-.249.191h-.047c-.012-.007-.033-.016-.027-.025.08-.147.163-.292.247-.437a.167.167,0,0,1,.018-.04c-.277.021-.249.071-.323.111a.578.578,0,0,1-.043-.234c0-.04-.01-.077-.09-.117-.052-.024-.08-.056-.076-.083a.819.819,0,0,1,.07-.194c.019-.043.019-.043.237-.043.086,0,.133,0,.151.021s.037.019.059.031a.066.066,0,0,0,.027-.01.237.237,0,0,0,.027-.07,3.4,3.4,0,0,0,.019-.989c0-.025-.036-.05-.055-.074a.252.252,0,0,1-.047,0c-.073.07-.147.139-.225.209-.01-.019-.027-.033-.024-.049a.989.989,0,0,1,.067-.287c.034-.067.13-.135.068-.2-.022-.021.021-.046.135-.064.047.067.087.129.133.2.1-.028.126-.056.09-.083-.09-.068-.114-.139-.062-.21a.27.27,0,0,0-.03-.336c-.046-.074-.08-.151.08-.222.145-.062.2-.13.2-.2,0-.167,0-.339,0-.509a.143.143,0,0,0-.016-.086c-.116-.173-.24-.346-.36-.518,0,0-.016,0-.033-.01-.034.021-.062.04-.093.062a.393.393,0,0,1-.12-.139c-.013-.024-.068-.04-.186-.046a.727.727,0,0,1-.369-.083c-.047-.037-.093-.071-.146-.108-.018-.009-.064-.019-.113-.033-.04.043-.068.08-.1.116-.154-.018-.176-.024-.188-.055a.127.127,0,0,1,0-.047c0-.268,0-.536,0-.807-.006-.869-.012-1.741-.019-2.61v-.031h-.027c-.037.021-.077.04-.114.062-.021-.009-.024-.015-.021-.024.053-.406.1-.811.163-1.217,0-.013.037-.028.084-.04.126-.028.193-.062.2-.1s-.007-.1.016-.145c.073-.179.156-.357.233-.536a.545.545,0,0,0,.031-.12c0-.009-.043-.016-.08-.027a.3.3,0,0,0-.2.182c-.028.052-.05.107-.08.16-.013.021-.059.04-.2.046.025-.157.047-.317.071-.475-.089,0-.154,0-.228.007a.14.14,0,0,1-.01-.037c.006-.12.019-.24.019-.36-.009-.4-.024-.808-.031-1.212,0-.113-.021-.107.447-.163.071-.006.1-.016.093-.034a.474.474,0,0,1,0-.1.215.215,0,0,1,.076.124c.059.292.111.585.164.878a.1.1,0,0,0,.019.037c.059.083.145.166.062.249-.047.047-.142.09-.17.139a1.039,1.039,0,0,0-.12.277c-.006.019.08.037.123.053a.252.252,0,0,0,.047,0c0-.021-.013-.043,0-.062.049-.053.136-.1.166-.157.053-.1.062-.194.117-.29a.275.275,0,0,0-.024-.265.131.131,0,0,1,0-.108,1.211,1.211,0,0,1,.083-.156.449.449,0,0,1,.243-.231c.013-.006.016-.016.006-.021-.058-.059.013-.114.13-.167s.25-.113.363-.169c.17-.087.271-.176.2-.269a.577.577,0,0,0-.176-.123c-.1-.053-.108-.1.08-.147.064-.016.077-.044.08-.068s-.053-.037-.074-.056c-.062-.055-.163-.107-.17-.163-.027-.3-.052-.607-.049-.909a11.417,11.417,0,0,0,.024-1.519,3.991,3.991,0,0,1,.037-.629,1.644,1.644,0,0,0,0-.17,1.116,1.116,0,0,1,.006-.268c.037-.213.146-.429.16-.642a6.9,6.9,0,0,0-.027-.909c0-.064-.086-.129-.342-.179a.219.219,0,0,1-.127-.052.153.153,0,0,1-.027-.123c.067-.41.142-.817.219-1.224a.278.278,0,0,1,.154-.244c.15-.083.166-.169.07-.255-.113-.105-.157-.21-.073-.317h0v-1.344c.006,0,.009,0,.015,0,.133,0,.266,0,.4,0h.435a.3.3,0,0,1,.157.034c.015.006.03.01.049.019a.323.323,0,0,1-.006-.053h.092l.063.01h.049s.009-.01.016-.006.012.015.019.021c0,.027,0,.027-.01.024a.079.079,0,0,0-.062.012c-.019.01-.034,0-.053-.021s-.015-.019-.024-.019-.037.007-.056.007c0,0,0,.006,0,.009a.04.04,0,0,0,0,.01.1.1,0,0,1,.056.019.214.214,0,0,0,.068.024c.012,0,.021.006.03-.01a.011.011,0,0,1,.007,0,.112.112,0,0,1,.033.013l.09.046a.011.011,0,0,1,0,.007c.019.027.034.058.049.083s.021.016.031-.007.013-.009.016.01,0,.013.006.006.013-.016.019-.024.016-.006.019.016c0,.006.006.012.009.012a.014.014,0,0,0,.016-.009.071.071,0,0,1,.046-.031h.281c.064,0,.132,0,.2,0a.127.127,0,0,1,.033,0l.084,0h.019a.114.114,0,0,1,.036,0,.652.652,0,0,0,.186.03c.04,0,.077-.009.117-.012.009,0,.016-.01.021-.034s.012-.034.021-.037a.028.028,0,0,1,.016,0c.073.009.145.019.216.03a.125.125,0,0,1,.07.031c.019.021.037.021.056,0a.031.031,0,0,1,.053,0,.034.034,0,0,0,.043.012.067.067,0,0,1,.033-.006.1.1,0,0,1,.056.049c.01.016.021.016.031-.015s.019-.037.027-.037c.034,0,.068,0,.1,0a.029.029,0,0,1,.021.016c.013.021.025.027.04.019a.061.061,0,0,1,.031-.019c.016-.007.031-.007.046-.013s.04-.013.059,0a.059.059,0,0,0,.062.01.2.2,0,0,1,.04-.01c.007,0,.007.013.01.031a.034.034,0,0,0-.016.006v.006s0,.01.006.01.01,0,.016.006,0,0,.007-.016a.085.085,0,0,1,.006-.037.189.189,0,0,1,.04-.012.013.013,0,0,1,.009.012c.007.019.01.022.019.022a.059.059,0,0,1,.05.018c.012.01.027.013.043-.012,0,0,0,0,0,0a.24.24,0,0,1,.046,0h.08c.007,0,.01,0,.013.012.01.028.021.028.031.028l.113,0a.121.121,0,0,0,.059.006.119.119,0,0,1,.077.016.091.091,0,0,0,.04.006v-.006s0-.009-.006-.013a.078.078,0,0,1,0-.052.5.5,0,0,1,.016-.05c.009.04.012.05.024.05a.062.062,0,0,1,.021,0l.013.013v.006l-.04.021a0,0,0,0,0,0,0h.064a.143.143,0,0,0,.1-.03s0-.007,0-.01,0-.006,0-.006c-.024,0-.05.009-.071.012h-.036a.049.049,0,0,1,.006-.015l-.037-.037v-.007a.01.01,0,0,1,0-.006c.028.013.059.024.083.037a.013.013,0,0,0,.01,0c-.007-.043-.013-.037-.021-.049a.237.237,0,0,1,.046-.007.023.023,0,0,0,.021-.012.016.016,0,0,1,.016-.013.131.131,0,0,1,.037.01c.009,0,.009,0,.009.036,0,.013,0,.022-.006.022a.022.022,0,0,1-.006.012,0,0,0,0,1,0,0,.022.022,0,0,0,.016,0,.65.65,0,0,0,.185,0,.018.018,0,0,0,.016-.01v-.006c-.013-.01-.025-.021-.04-.034,0,0,.006-.006.012,0a.4.4,0,0,1,.053.009c.013.007.027.022.04.013s.009,0,.013.019a.158.158,0,0,1-.04.021c.006.016.012.019.018.013a.03.03,0,0,1,.04-.007.071.071,0,0,0,.063-.006c.015-.006.03-.012.043.013s.024.03.037.03h.1a.022.022,0,0,0,.015,0l.1-.056v0c0-.006-.01-.012-.013-.016a.091.091,0,0,1,.027-.019.063.063,0,0,0,.01-.03c0-.031.006-.05.016-.056s.012-.016.018-.021,0-.013.01-.019a.144.144,0,0,0-.024-.016c.006-.024.006-.027.012-.027s0,0,.007,0h.659v-.007s-.006-.012-.01-.015,0,0,0,0c.076.006.153.015.23.024,0,0,.007.006.01.012s.012.031.019.031.019,0,.027,0c.034.013.067.024.1.034a.064.064,0,0,0,.024.006.023.023,0,0,1,0-.012.059.059,0,0,0-.034-.031c-.01,0-.021-.01-.031-.013s-.009-.009-.009-.03c.03,0,.062.006.093.012a.105.105,0,0,0,0-.036h.007a.563.563,0,0,0,.07,0c.062,0,.124,0,.186,0h6.19v.01l4.626,0q5.186,0,10.369-.007a35.456,35.456,0,0,1,3.717.146c.379.04.761.055,1.162.08-.05-.074-.093-.142-.143-.222h.148c.684,0,1.368,0,2.052,0,.512.006,1.018.027,1.526.037.375,0,.748,0,1.124,0,.124,0,.25-.036.37-.024a3.963,3.963,0,0,1,.465.1c-.08.114-.08.12-.237.111a10.232,10.232,0,0,0-1.448.046,3.693,3.693,0,0,1-1.278-.093,2.4,2.4,0,0,0-.573-.073c-.435,0-.869.018-1.307.03a.328.328,0,0,0-.1.034.3.3,0,0,0,.107.04,10.155,10.155,0,0,1,1.3.08c.539.074,1.1.08,1.651.11a2.027,2.027,0,0,0,.724-.046.521.521,0,0,1,.143-.013c.277.019.555.028.829.056.7.065,1.4.136,2.092.2a.425.425,0,0,1,.114.027c.389.12.768.25,1.158.36a1.125,1.125,0,0,0,.733-.024.287.287,0,0,1,.327.046.164.164,0,0,0,.169.028c.148-.044.3-.084.447-.117a.57.57,0,0,1,.466.073.246.246,0,0,0,.147.05,1.954,1.954,0,0,0,.432-.034,4.491,4.491,0,0,1,1.091-.142c2.216,0,4.435,0,6.65,0q2.38,0,4.755-.013c.274,0,.545.007.819.01.672.009,1.344.019,2.016.024h.443c.287,0,.576,0,.863.013,1.479.073,2.961.139,4.443.129.925-.006,1.85-.03,2.773-.052a.934.934,0,0,0,.53-.143.923.923,0,0,1,.462-.166c.13-.009.259-.019.389-.016q2.58.064,5.155.136a10.08,10.08,0,0,1,1.637.139,3.2,3.2,0,0,0,1.334-.016,2.925,2.925,0,0,1,1.245-.015,3.581,3.581,0,0,0,1.026.055,6.532,6.532,0,0,1,.851-.027,5.84,5.84,0,0,1,1.294.209.92.92,0,0,0,.755-.062,1.235,1.235,0,0,1,.663-.166h.847c.524,0,1.052,0,1.575,0a1.7,1.7,0,0,1,.469.074,2.18,2.18,0,0,0,.971.07,6.669,6.669,0,0,1,.721-.073c.385-.025.773-.031,1.159-.053a6.538,6.538,0,0,1,1.361.006,7.343,7.343,0,0,0,1.522.047c.3-.025.607-.025.912-.04a.27.27,0,0,1,.253.129c-.151.007-.29.019-.429.024a.255.255,0,0,0-.012.028.706.706,0,0,0,.154.049c.12.01.243.01.366.021.083.007.136-.009.157-.073a.2.2,0,0,1,.182-.154c.314-.021.632-.04.946-.05a.419.419,0,0,1,.228.05.688.688,0,0,0,.4.089,7.137,7.137,0,0,1,1.165.08,2.3,2.3,0,0,0,1.058-.046.4.4,0,0,1,.12-.009h1.075c.641,0,1.279,0,1.92.006a.738.738,0,0,1,.3.049,1.483,1.483,0,0,0,.73.127q1.327,0,2.653.019c.48,0,.962.046,1.439.027a12.859,12.859,0,0,1,1.79.056c.312.034.629.027.943.037l.009-.028-.092-.064c-.127-.089-.13-.136,0-.219.117-.077.246-.147.373-.219a.586.586,0,0,0,.539.219c.179.006.36.006.536.019a2.446,2.446,0,0,1,.3.05c0,.009,0,.019,0,.024l-.952.092a.183.183,0,0,0,.08.016c.518,0,1.035.007,1.554,0a17.306,17.306,0,0,0,2.262-.135.257.257,0,0,0,.092-.05.416.416,0,0,0-.1-.024c-.569.016-1.14.037-1.71.052-.283.007-.567,0-.842,0a.736.736,0,0,0,.09-.058l-.869-.17a.117.117,0,0,0,0-.031.892.892,0,0,1,.123-.019l1.991.167c.056.006.107.006.176.013-.1-.188-.321-.17-.509-.22.363-.021.721-.027,1.078-.027a1.759,1.759,0,0,0,.524-.059,1.294,1.294,0,0,1,.379-.056c.293.01.586.031.878.05.207.012.2.012.2.16,0,.059-.019.089-.1.1-.044.009-.087.024-.139.04a.324.324,0,0,0,.036.019c.111.009.219.019.33.019,1.5.034,3,.046,4.5.013a3.364,3.364,0,0,0,.336-.037V-8674c-.312-.049-.619-.1-.946-.151a2.224,2.224,0,0,1,.229-.018c.438.012.875.015,1.307.046a4.354,4.354,0,0,0,.918.046.364.364,0,0,1,.3.093l-.9.089a.578.578,0,0,0,.382.059,3.273,3.273,0,0,1,.946-.04,7.458,7.458,0,0,0,1.534-.021,2.439,2.439,0,0,1,1,.056,2.986,2.986,0,0,0,.912.136l2.311,0c.136,0,.271,0,.4-.013.782-.076,1.563-.163,2.345-.243.013,0,.024-.012.05-.021-.1-.024-.191-.043-.277-.064a5.247,5.247,0,0,1,.616-.08c.12-.01.185-.047.219-.127a.458.458,0,0,1,.379-.249c.163-.031.323-.062.483-.1a1,1,0,0,0,.16-.077c-.206-.024-.369-.046-.536-.068a.274.274,0,0,1,.256-.126c.071,0,.139,0,.207,0h3.667q5.936,0,11.87-.013h.139v-.018c-.089-.025-.182-.05-.271-.077a.233.233,0,0,1,.1-.016c1.847.037,3.692.07,5.538.11a.349.349,0,0,1,.182.059.935.935,0,0,0,.466.136c.1,0,.188,0,.28,0,.126,0,.253,0,.382.007.811.049,1.621.107,2.432.16.182.012.366.019.545.019.04,0,.077-.028.13-.053a2.954,2.954,0,0,0-.829-.136c-.243-.019-.486-.033-.728-.052-.1-.01-.185-.044-.206-.139l2.151.046c-.01-.059-.016-.1-.025-.154.062,0,.114-.006.167-.006.548.006,1.094.016,1.64.012,1.836,0,3.673-.015,5.513-.018.509,0,.486-.016.73.3a.168.168,0,0,0,.157.062c.15-.006.3,0,.459,0a4.7,4.7,0,0,1-.57.056q-2,.054-3.994.107c-.055,0-.113.006-.169.013a4.5,4.5,0,0,1-1.128.04c-.213-.028-.416-.093-.626-.114-.422-.037-.844-.062-1.263-.08a.724.724,0,0,0-.247.083c.006.01.01.021.016.031a2.058,2.058,0,0,1,.28,0c.24.033.472.092.712.11.443.037.888.044,1.328.08a7.712,7.712,0,0,0,1.192-.015,3.733,3.733,0,0,1,.49,0c.243.013.487.037.728.056a4.909,4.909,0,0,1,1.048.167.206.206,0,0,0,.095,0,1.647,1.647,0,0,1,.759.086c.259.087.512.17.773.247a3.052,3.052,0,0,0,1.217.139,3.851,3.851,0,0,0,.562-.12.778.778,0,0,1,.662.055.68.68,0,0,0,.309.053,1.953,1.953,0,0,0,.255-.049,4.975,4.975,0,0,1,.74-.114c1.38-.021,2.761-.037,4.142-.034,2.3,0,4.595.056,6.894.016.952-.016,1.907.019,2.859.024.259,0,.521,0,.78,0,.4,0,.811-.006,1.214.006.971.024,1.941.1,2.915.108,1.378.015,2.755-.007,4.133-.019a1.3,1.3,0,0,0,.808-.231.522.522,0,0,1,.246-.086,4.142,4.142,0,0,1,.561-.019q2.779.069,5.56.147a5.009,5.009,0,0,1,1.1.105,2.783,2.783,0,0,0,1.181.046,5.046,5.046,0,0,1,1.43-.046h6.114c.006,0,.013.006.013.009,0,.09.009.182.012.271s0,.2.006.3c0,.033-.018.07-.153.1a.616.616,0,0,0-.084.034c.081,0,.148,0,.231,0v0a.135.135,0,0,1,0,.059c0,.015-.027.027-.037.043a.029.029,0,0,0,0,.03s.037.007.025.013-.05.006-.081.009a.105.105,0,0,0,.034,0,.317.317,0,0,0,.074.006.171.171,0,0,1,.093.012.108.108,0,0,0,.046.01v-.006a.033.033,0,0,0,0-.016.07.07,0,0,1,0-.053c.006-.019.012-.033.019-.052.009.04.015.049.027.052a.084.084,0,0,1,.027,0c.007,0,.01.01.016.013v.006a.457.457,0,0,1-.049.021s0,0,.006,0l.077,0a.244.244,0,0,0,.117-.034s0-.006,0-.013,0-.006,0,0c-.031,0-.059.007-.09.013h-.04a.028.028,0,0,1,0-.016c-.016-.013-.031-.027-.044-.04v-.009s0,0,0,0c.037.013.068.025.1.04a.018.018,0,0,1,.012,0c-.006-.047-.019-.044-.027-.053a.186.186,0,0,1,.056-.01.029.029,0,0,0,.027-.012c.006-.01.013-.016.019-.013a.174.174,0,0,1,.043.01c.013,0,.013,0,.013.04,0,.016,0,.021-.007.024s0,.006-.006.009,0,0,0,0a.025.025,0,0,0,.016.006,1.222,1.222,0,0,0,.231,0,.052.052,0,0,0,.016-.009v-.007a.388.388,0,0,0-.05-.037.044.044,0,0,1,.013-.006c.021.006.046.006.067.013s.031.021.046.012.01,0,.016.021a.331.331,0,0,0-.046.022c.006.015.012.018.019.015s.034-.021.049-.012a.1.1,0,0,0,.08,0,.031.031,0,0,1,.05.012c.016.024.03.031.046.031l.12,0a.06.06,0,0,0,.021,0c.037-.021.077-.04.117-.062,0,0,0,0,0,0l-.015-.015a.159.159,0,0,1,.033-.021c.007,0,.01-.01.01-.028a.1.1,0,0,1,.021-.062l.024-.024a.115.115,0,0,1,.006-.019l-.027-.016c.006-.024.006-.027.013-.03h.813v-.007c0-.006-.01-.012-.013-.019s0-.006,0,0c.1.006.191.016.284.024,0,0,.006.007.009.016s.016.031.024.031.021,0,.034,0l.123.04a.093.093,0,0,0,.028,0s0-.006.006-.013a.064.064,0,0,0-.04-.033.185.185,0,0,1-.037-.013c-.006,0-.009-.009-.013-.03.037,0,.074.006.111.009,0-.013,0-.024,0-.037h.009l.084,0c.095,0,.188-.006.283-.006.024,0,.024,0,.037.074,0,.009,0,.016.009.016s.013,0,.021,0a.11.11,0,0,1-.027.012c-.068.006-.136.016-.207.024,0,0,0,0-.006,0-.021.009-.04.024-.059.009s-.021-.021-.03-.027a.236.236,0,0,0-.065-.019c-.006,0-.009.012-.015.021a.009.009,0,0,0,0,.006.027.027,0,0,1,.016,0,.127.127,0,0,0,.033.027c.024.01.047.01.068.019a.079.079,0,0,0,.062,0,.035.035,0,0,1,.024,0,.185.185,0,0,1,.037.013.105.105,0,0,1,.056.04s0,0,0,0c.016-.01.027,0,.04.021a.67.67,0,0,0,.037.059c.021.03.043.046.064.034a.085.085,0,0,0,.027-.028c.013-.016.021-.019.034.013a.013.013,0,0,0,.016.012c.006,0,.009-.006.012-.012a.261.261,0,0,1,.041-.028c.07,0,.139-.006.209-.006.12,0,.237.013.354,0a1.023,1.023,0,0,1,.145.007h.04a.163.163,0,0,1,.062,0c.05.006.1.024.151.027.067,0,.142,0,.21-.006.015,0,.03-.013.043-.056,0-.01.006-.019.012-.021a.047.047,0,0,1,.028,0c.1.012.19.021.283.037a.063.063,0,0,1,.059.024c.019.024.037.027.059.012a.062.062,0,0,1,.074-.012v1.34h-.016c0,.336.006.669.006,1,0,.746,0,1.5.01,2.247a1.32,1.32,0,0,1-.216.807,1.335,1.335,0,0,0-.12.25c.114-.009.213-.019.329-.031v.161c0,.107,0,.212,0,.317s-.043.222-.055.329a1.441,1.441,0,0,0,0,.243c0,.028.055.056.037.081s-.093.067-.143.1c-.169-.019-.175-.019-.163-.05a.371.371,0,0,0-.07-.317c-.062-.093-.016-.185.139-.277.067-.037.107-.08.107-.123a1.309,1.309,0,0,0-.043-.283c0-.007-.034-.016-.05-.021s-.062.015-.062.021a.417.417,0,0,1-.117.283.917.917,0,0,0-.166.357c-.021.053-.034.1.071.157a.023.023,0,0,1,.015.03.86.86,0,0,1-.077.179c-.095.151-.2.3-.3.457a.13.13,0,0,1-.04.021c-.179.086-.367.169-.53.252-.1.053-.107.108.034.16.07.025.059.05-.064.068-.068.012-.071.021-.044.037a1.73,1.73,0,0,1,.173.1c.062.037.028.07-.11.1-.04.006-.074.021-.074.03a.109.109,0,0,0,.052.1c.136.074.21.154.21.234,0,.48,0,.962.006,1.442,0,.345.013.688.019,1.032,0,.059-.012.117-.015.176-.013.147-.025.289-.037.438v.093a.507.507,0,0,1-.019.19,2.661,2.661,0,0,0-.191.965,5.841,5.841,0,0,0,.077.6c.009.04.056.083.21.114.139.027.225.062.246.1a.129.129,0,0,1,.021.086c-.062.373-.123.743-.2,1.116a.483.483,0,0,1-.206.354c-.13.1-.127.193.024.292.136.087.147.179.019.269-.108.074-.114.147-.08.222s.07.123.043.185a.588.588,0,0,1-.312.281c-.113.055-.113.113.09.163.179.043.246.089.246.145s0,.12,0,.179c0,.114,0,.231,0,.346,0,.033-.052.07-.113.1-.136.07-.18.139-.1.212a.457.457,0,0,1,.107.154c.031.083.04.167.074.25.043.1.086.2-.007.3a.273.273,0,0,0-.07.329,1.217,1.217,0,0,1,.062.2c.009.027-.08.04-.191.055-.015-.033-.027-.064-.04-.095h-.043c-.024.009-.059.018-.067.03-.019.028-.019.056-.034.08s.013.031.111.034.215.016.225.04a.88.88,0,0,1,.077.206c0,.016-.024.037-.074.05-.111.024-.139.052-.133.083a.323.323,0,0,1-.117.253c-.08.077-.1.154.065.23a.024.024,0,0,1,.016.025v.233c0,.139,0,.277-.013.416,0,.022-.006.05-.068.065-.182.049-.187.1-.19.16,0,.191-.01.382-.024.573-.01.1-.071.209-.04.314a.45.45,0,0,1-.087.388.57.57,0,0,0-.056.2.208.208,0,0,1,.044,0c.03-.007.064-.016.095-.021a.64.64,0,0,1,.327,0c.11.027.213.055.32.08-.259.037-.314.055-.323.117a.72.72,0,0,1-.025.116c-.009.022-.049.047-.073.068-.013,0-.024,0-.04,0-.043-.068-.087-.136-.133-.2-.019,0-.024.01-.024.016,0,.114-.007.226,0,.339a.7.7,0,0,0,.2.49.361.361,0,0,0,.07.019c.013-.006.04-.016.037-.021-.024-.123-.056-.247-.077-.37a1.253,1.253,0,0,1,0-.182l.084.019c.089-.067.169-.13.252-.187h.047c.009.006.03.015.024.024-.077.145-.16.289-.243.432-.007.012-.013.024-.019.036.277-.019.249-.067.323-.107a.552.552,0,0,1,.04.231c0,.04.013.077.089.117.056.024.084.052.081.08a1.087,1.087,0,0,1-.071.19c-.019.043-.021.043-.24.043-.083,0-.133,0-.148-.021s-.037-.019-.059-.03c-.015.006-.027.006-.027.009a.5.5,0,0,0-.031.071,3.341,3.341,0,0,0-.015.977c0,.024.037.046.055.071h.047c.074-.065.147-.136.225-.2.01.019.028.034.024.05a1.094,1.094,0,0,1-.067.283c-.034.065-.133.13-.067.2.018.021-.025.047-.139.064l-.133-.193c-.1.027-.123.055-.086.083.089.067.11.136.062.2a.269.269,0,0,0,.027.333c.05.071.083.147-.077.216-.145.064-.2.133-.2.2,0,.166-.006.333-.006.5a.148.148,0,0,0,.019.087q.176.258.36.511s.012,0,.03.01c.037-.021.065-.04.1-.062a.451.451,0,0,1,.12.136c.013.024.065.04.186.046a.737.737,0,0,1,.369.083c.043.034.093.068.146.1a1.12,1.12,0,0,0,.113.034c.037-.043.068-.08.1-.117.154.021.176.024.186.059a.072.072,0,0,1,.006.043c0,.266,0,.53,0,.795.006.857.012,1.717.016,2.573v.031h.027c.04-.021.077-.04.117-.059.021.006.021.013.021.021-.053.4-.1.8-.163,1.2,0,.015-.04.03-.083.04-.127.03-.194.062-.2.1a1.16,1.16,0,0,1-.015.142c-.074.176-.157.352-.234.527a.342.342,0,0,0-.031.12c0,.009.043.015.077.027a.309.309,0,0,0,.2-.179c.028-.053.047-.107.077-.16.013-.021.062-.04.2-.043-.021.157-.046.311-.067.465.086,0,.151,0,.229-.006a.318.318,0,0,1,.009.037c-.006.12-.021.237-.019.354.006.4.024.8.027,1.2,0,.111.022.107-.443.16-.07.006-.1.016-.093.034a.477.477,0,0,1,0,.1.229.229,0,0,1-.08-.123c-.056-.29-.108-.577-.164-.866a.066.066,0,0,0-.015-.037c-.062-.08-.146-.163-.062-.243.047-.047.139-.09.17-.136a1.23,1.23,0,0,0,.12-.274c0-.019-.08-.037-.123-.056-.016,0-.034,0-.05.006,0,.019.016.041,0,.059a1.692,1.692,0,0,0-.163.154c-.053.1-.062.194-.117.29a.26.26,0,0,0,.021.259.123.123,0,0,1,.006.1,1.481,1.481,0,0,1-.083.16.468.468,0,0,1-.246.226c-.013.006-.013.015-.007.021.063.056-.009.11-.126.163s-.25.111-.363.17c-.173.083-.274.169-.2.262a.636.636,0,0,0,.179.123c.1.049.105.1-.08.142-.067.019-.076.046-.08.068s.053.036.074.055c.062.053.16.105.166.16a7.286,7.286,0,0,1,.05.9,11.571,11.571,0,0,0-.024,1.494,3.866,3.866,0,0,1-.034.619,1.63,1.63,0,0,0,0,.17,1.09,1.09,0,0,1-.006.265c-.04.21-.145.42-.163.632a6.65,6.65,0,0,0,.03.894c0,.068.083.13.342.176a.221.221,0,0,1,.127.056.171.171,0,0,1,.027.12c-.07.4-.142.8-.219,1.205a.277.277,0,0,1-.154.237c-.153.086-.166.17-.07.256.11.1.157.206.074.312h0v1.325c-.006,0-.009,0-.015,0l-.4,0Zm.6-.047c0,.019.006.022.009,0a.036.036,0,0,0,0-.015S-12065.039-8629.059-12065.042-8629.047Zm-4.709-.169c-.05,0-.062,0-.059.006s.034.024.037.034a.431.431,0,0,1,0,.086c0,.01.016.021.1.031l.04,0h.027c.013-.013.031-.024.034-.037s0-.03.006-.043.025-.009.077-.013a.345.345,0,0,0,.124-.019.417.417,0,0,1,.049-.067s0,0,0-.006a.628.628,0,0,0-.16,0c-.006,0-.009,0-.013.009v.006c.013.013.025.022.037.034l-.009,0a.366.366,0,0,1-.056-.009c-.013-.006-.024-.021-.037-.01s-.009,0-.012-.019C-12069.6-8629.222-12069.658-8629.219-12069.751-8629.216Zm4.142.139c.009,0,.016-.013.024-.021v0c-.012-.007-.021-.016-.033-.021C-12065.618-8629.087-12065.615-8629.071-12065.609-8629.077Zm-10.653-.136c.087.093.133.093.262.01-.046-.05-.07-.074-.107-.074A.383.383,0,0,0-12076.263-8629.213Zm-138.821-.006a4.2,4.2,0,0,0,1.507-.024,3.289,3.289,0,0,0-.622-.056A5.644,5.644,0,0,0-12215.084-8629.219Zm150.038.049a.111.111,0,0,0,.025.007c-.007-.016-.01-.022-.016-.022S-12065.042-8629.182-12065.046-8629.17Zm-2.668-.1v.007c.006,0,.012.009.019.009a.662.662,0,0,1,.077,0c.009,0,.015,0,.021.016a.039.039,0,0,0,.021.024c.03,0,.059.01.086.016a.06.06,0,0,0,.031-.006c.006,0,.012-.01.015-.016v-.006a.116.116,0,0,0-.033-.013c-.016,0-.028-.016-.04-.062,0-.006,0-.006-.007-.006a.224.224,0,0,1-.1.009l-.046,0h0A.064.064,0,0,0-12067.714-8629.266Zm1.063.04-.019-.009C-12066.663-8629.207-12066.657-8629.2-12066.651-8629.226Zm-.179-.006a.065.065,0,0,1,.021-.006v-.01l-.018,0S-12066.83-8629.243-12066.83-8629.231Zm-2.891-.016s0,.007-.006.007a.381.381,0,0,0,.09,0c.009-.007.021-.01.03-.016a.017.017,0,0,0-.012,0h0l-.021.009c-.012.007-.024.013-.037-.009h-.018Zm-154.516-.095c-.006.012.024.055.05.059a2.107,2.107,0,0,0,.3.033c.1,0,.21-.009.314-.016a.362.362,0,0,0,.089-.036l-.027-.031c-.213-.019-.429-.037-.641-.049h0A.135.135,0,0,0-12224.236-8629.342Zm156.775.067a.1.1,0,0,0-.028-.006C-12067.479-8629.253-12067.471-8629.253-12067.461-8629.274Zm.523.009v.007h.019v-.007a.046.046,0,0,0-.019-.006Zm.7-.018h.031c-.006-.013-.01-.019-.016-.019S-12066.231-8629.3-12066.238-8629.283Zm-1.907-.019c0-.019-.006-.013-.009-.01a0,0,0,0,1-.007,0C-12068.158-8629.287-12068.154-8629.283-12068.146-8629.3Zm.681,0s0,0,.007,0l.009,0-.009-.01h-.007Zm-1.06-.028h-.062C-12068.564-8629.3-12068.543-8629.3-12068.524-8629.327Zm2.816-.037c.01.025.019.063.031.025-.007-.021-.013-.028-.019-.028A.084.084,0,0,1-12065.708-8629.364Zm-24.046.025c.194-.021.385-.062.576-.093,0-.009,0-.016,0-.024-.265-.031-.533-.064-.813-.1C-12089.951-8629.379-12089.893-8629.324-12089.754-8629.339Zm20.736-.059s.009.012.016.012a.175.175,0,0,1,.08.034c.016.01.03.021.043.006s0-.012,0-.021c-.049-.012-.1-.027-.142-.04Zm2.145.043c.01.009.019.021.028-.016Zm-133.813-.117.1.05c.063-.037.121-.074.18-.111a.257.257,0,0,0-.114-.05C-12200.56-8629.583-12200.6-8629.549-12200.687-8629.472Zm-20.116-.024c.139.024.252.046.4.07a.352.352,0,0,0-.231-.1A.639.639,0,0,0-12220.8-8629.5Zm6.5-.1.625-.117a.172.172,0,0,0,.006-.037c-.256-.071-.536-.074-.828-.123C-12214.431-8629.771-12214.369-8629.685-12214.307-8629.6Zm148.534-.056c.009.024.024.034.03.009s-.009-.021-.015-.021S-12065.767-8629.659-12065.772-8629.653Zm-10.573-.1.641.027a.741.741,0,0,0-.363-.107A.512.512,0,0,0-12076.346-8629.752Zm-99.9-.086h.326a.172.172,0,0,0-.135-.044A.446.446,0,0,0-12176.249-8629.838Zm36.339-.336a.075.075,0,0,0,0,.024c.156.012.313.034.471.034.616.006,1.236,0,1.855.012a1.471,1.471,0,0,1,.459.071,1.731,1.731,0,0,0,.558.11c.669.021,1.335.047,2,.065.26.006.521,0,.78-.016a2.5,2.5,0,0,0,.357-.074c0-.009-.006-.019-.01-.027-.273-.019-.551-.05-.825-.056a1.4,1.4,0,0,1-.9-.269.308.308,0,0,0-.176-.033c-.813.043-1.624.067-2.44.049-.366-.013-.733-.016-1.1-.016h-.018A4.367,4.367,0,0,0-12139.91-8630.174Zm25.371.169c-.17-.016-.312-.027-.46-.043A.362.362,0,0,0-12114.539-8630Zm-86.338-.086a1.219,1.219,0,0,0,.822,0,4.351,4.351,0,0,0-.549-.062A.577.577,0,0,0-12200.877-8630.091Zm82.032.059c.179-.01.352-.019.524-.025,0-.015,0-.027,0-.04-.151-.006-.3-.012-.45-.021h-.019C-12118.875-8630.119-12118.863-8630.082-12118.845-8630.032Zm-78.2-.087c.083.01.151.016.243.025a.161.161,0,0,0-.126-.062A.246.246,0,0,0-12197.044-8630.119Zm75.614-.062c.016.01.033.028.052.028h.429a.067.067,0,0,0,0-.025c-.147-.012-.293-.024-.44-.033C-12121.4-8630.211-12121.414-8630.189-12121.43-8630.181Zm-12.475-.046c-.219-.01-.435-.016-.65-.024A.682.682,0,0,0-12133.9-8630.227Zm-135.4.049c0,.021.006.021.015,0a.092.092,0,0,0-.006-.019S-12269.3-8630.187-12269.308-8630.178Zm-7.1,0a.057.057,0,0,0,.077-.006.036.036,0,0,0-.03-.016A.085.085,0,0,0-12276.405-8630.178Zm14.006-.23c.164,0,.324,0,.484.006a1.1,1.1,0,0,1,.382.067,1.262,1.262,0,0,0,.506.111q.965.019,1.932.043a7.782,7.782,0,0,0,1.141-.043c0-.013.006-.021.009-.031-.11-.015-.219-.036-.329-.046-.29-.027-.583-.04-.872-.074a.725.725,0,0,1-.463-.2.181.181,0,0,0-.15-.055c-.349.015-.7.033-1.048.037-.546,0-1.095,0-1.64,0h-.816a3.352,3.352,0,0,0-.866.092,1,1,0,0,0-.111.034.076.076,0,0,0,.007.024c.348.01.69.028,1.038.031q.292,0,.583,0Zm-14.474.2a.066.066,0,0,0,0,.012.024.024,0,0,0,.016.01c.006,0,.012,0,.019,0a.017.017,0,0,1,0-.01l0-.009a.292.292,0,0,1-.031-.01S-12276.87-8630.214-12276.873-8630.208Zm6.875,0a.01.01,0,0,0,.006,0h-.013S-12270-8630.208-12270-8630.208Zm-5.671-.031s0,.007.007.01.006-.019.009-.025a.032.032,0,0,0-.006-.012S-12275.665-8630.261-12275.669-8630.239Zm-1.028-.009c.009.009.015.012.021.019,0-.016-.007-.025-.013-.025S-12276.694-8630.251-12276.7-8630.248Zm171.982-.013h.724a.846.846,0,0,0-.36-.08A.911.911,0,0,0-12104.715-8630.261Zm-134.711-.043c0,.009.013.019.016.027.1.007.194.013.29.016.021,0,.04-.019.062-.027a.161.161,0,0,0-.056-.031,1.875,1.875,0,0,0-.219-.016A.385.385,0,0,0-12239.426-8630.3Zm-36.939.031.034-.028v-.009c-.016-.019-.027-.019-.043-.028C-12276.371-8630.312-12276.368-8630.295-12276.365-8630.272Zm126.184-.065c-.056-.08-.123-.064-.194-.046a.269.269,0,0,1-.139.006C-12150.465-8630.272-12150.4-8630.27-12150.182-8630.338Zm16.225.01c.047,0,.093.012.142.012s.127-.009.191-.015c-.064-.013-.129-.031-.194-.04a.219.219,0,0,0-.052,0h-.09A.252.252,0,0,0-12133.957-8630.328Zm-140.464,0h.019c0-.007,0-.01-.006-.01A.018.018,0,0,0-12274.421-8630.331Zm1.858-.08v0a.211.211,0,0,1,.025.012h.095a.029.029,0,0,1,.021.019.068.068,0,0,0,.031.028c.034,0,.067.012.1.015a.18.18,0,0,0,.04,0,.083.083,0,0,0,.019-.019v-.006a.4.4,0,0,0-.043-.016c-.019,0-.034-.016-.046-.064,0-.009-.007-.009-.01-.009a.358.358,0,0,1-.123.012.413.413,0,0,0-.059,0A.067.067,0,0,0-12272.562-8630.411Zm74.646.064.25.009a.177.177,0,0,0-.124-.062A.233.233,0,0,0-12197.916-8630.347Zm-45.4.009h.561a.7.7,0,0,0-.3-.08A.438.438,0,0,0-12243.32-8630.338Zm84.134-.11h-1.51A3.382,3.382,0,0,0-12159.187-8630.448Zm-116.491.055c.013.019.027.031.043,0a.1.1,0,0,0-.03-.015S-12275.675-8630.4-12275.678-8630.394Zm.2-.006.009.006c0-.009,0-.015-.006-.015A.013.013,0,0,0-12275.48-8630.4Zm3.227-.027a.106.106,0,0,1-.034-.007C-12272.275-8630.4-12272.264-8630.4-12272.254-8630.427Zm-6.659-.064s0,0,0,.006v.009a.244.244,0,0,1,.053.007h.064a.034.034,0,0,1,.021.019.04.04,0,0,0,.025.027l.1.009a.08.08,0,0,0,.059-.012v-.007c-.007,0-.01-.009-.016-.009s-.031-.009-.046-.019a.066.066,0,0,1-.022-.049c0-.013-.006-.013-.009-.013l-.053.009h-.126A.054.054,0,0,0-12278.913-8630.491Zm1.263.046v.009c.007,0,.013,0,.019,0a.012.012,0,0,1,0-.009s0-.006,0-.006a.011.011,0,0,0-.009,0h0S-12277.646-8630.448-12277.65-8630.445Zm185.555-.167c.219.1.413.274.712.1a.608.608,0,0,0-.4-.116C-12091.884-8630.63-12091.991-8630.618-12092.1-8630.612Zm-180.99.161c0-.022-.006-.019-.01-.013a.005.005,0,0,1-.009,0C-12273.1-8630.437-12273.1-8630.437-12273.086-8630.451Zm14.212-.019.447.027c.006,0,.013,0,.027-.009v-.074l-.357-.019c-.055,0-.113-.006-.166-.006C-12258.957-8630.5-12258.954-8630.474-12258.874-8630.47Zm-13.383.019a.01.01,0,0,1,.006,0,.013.013,0,0,0,.009,0s0-.007-.009-.01h-.006Zm-3.27,0,.012,0c0-.013,0-.016-.006-.016S-12275.526-8630.461-12275.526-8630.455Zm-2.321,0h.028c-.006-.016-.01-.022-.016-.022S-12277.844-8630.467-12277.848-8630.451Zm4.3-.028h-.077C-12273.6-8630.455-12273.573-8630.451-12273.548-8630.479Zm27.676.016h.49a.032.032,0,0,1,0-.019h-.489C-12245.875-8630.477-12245.872-8630.47-12245.872-8630.464Zm-32.773-.027s0,.006,0,.006l.021.009,0,0v-.019c-.007,0-.013,0-.022-.006h-.006Zm101.793-.059c-.025,0-.05.027-.071.04a.232.232,0,0,0,.086.03c.13-.009.263-.021.395-.034a.194.194,0,0,1,0-.04h-.225C-12176.732-8630.554-12176.795-8630.554-12176.853-8630.55Zm-101.127.064h.027v0h-.027Zm3.531-.019s0,.006-.006.009,0,.007.006.007a.036.036,0,0,0,.019-.007v-.012A.041.041,0,0,0-12274.448-8630.5Zm.3-.053c.006,0,.01.013.019.013a.217.217,0,0,1,.1.034c.019.012.034.024.053.006a.042.042,0,0,0,0-.021c-.059-.013-.117-.028-.173-.043Zm-2.982.056.055-.009v0a.029.029,0,0,0-.024-.019C-12277.113-8630.532-12277.123-8630.522-12277.132-8630.5Zm106.14-.268a2.693,2.693,0,0,0,.367.062,17.993,17.993,0,0,1,1.966.142,3.021,3.021,0,0,0,1.023.024c.006-.021.012-.049.024-.089-1.131-.059-2.249-.121-3.368-.18A.341.341,0,0,1-12170.992-8630.769Zm51.168.2c.209.028.428.093.625-.073C-12119.427-8630.618-12119.627-8630.594-12119.824-8630.572Zm-109.466.034c.345-.009.69-.021,1.035-.03a.046.046,0,0,0,.016-.01,1.269,1.269,0,0,0-.472-.08A1.217,1.217,0,0,0-12229.29-8630.538Zm-47.2-.059c.016.016.028.053.043.024,0-.018-.019-.033-.03-.033A.017.017,0,0,0-12276.485-8630.6Zm-1.408.019c.013.01.024.019.034-.016,0-.006-.006-.006-.013-.006S-12277.888-8630.594-12277.894-8630.578Zm212.972-1.4a1.85,1.85,0,0,1-.108.188c-.03.04-.123.077-.3.1-.064.007-.08.016-.077.031a.921.921,0,0,1,.05.228c.006.12.006.241.006.364v.169c0,.065.021.127.13.186a.168.168,0,0,0,.052.024h.037a1.951,1.951,0,0,0,.047-.225c0-.041,0-.084,0-.127a.847.847,0,0,1,.006-.15c0-.028.031-.059.1-.084.105-.037.157-.07.163-.11.016-.139.04-.28.063-.419a.226.226,0,0,0,.006-.062.273.273,0,0,0-.071-.185.176.176,0,0,1-.04,0A.353.353,0,0,0-12064.922-8631.974Zm-151.749,1.048a1.476,1.476,0,0,0,.866.107,1.088,1.088,0,0,0-.589-.139A1.082,1.082,0,0,0-12216.671-8630.926Zm-27.521.083a.819.819,0,0,0,.635-.074,1.383,1.383,0,0,0-.223-.021A.888.888,0,0,0-12244.192-8630.843Zm-24.808-.013c.09-.006.1-.012.016-.019h-.016Zm175.385-1.048c.206.105.579.151.7.037a.752.752,0,0,0-.37-.093A1.106,1.106,0,0,0-12093.615-8631.9Zm-184.312.083c.2-.052.21-.1.04-.142C-12277.9-8631.912-12277.915-8631.866-12277.928-8631.82Zm212.646-.052a.15.15,0,0,0-.01.037c.071.009.114.006.12-.01.013-.033.028-.064.043-.1a.06.06,0,0,0-.015,0h-.114A.549.549,0,0,0-12065.282-8631.872Zm-213.508-.043c0,.006.03.019.089.03.146-.021.146-.021.019-.059C-12278.756-8631.934-12278.79-8631.925-12278.79-8631.915Zm60.634-.269a1.546,1.546,0,0,0,.829.028,1.038,1.038,0,0,0-.413-.081A2.006,2.006,0,0,0-12218.156-8632.184Zm152.966-2.48h.028v-.1h-.028Zm-213.311-.256v.009a1.365,1.365,0,0,0,.139.127h.037l.143-.179C-12278.411-8634.954-12278.5-8634.941-12278.5-8634.92Zm212.774-.108c.019-.021.04-.043.04-.064s-.03-.049-.15-.074C-12065.893-8635.114-12065.874-8635.071-12065.727-8635.028Zm.746-.19v-.12C-12065.138-8635.287-12065.141-8635.253-12064.98-8635.219Zm-211.893-.1c0,.018.03.033.11.055.244-.046.163-.1.148-.157C-12276.716-8635.392-12276.873-8635.36-12276.873-8635.323Zm2.012-.336c0,.021.031.043.1.052.154-.04.173-.092.053-.154C-12274.8-8635.733-12274.861-8635.693-12274.861-8635.659Zm209.908-.469a.064.064,0,0,0-.019.046c0,.007.028.016.043.021l.044-.006a.214.214,0,0,0,.019-.062.125.125,0,0,0-.041-.013A.145.145,0,0,0-12064.953-8636.128Zm-212.183-1.914c.164-.055.157-.107,0-.16Zm211.862-.216c-.016-.076-.031-.15-.046-.225,0,0-.01,0-.013-.006C-12065.514-8638.427-12065.486-8638.31-12065.273-8638.258Zm1.778-1.254a1.556,1.556,0,0,0-.071.139c0,.006.031.016.062.019a.236.236,0,0,0,.087-.013.127.127,0,0,0,.046-.064s0-.006,0-.009a.116.116,0,0,0-.024-.059.228.228,0,0,0-.056-.019Zm-.237-.585c.033-.031.064-.056.1-.087C-12063.788-8640.155-12063.81-8640.137-12063.732-8640.1Zm-213.871-.317c0,.015.03.033.089.052.025-.037.043-.07.062-.1C-12277.552-8640.448-12277.6-8640.433-12277.6-8640.414Zm209.9-.26c.04-.036.114-.076.114-.113,0-.021-.021-.043-.077-.065C-12067.841-8640.79-12067.8-8640.731-12067.705-8640.674Zm1.858-.32c.077-.046.213-.089.213-.136,0-.018-.016-.033-.056-.052C-12065.868-8641.147-12065.948-8641.053-12065.847-8640.994Zm-211.628-.314c.013.037.025.077.04.114h.059a.969.969,0,0,1,.028-.1c.006-.016-.016-.019-.05-.019A.742.742,0,0,0-12277.475-8641.309Zm214.148-.03a.178.178,0,0,0,.087-.139.277.277,0,0,0-.12-.188C-12063.5-8641.555-12063.439-8641.447-12063.326-8641.339Zm-213.4-.117c0,.021.037.046.163.067-.04-.049-.074-.092-.11-.135C-12276.7-8641.5-12276.729-8641.48-12276.729-8641.456Zm212.435-.01c.154-.015.281-.027.41-.043-.062-.046-.117-.089-.173-.136h-.059C-12064.217-8641.589-12064.223-8641.527-12064.294-8641.466Zm-213-.4v.093h.037c.016-.031.034-.064.047-.1,0,0-.028-.006-.044-.009S-12277.3-8641.872-12277.3-8641.866Zm212.682-2.552c.056-.033.108-.067.108-.1s-.028-.052-.108-.08C-12064.734-8644.479-12064.734-8644.454-12064.614-8644.418Zm.915-.043a.5.5,0,0,0,.074-.021l-.163-.037C-12063.9-8644.494-12063.893-8644.491-12063.7-8644.461Zm-213.651-1.38c-.01.135,0,.273-.019.409,0,.034-.031.071-.105.1-.1.037-.153.077-.163.12-.034.148-.071.293-.093.441a.269.269,0,0,0-.006.046.37.37,0,0,0,.024.126c.013.025.074.053.111.08a.184.184,0,0,1,.04,0,.851.851,0,0,0,.083-.182c.013-.077.093-.147.395-.2.043-.006.059-.024.053-.037a1.052,1.052,0,0,1-.071-.539,1.536,1.536,0,0,0,.021-.24c0-.077-.067-.151-.185-.226h-.037C-12277.317-8645.909-12277.351-8645.875-12277.351-8645.841Zm.295,1.235v0a.275.275,0,0,0,.022.04.373.373,0,0,0,.062-.04c.009-.013,0-.021,0-.03h-.062C-12277.043-8644.624-12277.056-8644.615-12277.056-8644.605Zm-.237-.077c0,.021.037.043.105.059.012-.046.024-.1.037-.142C-12277.246-8644.738-12277.293-8644.71-12277.293-8644.683Zm212.3-.376a.492.492,0,0,1,.013-.056C-12065.122-8645.093-12065.063-8645.077-12064.99-8645.059Zm.336-.191a.616.616,0,0,1,.04-.052C-12064.719-8645.29-12064.734-8645.271-12064.654-8645.25Zm-212.435-3c0,.009.024.024.064.046.12-.012.1-.027.071-.043s-.031-.021-.01-.03C-12277.049-8648.27-12277.089-8648.264-12277.089-8648.248Zm211.8-1.378a.371.371,0,0,0,.062.016c.013-.006.043-.012.043-.019a.457.457,0,0,0-.052-.086h-.056A.449.449,0,0,0-12065.292-8649.626Zm1.051-.132v-.071C-12064.324-8649.819-12064.33-8649.786-12064.241-8649.758Zm-212.743-.586c0,.053.04.108.126.16v-.332C-12276.938-8650.458-12276.984-8650.4-12276.984-8650.344Zm211.311-.555h.062c.03-.024.08-.052.086-.08a.8.8,0,0,1,.213-.425c.046-.047.089-.093.089-.139a.1.1,0,0,0-.055-.083c-.031,0-.074,0-.13,0C-12065.5-8651.385-12065.585-8651.142-12065.674-8650.9Zm-210.8-1.8a.814.814,0,0,1-.21.435c-.046.046-.089.093-.089.139a.111.111,0,0,0,.052.087c.034,0,.074,0,.133,0,.089-.247.176-.493.262-.74-.019,0-.037,0-.059,0C-12276.417-8652.753-12276.47-8652.729-12276.476-8652.7Zm211.335-.428c.08-.056.126-.114.126-.17s-.04-.1-.126-.157Zm-212.62-.737c.086-.009.092-.043,0-.07Zm.949-.2c.012.028.033.056.049.087a.281.281,0,0,0,.059,0,.424.424,0,0,0,0-.086.2.2,0,0,0-.062-.016C-12276.784-8654.078-12276.812-8654.072-12276.812-8654.066Zm211.766-1.3c.016.009.031.019.01.03.086-.006.126-.016.126-.027s-.024-.024-.067-.047C-12065.095-8655.4-12065.07-8655.382-12065.046-8655.366Zm.607-3.671a.628.628,0,0,0-.083.179c-.013.074-.1.143-.4.194-.04.006-.056.028-.05.04a1,1,0,0,1,.071.527,2.016,2.016,0,0,0-.024.237c0,.077.07.154.188.225h.034c.019-.034.053-.067.053-.1.009-.136,0-.269.018-.4,0-.034.028-.071.105-.1.1-.04.15-.08.16-.12.034-.146.07-.29.1-.435a.252.252,0,0,0,0-.047.283.283,0,0,0-.024-.123c-.01-.027-.071-.053-.108-.077A.171.171,0,0,0-12064.438-8659.037Zm-212.946.58c.1-.013.117-.034.04-.056Zm.363-.191c.145-.021.087-.04.013-.056A.213.213,0,0,0-12277.021-8658.648Zm212.173-.148c.1-.027.143-.055.143-.08s-.037-.043-.105-.062C-12064.826-8658.889-12064.839-8658.843-12064.849-8658.8Zm-.179-.16c-.009.01,0,.021,0,.031h.065c.006-.01.018-.019.018-.031a.074.074,0,0,0-.021-.04A.342.342,0,0,0-12065.027-8658.957Zm-212.466-.3c0,.025.028.053.105.077.12-.117.12-.142,0-.179C-12277.443-8659.32-12277.493-8659.289-12277.493-8659.253Zm-.884-.036.163.036c.114-.024.107-.027-.09-.062C-12278.328-8659.3-12278.35-8659.3-12278.377-8659.289Zm213.587-2.361s.028.007.044.007a.153.153,0,0,0,.04-.01.355.355,0,0,0,0-.056v-.036h-.037A.966.966,0,0,0-12064.79-8661.65Zm-.533-.339c.022-.021.053-.046.053-.067s-.037-.046-.163-.068C-12065.394-8662.075-12065.359-8662.032-12065.323-8661.989Zm-213.439-.351a.28.28,0,0,0,.123.19c.143-.11.081-.222-.033-.329A.181.181,0,0,0-12278.763-8662.34Zm.647.03c.059.046.117.093.173.139h.055c.105-.056.108-.117.183-.182Zm213.461.093c-.006.021.05.019.127.016-.013-.04-.025-.077-.037-.114h-.059C-12064.633-8662.282-12064.642-8662.251-12064.654-8662.217Zm-211.711-.472c0,.016.016.031.056.049.179-.033.259-.129.157-.19C-12276.229-8662.781-12276.365-8662.738-12276.365-8662.688Zm1.957-.349c0,.019.019.04.077.062.173-.058.13-.12.037-.182C-12274.337-8663.117-12274.408-8663.077-12274.408-8663.037Zm209.862,0c.1-.015.15-.03.15-.049s-.03-.031-.089-.05C-12064.509-8663.1-12064.527-8663.067-12064.546-8663.037Zm-213.825-.613c.157-.027.182-.049.1-.089C-12278.3-8663.709-12278.334-8663.684-12278.371-8663.65Zm-.21-.832a.125.125,0,0,0-.049.068v.006a.124.124,0,0,0,.024.062c0,.007.037.013.056.019l.043,0c.024-.049.053-.1.074-.142,0-.006-.034-.019-.062-.021h-.007A.257.257,0,0,0-12278.581-8664.482Zm213.718-.782v-.157C-12065.03-8665.369-12065.021-8665.317-12064.863-8665.265Zm-211.816-.114s.007,0,.013.006c.182-.062.151-.179-.059-.233C-12276.71-8665.529-12276.694-8665.453-12276.68-8665.379Zm209.388-2.293c.093-.027.154-.067.154-.1s-.031-.043-.1-.055C-12067.4-8667.782-12067.415-8667.73-12067.292-8667.672Zm-209.821-.16a.273.273,0,0,0-.022.065c0,.006.025.009.04.012s.044-.006.047-.012a.065.065,0,0,0,.021-.047c0-.009-.028-.016-.046-.021A.189.189,0,0,1-12277.113-8667.832Zm211.729-.169c.1-.034.256-.065.256-.1,0-.016-.03-.034-.107-.053C-12065.479-8668.109-12065.4-8668.054-12065.385-8668Zm1.711-.632c-.047.056-.093.114-.142.176.228-.007.317-.019.317-.043a.01.01,0,0,0,0-.01,1.048,1.048,0,0,0-.139-.126A.117.117,0,0,1-12063.674-8668.633Zm-213.345.064c.157-.053.157-.089,0-.123Zm.7-.25c0,.028.034.053.15.074.059-.052.037-.092-.11-.139C-12276.294-8668.861-12276.315-8668.836-12276.315-8668.818Zm-.521-.326h.027v-.107h-.027Zm212.721-2.271c.016-.049.031-.095.044-.139C-12064.269-8671.5-12064.281-8671.459-12064.115-8671.416Zm.8-.019c.07-.009.107-.019.107-.024s-.03-.019-.089-.034C-12063.443-8671.471-12063.446-8671.471-12063.316-8671.435Zm-59.355-.406a1.317,1.317,0,0,0,.829.024,3.156,3.156,0,0,0-.53-.077A.8.8,0,0,0-12122.672-8671.841Zm-154.2-1.451a1.543,1.543,0,0,0-.047.228.609.609,0,0,0,0,.126,1.4,1.4,0,0,1-.006.157c0,.028-.031.059-.1.084-.1.033-.157.07-.163.11-.019.142-.04.284-.065.426a.437.437,0,0,0-.006.062.3.3,0,0,0,.071.19h.043a.488.488,0,0,0,.07-.073c.04-.062.059-.127.108-.191.03-.04.12-.077.293-.1.064-.01.083-.019.08-.031a1.085,1.085,0,0,1-.053-.23c-.006-.124,0-.247,0-.37v-.173c0-.064-.024-.129-.133-.19-.012-.007-.034-.016-.052-.025S-12276.858-8673.292-12276.87-8673.292Zm.043,1.18c-.013.031-.027.064-.043.1,0,0,.009,0,.016.006h.11c.01-.027.021-.055.028-.08l.009-.036a.467.467,0,0,0-.071,0C-12276.806-8672.128-12276.824-8672.124-12276.827-8672.112Zm29.741-.021a.878.878,0,0,0,.7.037,1.1,1.1,0,0,0-.453-.1A.383.383,0,0,0-12247.086-8672.134Zm181.526-.653c.009.031.03.043.046.027-.013-.012-.021-.036-.034-.036S-12065.554-8672.793-12065.56-8672.787Zm1.42.024c.01.01.021.007.031-.015-.007-.007-.01-.01-.016-.01S-12064.133-8672.781-12064.14-8672.763Zm-3.883-.089v.019c.059.016.114.03.173.043v-.01c-.006,0-.013-.012-.019-.015a.191.191,0,0,1-.1-.034.071.071,0,0,0-.031-.013A.038.038,0,0,0-12068.022-8672.852Zm3.1.006c.012.031.04.028.052-.009Zm1.519-.083v.006a.032.032,0,0,0,.016.013c.016.006.031.009.047.016a.114.114,0,0,1,.021.049c0,.01,0,.013.009.013a.325.325,0,0,1,.053-.007c.043,0,.083,0,.126,0a.048.048,0,0,0,.043-.021s0-.006.007-.006v-.01a.29.29,0,0,1-.053-.006h-.067c-.007,0-.013-.006-.019-.019s-.016-.024-.025-.024c-.033,0-.067-.01-.1-.01a.039.039,0,0,0-.019,0A.067.067,0,0,0-12063.4-8672.929Zm-4.169.071v.009a.048.048,0,0,0,.021,0s0-.006,0-.01a.01.01,0,0,0,0-.006C-12067.557-8672.867-12067.563-8672.861-12067.572-8672.857Zm4.191,0,.018.006h.01v-.01c0-.006,0-.009,0-.009a.064.064,0,0,0-.024-.006Zm-.666-.01h.024v0h-.024Zm-4.407-.009h.077a.056.056,0,0,0-.04-.019A.054.054,0,0,0-12068.454-8672.876Zm4.3-.025h-.028C-12064.17-8672.876-12064.161-8672.876-12064.151-8672.9Zm-2.321,0h-.012C-12066.481-8672.88-12066.476-8672.889-12066.473-8672.9Zm2.1-.012a.01.01,0,0,0,0,.006s.006,0,.012,0a.01.01,0,0,0,0-.006v-.006c-.006,0-.009,0-.015,0A.015.015,0,0,0-12064.37-8672.913Zm-3.853-.019c0-.007,0-.01-.009-.016A.036.036,0,0,0-12068.223-8672.932Zm1.7-.021a.036.036,0,0,0-.013-.01C-12066.527-8672.944-12066.521-8672.941-12066.519-8672.953Zm.154-.01c.027.021.034.021.043,0-.009-.009-.016-.016-.024-.016S-12066.358-8672.975-12066.364-8672.963Zm-1.853-.092c0,.012-.019.024-.08.036a.317.317,0,0,0-.117.047c-.009.006-.019.009,0,.016,0,0,0,0,0-.007a.009.009,0,0,1,.006,0h.126c-.043-.013-.012-.024.1-.034.046-.006.074-.012.077-.019s-.019-.024-.031-.036a.158.158,0,0,1-.036,0A.218.218,0,0,1-12068.217-8673.055Zm.635.033h-.015C-12067.6-8673.009-12067.588-8673.009-12067.582-8673.021Zm1.914-.03v.009a.137.137,0,0,0,.043.028.609.609,0,0,1-.009-.065A.351.351,0,0,0-12065.668-8673.052Zm-58.526-.13a1.274,1.274,0,0,0,.866.108,2.63,2.63,0,0,0-.632-.143A.82.82,0,0,0-12124.194-8673.182Zm27.753.1a.971.971,0,0,0,.635-.074,2.733,2.733,0,0,0-.3-.024A.537.537,0,0,0-12096.441-8673.083Zm30.1-.012c.006.018.006.015.012-.016,0-.007,0-.01,0-.013Zm1.045-.01a.151.151,0,0,1-.022-.019C-12065.316-8673.095-12065.313-8673.092-12065.3-8673.1Zm-5.714-.021c.111-.006.157-.016.037-.019S-12071.1-8673.132-12071.015-8673.126Zm5.853-.034a.024.024,0,0,1,0,.01v.006c.013,0,.022.01.034.013a.04.04,0,0,0,0-.01v-.016a.064.064,0,0,1-.015-.009A.041.041,0,0,0-12065.162-8673.16Zm-.512-.006a.057.057,0,0,0,.077-.006.048.048,0,0,0-.031-.016A.076.076,0,0,0-12065.674-8673.166Zm-4,0c.1-.007.286-.013.1-.019S-12069.687-8673.176-12069.674-8673.169Zm-102.689-.29c-.006.021-.012.05-.024.09l3.368.176c0-.013.009-.025.013-.037a2.551,2.551,0,0,0-.367-.062,18.011,18.011,0,0,1-1.966-.143,4.637,4.637,0,0,0-.645-.059A2.017,2.017,0,0,0-12172.363-8673.459Zm103.789.231a1.106,1.106,0,0,0,.223-.006c-.022-.007-.062-.013-.1-.019h-.025C-12068.506-8673.243-12068.54-8673.237-12068.574-8673.228Zm-43.17-.2a.025.025,0,0,0-.016.009,1.422,1.422,0,0,0,1.051-.04C-12111.058-8673.453-12111.4-8673.44-12111.744-8673.431Zm-109.056.076c.228-.027.428-.049.625-.073a2.066,2.066,0,0,0-.308-.037A.481.481,0,0,0-12220.8-8673.354Zm-27.815-.132a.979.979,0,0,0,.709.1,1.141,1.141,0,0,0-.462-.173A.487.487,0,0,0-12248.615-8673.486Zm166.571-.29c0,.01-.006.021-.009.028.11.018.219.04.329.049.29.024.583.04.872.071a.743.743,0,0,1,.463.2.168.168,0,0,0,.15.052c.349-.012.7-.03,1.048-.033.546,0,1.091,0,1.637,0h.819a3.365,3.365,0,0,0,.866-.09.985.985,0,0,0,.111-.034c0-.009,0-.015-.007-.024-.348-.009-.689-.027-1.038-.031-.188,0-.379,0-.57,0-.237,0-.475,0-.712,0a1.033,1.033,0,0,1-.382-.067,1.329,1.329,0,0,0-.509-.111c-.641-.012-1.285-.027-1.929-.043-.09,0-.182,0-.271,0A7.382,7.382,0,0,0-12082.044-8673.776Zm-81.512.29c0,.016,0,.027,0,.04.136,0,.271,0,.407,0,.024,0,.049-.028.07-.044a.324.324,0,0,0-.08-.027h-.006C-12163.291-8673.511-12163.423-8673.5-12163.556-8673.486Zm81.956-.062v.077c.123,0,.24.012.357.015.056,0,.11,0,.166.007.034-.047.031-.077-.049-.08l-.447-.031C-12081.578-8673.561-12081.585-8673.555-12081.6-8673.548Zm-13.014.03h.486v-.019h-.49A.034.034,0,0,1-12094.613-8673.518Zm-86.2-.033h1.507a3.759,3.759,0,0,0-.783-.087A3.036,3.036,0,0,0-12180.812-8673.551Zm84.134-.108h-.561A.528.528,0,0,0-12096.679-8673.659Zm-45.4.006-.25-.009A.168.168,0,0,0-12142.083-8673.653Zm-47.737-.009c.056.08.126.062.194.046a.251.251,0,0,1,.142-.006.124.124,0,0,0-.123-.086A.9.9,0,0,0-12189.82-8673.662Zm121.6.046c.1,0,.1-.006.013-.009C-12068.312-8673.622-12068.312-8673.622-12068.223-8673.616Zm-.561,0a.178.178,0,0,0,.03-.019C-12068.892-8673.628-12068.9-8673.622-12068.783-8673.616Zm-137.592-.052c.064.012.126.03.194.04a1.141,1.141,0,0,0,.142,0c0-.013,0-.028,0-.044-.047,0-.09-.012-.136-.012h-.006A1.785,1.785,0,0,0-12206.375-8673.668Zm-28.912-.071h-.721A.832.832,0,0,0-12235.287-8673.739Zm134.347.027c.019.013.037.031.056.031a1.875,1.875,0,0,0,.219.016.347.347,0,0,0,.093-.031.1.1,0,0,1-.016-.027c-.1-.007-.194-.013-.29-.016C-12100.9-8673.739-12100.922-8673.721-12100.94-8673.712Zm-105.271-.416a2.5,2.5,0,0,0-.357.074c0,.01.006.019.01.028.273.018.552.049.825.055a1.4,1.4,0,0,1,.9.269.316.316,0,0,0,.176.034c.813-.044,1.624-.068,2.44-.05.367.01.733.016,1.1.019a4.527,4.527,0,0,0,1.025-.126.064.064,0,0,0,0-.025c-.157-.012-.314-.033-.472-.036-.62,0-1.236,0-1.855-.01a1.5,1.5,0,0,1-.459-.07,1.7,1.7,0,0,0-.561-.111c-.666-.021-1.332-.046-2-.064-.071,0-.143,0-.216,0C-12205.836-8674.146-12206.023-8674.14-12206.212-8674.128Zm.117.354c.219.007.435.016.65.025a.809.809,0,0,0-.373-.1A.542.542,0,0,0-12206.095-8673.773Zm-12.958-.049c.145.012.293.024.44.034.013,0,.028-.022.043-.031-.019-.009-.033-.027-.052-.027h-.429A.06.06,0,0,0-12219.053-8673.822Zm76.1-.059c-.086-.01-.151-.016-.243-.028A.176.176,0,0,0-12142.955-8673.881Zm3.011-.028c.546.081.647.081.823,0a2.033,2.033,0,0,0-.46-.073A.942.942,0,0,0-12139.944-8673.909Zm-81.734-.033c0,.016,0,.027,0,.04.147.006.3.012.449.021.1.006.09-.034.068-.086C-12221.333-8673.958-12221.506-8673.949-12221.679-8673.942Zm-3.781-.053.46.043a.316.316,0,0,0-.229-.1A.56.56,0,0,0-12225.46-8674Zm61.71-.166h-.326C-12164.03-8674.1-12163.879-8674.1-12163.75-8674.161Zm37.433-.124c0,.013-.006.025-.01.037.26.071.54.074.833.124-.074-.105-.136-.191-.2-.277C-12125.91-8674.361-12126.114-8674.325-12126.317-8674.285Zm-137.339.041c-.225-.013-.432-.022-.638-.031A.6.6,0,0,0-12263.656-8674.244Zm-7.381-.034c.013.027.025.019.034.006s-.013-.019-.021-.019S-12271.034-8674.288-12271.037-8674.278Zm-5.22-.068c.006.025.019.028.027.01s-.012-.024-.019-.024S-12276.257-8674.355-12276.257-8674.347Zm136.661-.12c.12.074.135.071.283-.062-.034-.016-.068-.03-.1-.049C-12139.479-8674.54-12139.537-8674.5-12139.6-8674.467Zm-110.652-.194c-.191.022-.382.063-.576.093,0,.01,0,.016.006.024l.813.1c-.04-.154-.089-.216-.2-.216C-12250.218-8674.664-12250.232-8674.661-12250.248-8674.661Zm131.049.157c-.135-.024-.249-.046-.395-.07A.353.353,0,0,0-12119.2-8674.5Zm-151.9-.08c.006.025.027.04.037.021-.01-.009-.019-.03-.027-.03A.022.022,0,0,0-12271.1-8674.584Zm-2.021-.064v.021c.049.013.1.024.142.04v-.009c-.006-.007-.009-.013-.016-.016a.149.149,0,0,1-.083-.031c-.009-.006-.016-.015-.027-.015A.028.028,0,0,0-12273.123-8674.648Zm156.691-.083a.191.191,0,0,0-.086.037l.024.027c.213.019.425.037.641.05a.117.117,0,0,0,.087-.044c.009-.009-.025-.052-.047-.055a2.47,2.47,0,0,0-.308-.034h-.037A2.538,2.538,0,0,0-12116.432-8674.731Zm-154.124.111v0a.04.04,0,0,0-.019-.009A.023.023,0,0,0-12270.556-8674.62Zm-4.6,0a.131.131,0,0,0,.025-.019.017.017,0,0,0-.013-.006S-12275.15-8674.646-12275.154-8674.624Zm-1.168-.03c.01.037.019.024.028.021-.006-.016-.01-.04-.019-.04S-12276.318-8674.667-12276.322-8674.654Zm3.569,0v.009h.019a.029.029,0,0,1,0-.012s0,0-.007,0A.06.06,0,0,0-12272.753-8674.654Zm-.725-.016h.064a.045.045,0,0,0-.033-.019A.042.042,0,0,0-12273.478-8674.67Zm1.627-.024h-.012C-12271.856-8674.673-12271.854-8674.683-12271.851-8674.694Zm-2,0c0,.019,0,.012.006.009s0,0,.007,0c0-.016,0-.019-.007-.019A.033.033,0,0,0-12273.854-8674.694Zm-.7,0,.009.012h.007v-.012s0,0-.007,0S-12274.547-8674.7-12274.55-8674.7Zm-1.214-.016h-.028C-12275.782-8674.686-12275.773-8674.688-12275.764-8674.713Zm1.223-.087c-.006,0-.012.01-.019.016v.007a.2.2,0,0,0,.037.012c.016,0,.028.016.037.062a.025.025,0,0,0,.007.01.206.206,0,0,1,.1-.013.242.242,0,0,0,.046,0c.016,0,.028-.012.043-.027v-.006a.144.144,0,0,0-.021-.01.714.714,0,0,1-.077,0c-.006,0-.012,0-.019-.016s-.015-.021-.024-.024l-.083-.016h-.009A.064.064,0,0,0-12274.541-8674.8Zm148.119.044a4.362,4.362,0,0,0,1.507-.025,3.5,3.5,0,0,0-.642-.059A5.091,5.091,0,0,0-12126.422-8674.756Zm-148.115.037.027,0c-.006-.013-.009-.021-.016-.021S-12274.534-8674.731-12274.537-8674.719Zm-.543-.013.016.009s0-.006,0-.009,0-.006,0-.006h-.016Zm11.079-.068c.092.1.1.1.265.013-.046-.046-.08-.07-.12-.07A.337.337,0,0,0-12264-8674.8Zm-6.607.025c.009.016.016.03.024.043a.119.119,0,0,0,.034-.006.69.69,0,0,1,.08-.031,1.369,1.369,0,0,1,.222-.016c.05,0,.062,0,.059-.006s-.034-.024-.037-.034a.429.429,0,0,1,0-.086c0-.01-.019-.021-.1-.031l-.04,0h-.027c-.013.013-.031.024-.034.037s0,.027-.006.043-.025.01-.077.013a.33.33,0,0,0-.123.019.17.17,0,0,1-.016.024.029.029,0,0,0,.006.013s0,0,.006,0,0,0,.007,0S-12270.618-8674.787-12270.608-8674.774Zm-1.152.024c.021.019.027.019.033,0s-.012-.019-.018-.019S-12271.755-8674.763-12271.761-8674.75Zm-.127.006s-.006,0-.012-.006C-12271.9-8674.734-12271.891-8674.731-12271.888-8674.744Zm1.492,0s.006,0,.012,0h.084a.121.121,0,0,1,.021-.012s0-.006.006-.006h-.09A.164.164,0,0,1-12270.4-8674.744Zm-4.8-.015a.009.009,0,0,0,0,.009c.006,0,.012,0,.019.006s0-.009,0-.021A.082.082,0,0,1-12275.194-8674.759Zm-.157-.013a.083.083,0,0,1,.019.009c0-.015,0-.021-.009-.021S-12275.348-8674.781-12275.352-8674.771Zm4.161-.064v.009c.012.016.024.016.036.027q0-.037-.009-.064Zm-1.569.027h-.015C-12272.771-8674.8-12272.766-8674.8-12272.76-8674.809Zm-4.193-.019a.1.1,0,0,0-.028-.006C-12276.972-8674.8-12276.963-8674.8-12276.953-8674.827Zm6.064-.067v.009h.012c.01.006.021.021.031.024s.037.01.053.019a.149.149,0,0,0,.021-.021.026.026,0,0,1-.025,0c-.012-.009-.018-.021-.027-.027l-.053-.019S-12270.886-8674.9-12270.889-8674.895Zm-.856.015c0,.019,0,.019.009-.012a.084.084,0,0,0,0-.013A.08.08,0,0,0-12271.745-8674.88Zm-4.669-.021v0l.034.024c0-.037,0-.05-.01-.05A.057.057,0,0,0-12276.414-8674.9Zm5.522.013-.016-.016C-12270.9-8674.88-12270.9-8674.876-12270.892-8674.889Zm.117-.05s0,0,0,.007v.006a.121.121,0,0,0,.028.013.04.04,0,0,0,0-.01.032.032,0,0,0,0-.016.044.044,0,0,1-.013-.006A.022.022,0,0,0-12270.774-8674.938Zm.2.007v.009c.036-.009.033-.016,0-.024A.022.022,0,0,1-12270.577-8674.932Zm-.617-.013c.021.021.044.013.062-.006a.026.026,0,0,0-.024-.013A.058.058,0,0,0-12271.194-8674.944Zm-5.774-.009c.006.021.006.021.012,0s0-.019-.006-.019A.107.107,0,0,0-12276.969-8674.953Z" transform="translate(12279 8675)" fill="#ff5051"/></svg>