<svg xmlns="http://www.w3.org/2000/svg" width="64.001" height="64.001" viewBox="0 0 64.001 64.001"><g transform="translate(-449 -198.999)"><g transform="translate(-426.999 -124)"><path d="M-11545-7120a32.013,32.013,0,0,1,32-32,32.013,32.013,0,0,1,32,32,32.012,32.012,0,0,1-32,32A32.012,32.012,0,0,1-11545-7120Z" transform="translate(12421 7475)" fill="#ff5051"/></g><path d="M9,7.14V21.393a.367.367,0,0,0,.55.338l11.3-7.127a.4.4,0,0,0,0-.672L9.55,6.807A.364.364,0,0,0,9,7.14Z" transform="translate(467 216.731)" fill="#fff"/></g></svg>