<svg xmlns="http://www.w3.org/2000/svg" xmlns:xlink="http://www.w3.org/1999/xlink" width="648.658" height="331.153" viewBox="0 0 648.658 331.153"><defs><clipPath id="a"><rect width="648.658" height="331.153" fill="#fff" stroke="#fff" stroke-width="2"/></clipPath></defs><g transform="translate(0)"><path d="M.01,157.971,0,253.716,60.475,220.7l0-21.838L25.2,218.126l.008-73.912Z" transform="translate(0 -23.925)" fill="#fff"/><path d="M23.207,147.585,2.01,159.158,2,250.346l56.475-30.828,0-17.281L23.2,221.5l.008-73.912m2-3.371L25.2,218.126l35.277-19.26,0,21.838L0,253.716l.01-95.745Z" transform="translate(0 -23.925)" fill="#fff"/><path d="M106.435,100.236l-.01,95.747L84.588,207.905l.009-95.747Z" transform="translate(-14.033 -16.629)" fill="#fff"/><path d="M104.435,103.607,86.6,113.345l-.008,91.19,17.837-9.738.01-91.189m2-3.371-.01,95.747L84.588,207.905l.009-95.747Z" transform="translate(-14.033 -16.629)" fill="#fff"/><path d="M213.492,37.6l-.01,95.747,60.474-33.015,0-21.837L237,98.668l0-15.118,31.645-17.277.005-21.906L237.005,61.713V46.595l36.956-20.176,0-21.837Z" transform="translate(-35.418 -0.76)" fill="#fff"/><path d="M271.965,7.953,215.492,38.783l-.01,91.189,56.474-30.831V81.863L235,102.039l0-19.676,31.645-17.277,0-17.342L235.005,65.09l0-19.682,36.956-20.176,0-17.279m2-3.371,0,21.837L237.007,46.595V61.713l31.648-17.346-.005,21.906L237,83.55l0,15.118,36.956-20.176,0,21.837-60.474,33.015.01-95.747Z" transform="translate(-35.418 -0.76)" fill="#fff"/><path d="M193.276,46.869l-29.776,112-16.353,8.927-30.6-79.036,23.425-12.787,14.935,43.843,15.034-60.2Z" transform="translate(-19.335 -7.776)" fill="#fff"/><path d="M190.147,50.856,171.668,60.943,155.2,126.882,138.844,78.863l-19.8,10.808,29.144,75.274,13.6-7.424L190.147,50.856m3.13-3.987-29.776,112-16.353,8.927-30.6-79.036,23.425-12.787,14.935,43.843,15.034-60.2Z" transform="translate(-19.335 -7.776)" fill="#fff"/><path d="M301.572,91.582l.01-87.007,53,26.233V43.344L315.289,23.9l0,24.32,33.456,16.561V77.312L315.285,60.751l0,25.081,39.289,19.449,0,12.535ZM298.742,0l-.01,93.345,58.679,29.046,0-18.873L318.122,84.069V65.326l33.459,16.562,0-18.874L318.125,46.453l0-17.982,39.289,19.449V29.046Z" transform="translate(-49.557)" fill="#fff"/><path d="M357.411,122.391,298.732,93.345,298.742,0l58.676,29.046V47.919L318.128,28.47l0,17.982,33.458,16.561,0,18.874L318.122,65.326V84.069l39.291,19.449ZM301.581,4.575l-.01,87.007,53,26.234,0-12.535L315.282,85.832l0-25.081,33.456,16.561V64.777L315.285,48.216l0-24.32,39.289,19.448V30.808Z" transform="translate(-49.557)" fill="#fff"/><path d="M414.6,150.729l-14.371-7.114-.162-.619L371.277,35.933l20.549,10.172,16,63.165,16.008-47.321,19.859,9.832Zm-11.959-9.09,10.389,5.143,27.117-73.589-14.664-7.259L407.43,119.291,389.394,48.07l-13.744-6.8Z" transform="translate(-61.595 -5.961)" fill="#fff"/><path d="M414.6,150.729l-14.371-7.114-.162-.619L371.277,35.933l20.549,10.172,16,63.165,16.008-47.321,19.859,9.832ZM375.65,41.268l26.989,100.371,10.389,5.143,27.117-73.589-14.664-7.259L407.43,119.291,389.394,48.07Z" transform="translate(-61.595 -5.961)" fill="#fff"/><path d="M521.039,202.275,462.36,173.231l.01-93.346,58.675,29.046V127.8l-39.289-19.449,0,17.983L515.21,142.9l0,18.873-33.454-16.56,0,18.742L521.039,183.4ZM465.2,171.468l53,26.233V185.167L478.91,165.718l0-25.081,33.458,16.56V144.663L478.913,128.1l0-24.322,39.289,19.449V110.693l-53-26.232Z" transform="translate(-76.704 -13.253)" fill="#fff"/><path d="M521.039,202.275,462.36,173.231l.01-93.346,58.675,29.046V127.8l-39.289-19.449,0,17.983L515.21,142.9l0,18.873-33.454-16.56,0,18.742L521.039,183.4ZM465.207,84.461l-.007,87.007,53,26.233V185.167L478.91,165.718l0-25.081,33.458,16.56V144.663L478.913,128.1l0-24.322,39.289,19.449V110.693Z" transform="translate(-76.704 -13.253)" fill="#fff"/><path d="M607.615,245.125l-17.261-8.543-.205-.451-30.861-66.165-.006,51.232-19.39-9.6.007-93.345,17.264,8.543.205.451,30.864,66.05.007-51.116,19.389,9.6Zm-15.1-10.647,12.266,6.072.014-87.008-13.711-6.784-.007,59.325L555.01,128.9l-12.269-6.073-.01,87.007,13.7,6.787.01-59.463Z" transform="translate(-89.57 -19.618)" fill="#fff"/><path d="M589.075,197.081v-3.526l-1.493.332,1.493,3.194m-30.633-27.372,1.495-.331-1.494-3.2v3.534m49.172,75.416-17.261-8.543-.205-.451-30.861-66.165-.006,51.232-19.39-9.6.007-93.345,17.264,8.543.205.451,30.864,66.05.007-51.116,19.389,9.6Zm-51.17-87.965,36.068,77.318,12.266,6.072.014-87.008-13.711-6.784-.007,59.325L555.01,128.9l-12.269-6.073-.01,87.007,13.7,6.787Z" transform="translate(-89.57 -19.618)" fill="#fff"/><path d="M668.21,275.118l-19.386-9.6.01-74.471-22.153-10.963.007-18.875,63.681,31.522-.007,18.873-22.146-10.961Zm-16.54-11.361,13.7,6.786,0-74.472,22.149,10.963V194.5l-58-28.709v12.537l22.146,10.962Z" transform="translate(-103.966 -26.746)" fill="#fff"/><path d="M668.21,275.118l-19.386-9.6.01-74.471-22.153-10.963.007-18.875,63.681,31.522-.007,18.873-22.146-10.961ZM629.525,165.787v12.537l22.146,10.962v74.471l13.7,6.786,0-74.472,22.149,10.963V194.5Z" transform="translate(-103.966 -26.746)" fill="#fff"/><g transform="translate(0)"><g clip-path="url(#a)"><path d="M748.651,314.393c-5.04,0-10.915-1.651-17.557-4.94a84.351,84.351,0,0,1-17.436-11.213,76.741,76.741,0,0,1-14.081-16.521l-.809-1.262,13.191-7.5.728,1.132a45.232,45.232,0,0,0,9,10.232,55.6,55.6,0,0,0,10.9,7c6.865,3.4,9.9,3.119,11.231,2.289,1.146-.709,1.732-2.3,1.732-4.738a14.477,14.477,0,0,0-2.385-8.112,26.546,26.546,0,0,0-7.1-6.48L725.838,267.7c-7.356-4.76-13.023-10.15-16.85-16.025a39.146,39.146,0,0,1-6.293-21.512c0-8.755,2.917-14.529,8.684-17.158,5.794-2.569,13.488-1.511,22.887,3.145a70.111,70.111,0,0,1,27.94,24.563l.842,1.277-12.97,7.218-.721-1.1A39.158,39.158,0,0,0,741.084,239a51.814,51.814,0,0,0-8.55-5.213c-4.352-2.154-7.546-2.742-9.2-1.706-1.227.76-1.846,2.56-1.846,5.351a12.354,12.354,0,0,0,2.264,6.914,25.711,25.711,0,0,0,7.445,7.025l10,6.471c7.27,4.716,12.854,9.887,16.594,15.373a41,41,0,0,1,6.8,23.168c0,9.166-3.382,14.933-10.026,17.133l-.02,0a19.15,19.15,0,0,1-5.888.872M702.79,281.439a73.121,73.121,0,0,0,12.72,14.652,81.866,81.866,0,0,0,16.843,10.817c8.751,4.327,15.913,5.642,21.317,3.909,5.429-1.8,8.071-6.52,8.071-14.433a38.182,38.182,0,0,0-6.313-21.58c-3.517-5.161-8.826-10.069-15.779-14.576l-10-6.471a28.683,28.683,0,0,1-8.26-7.827,15.261,15.261,0,0,1-2.749-8.5c0-3.837,1.071-6.451,3.193-7.763,2.614-1.627,6.535-1.113,11.952,1.575a54.611,54.611,0,0,1,9.055,5.521,41.756,41.756,0,0,1,8.139,8.688l8-4.448A67.444,67.444,0,0,0,733.006,218.7c-8.6-4.261-15.5-5.306-20.461-3.1-4.709,2.153-7.013,6.921-7.013,14.573a36.356,36.356,0,0,0,5.847,19.97c3.592,5.528,8.981,10.638,15.994,15.179l10.248,6.587a29.1,29.1,0,0,1,7.9,7.265,17.282,17.282,0,0,1,2.871,9.7c0,3.482-1.031,5.89-3.072,7.152-2.871,1.782-7.445,1.078-13.98-2.157a58.492,58.492,0,0,1-11.473-7.365,48.414,48.414,0,0,1-8.826-9.752Z" transform="translate(-115.925 -35.111)" fill="#fff"/><path d="M748.651,314.393c-5.04,0-10.915-1.651-17.557-4.94a84.351,84.351,0,0,1-17.436-11.213,76.741,76.741,0,0,1-14.081-16.521l-.809-1.262,13.191-7.5.728,1.132a45.232,45.232,0,0,0,9,10.232,55.6,55.6,0,0,0,10.9,7c6.866,3.4,9.9,3.119,11.231,2.289,1.146-.709,1.732-2.3,1.732-4.738a14.477,14.477,0,0,0-2.385-8.112,26.546,26.546,0,0,0-7.1-6.48L725.838,267.7c-7.356-4.76-13.023-10.15-16.85-16.025a39.146,39.146,0,0,1-6.293-21.512c0-8.755,2.917-14.529,8.684-17.158,5.794-2.569,13.488-1.511,22.887,3.145a70.111,70.111,0,0,1,27.94,24.563l.842,1.277-12.97,7.218-.721-1.1A39.158,39.158,0,0,0,741.084,239a51.814,51.814,0,0,0-8.55-5.213c-4.352-2.154-7.546-2.742-9.2-1.706-1.227.76-1.846,2.56-1.846,5.351a12.354,12.354,0,0,0,2.264,6.914,25.711,25.711,0,0,0,7.445,7.025l10,6.471c7.27,4.716,12.854,9.887,16.594,15.373a41,41,0,0,1,6.8,23.168c0,9.166-3.382,14.933-10.026,17.133l-.02,0A19.15,19.15,0,0,1,748.651,314.393Zm-37.615-37.645-8.246,4.691a73.121,73.121,0,0,0,12.72,14.652,81.866,81.866,0,0,0,16.843,10.817c8.751,4.327,15.913,5.642,21.317,3.909,5.429-1.8,8.071-6.52,8.071-14.433a38.182,38.182,0,0,0-6.313-21.58c-3.517-5.161-8.826-10.069-15.779-14.576l-10-6.471a28.683,28.683,0,0,1-8.26-7.827,15.261,15.261,0,0,1-2.749-8.5c0-3.837,1.071-6.451,3.193-7.763,2.614-1.627,6.535-1.113,11.952,1.575a54.611,54.611,0,0,1,9.055,5.521,41.756,41.756,0,0,1,8.139,8.688l8-4.448A67.444,67.444,0,0,0,733.006,218.7c-8.6-4.261-15.5-5.306-20.461-3.1-4.709,2.153-7.013,6.921-7.013,14.573a36.356,36.356,0,0,0,5.847,19.97c3.592,5.528,8.981,10.638,15.994,15.179l10.248,6.587a29.1,29.1,0,0,1,7.9,7.265,17.282,17.282,0,0,1,2.871,9.7c0,3.482-1.031,5.89-3.072,7.152-2.871,1.782-7.445,1.078-13.98-2.157a58.492,58.492,0,0,1-11.473-7.365A48.414,48.414,0,0,1,711.036,276.748Z" transform="translate(-115.925 -35.111)" fill="#fff"/><path d="M261.681,174.429a30.069,30.069,0,0,1-14.317-2.891l-19.808-9.575,52.193-29.846,19.462,9.348q7.016,3.37,6.953,7.592-.137,4.178-7.064,8.039a27.579,27.579,0,0,1-9.289,3.077,29.528,29.528,0,0,1-7.637.2,4.777,4.777,0,0,1,.52,4.269q-1.043,2.893-5.774,5.53a33.208,33.208,0,0,1-15.24,4.26m27.458-28.064-9.22-4.435-12.178,6.916,9.169,4.418a12.634,12.634,0,0,0,12.326-.447q6.14-3.445-.1-6.452m-20.862,12.4-9.741-4.7-12.774,7.254L255.446,166q6.213,3,12.67-.622,6.407-3.6.162-6.613" transform="translate(-37.752 -21.919)" fill="#fff"/><path d="M260.491,175.449a30.9,30.9,0,0,1-13.561-3.011l-21.517-10.4,54.3-31.049,19.936,9.575a18.183,18.183,0,0,1,5.55,3.81,6.736,6.736,0,0,1,1.97,4.7v.018a7.537,7.537,0,0,1-2.084,4.727,20.767,20.767,0,0,1-5.493,4.153,28.7,28.7,0,0,1-9.622,3.192l-.012,0a34.759,34.759,0,0,1-4.9.371q-.653,0-1.289-.03a5.621,5.621,0,0,1-.129,3.466l0,.009c-.787,2.182-2.824,4.166-6.227,6.064a34.352,34.352,0,0,1-15.693,4.386C261.306,175.442,260.894,175.449,260.491,175.449ZM229.7,161.889l18.1,8.748a28.917,28.917,0,0,0,12.69,2.812c.381,0,.771-.007,1.157-.02a32.369,32.369,0,0,0,14.787-4.134c2.92-1.629,4.71-3.308,5.319-4.992a3.792,3.792,0,0,0-.43-3.41l-1.083-1.761,2.053.244a23.549,23.549,0,0,0,2.765.157,32.753,32.753,0,0,0,4.606-.35,26.7,26.7,0,0,0,8.949-2.961c4.264-2.377,6.468-4.8,6.552-7.19.029-2.375-2.12-4.618-6.386-6.667l-18.989-9.12Zm31.426,6.476h0a13.992,13.992,0,0,1-6.116-1.461l-11.4-5.5,14.887-8.454,10.213,4.923c2.408,1.162,3.6,2.449,3.647,3.934.048,1.55-1.18,3.006-3.754,4.452A15.239,15.239,0,0,1,261.128,168.365Zm-13.213-7.109,7.967,3.847a12.011,12.011,0,0,0,5.246,1.262,13.271,13.271,0,0,0,6.5-1.855c2.5-1.4,2.744-2.318,2.734-2.646-.02-.633-.937-1.433-2.517-2.2l-9.268-4.467Zm34.756-5.6h0a14.237,14.237,0,0,1-6.192-1.49l-10.889-5.247,14.292-8.117,9.692,4.662c2.449,1.178,3.662,2.472,3.709,3.957.047,1.5-1.116,2.9-3.556,4.268A14.335,14.335,0,0,1,282.67,155.655Zm-12.775-6.882,7.451,3.59a11.634,11.634,0,0,0,11.4-.418c2.318-1.3,2.546-2.155,2.536-2.461s-.279-1.112-2.577-2.217l-8.748-4.208Z" transform="translate(-37.752 -21.919)" fill="#fff"/><path d="M316.432,181.609,294.73,193.5l-9.217-4.456,21.613-11.925,17.123-24.531,10.3,4.952-12.723,16.363,30.776-7.692,10.341,4.969Z" transform="translate(-47.364 -25.315)" fill="#fff"/><path d="M294.673,191.254l21.046-11.535,41.171-9.227-4.5-2.162L316.7,177.252l14.757-18.979-6.537-3.142L308.5,178.649l-18.634,10.282,4.807,2.324m.057,2.249-9.217-4.456,21.613-11.925,17.123-24.531,10.3,4.952-12.723,16.363,30.776-7.692,10.341,4.969-46.516,10.425Z" transform="translate(-47.364 -25.315)" fill="#fff"/><path d="M388.585,216.658q-1.773.93-3.226,1.622-3.517,1.708-6.294,2.755a45.123,45.123,0,0,1-13.56,2.9q-11.152.573-18.8-3.13-7.718-3.729-7.108-9.385.374-3.489,5.075-6.98a47.166,47.166,0,0,1,5.2-3.274q1.218-.725,3.038-1.7l6.848-3.682q1.834-.985,3.2-1.654a65.249,65.249,0,0,1,6.224-2.86,44.491,44.491,0,0,1,13.729-3.057q11.4-.675,19.319,3.119,7.837,3.767,7.083,9.57-.554,3.6-5.368,7.093a56.069,56.069,0,0,1-5.294,3.323q-1.326.765-3.111,1.7Zm4.358-12.314q2.392-1.746,2.745-3.384.7-2.648-3.136-4.494a17.045,17.045,0,0,0-9.1-1.395,21.807,21.807,0,0,0-6.476,1.587q-3.477,1.377-11.218,5.508a104.136,104.136,0,0,0-10.18,5.917q-2.4,1.7-2.719,3.3-.646,2.607,3.194,4.458a16.723,16.723,0,0,0,8.885,1.373,22.924,22.924,0,0,0,6.463-1.5q3.524-1.387,11.2-5.435a107.6,107.6,0,0,0,10.34-5.939" transform="translate(-56.331 -31.207)" fill="#fff"/><path d="M362.576,225.011a37.269,37.269,0,0,1-16.3-3.306c-5.539-2.676-8.118-6.172-7.667-10.392a8.279,8.279,0,0,1,1.641-3.971,17.894,17.894,0,0,1,3.83-3.7,48.361,48.361,0,0,1,5.295-3.339c.814-.484,1.816-1.046,3.064-1.719l6.849-3.682c1.195-.642,2.279-1.2,3.224-1.667a66.578,66.578,0,0,1,6.311-2.9,45.663,45.663,0,0,1,14.032-3.123c1.163-.069,2.316-.1,3.427-.1a37.659,37.659,0,0,1,16.384,3.32,16.019,16.019,0,0,1,6.06,4.584,8.063,8.063,0,0,1,1.581,6.017l0,.023a8.96,8.96,0,0,1-1.811,4.025,18.748,18.748,0,0,1-3.958,3.725,57.313,57.313,0,0,1-5.385,3.382c-.9.521-1.961,1.1-3.144,1.718l-6.953,3.644c-1.167.612-2.263,1.163-3.256,1.637-2.366,1.149-4.511,2.087-6.376,2.79a46.334,46.334,0,0,1-13.857,2.961C364.546,224.985,363.544,225.011,362.576,225.011Zm23.7-35.905c-1.071,0-2.185.034-3.309.1a43.674,43.674,0,0,0-13.422,2.989,64.646,64.646,0,0,0-6.131,2.818l-.018.009c-.925.454-1.991,1-3.167,1.637l-6.848,3.682c-1.228.662-2.21,1.212-3,1.683l-.024.014a46.472,46.472,0,0,0-5.083,3.2l0,0c-2.886,2.143-4.459,4.257-4.677,6.284a6.037,6.037,0,0,0,1.276,4.465,14.337,14.337,0,0,0,5.273,3.913,35.307,35.307,0,0,0,15.433,3.107c.934,0,1.9-.025,2.878-.076A44.334,44.334,0,0,0,378.71,220.1c1.811-.682,3.9-1.6,6.212-2.72l.006,0c.972-.464,2.046-1,3.192-1.605l6.954-3.645c1.161-.607,2.2-1.172,3.075-1.68l.007,0a55.4,55.4,0,0,0,5.2-3.261c2.967-2.154,4.638-4.315,4.967-6.425a6.045,6.045,0,0,0-1.207-4.557,14.1,14.1,0,0,0-5.319-3.971A35.694,35.694,0,0,0,386.279,189.106Zm-23.319,29.2h0a16.741,16.741,0,0,1-7.342-1.562,7.9,7.9,0,0,1-3.1-2.359,3.833,3.833,0,0,1-.637-3.219c.277-1.335,1.3-2.609,3.112-3.9a105.486,105.486,0,0,1,10.292-5.987c5.14-2.746,8.948-4.615,11.316-5.553a22.9,22.9,0,0,1,6.763-1.655c.733-.068,1.458-.1,2.156-.1a17.073,17.073,0,0,1,7.465,1.592c3.766,1.808,4.081,4.053,3.676,5.626-.295,1.343-1.318,2.638-3.129,3.96l-.01.007a108.684,108.684,0,0,1-10.453,6.008c-5.1,2.694-8.907,4.539-11.3,5.481l-.009,0a24.04,24.04,0,0,1-6.738,1.562C364.318,218.276,363.625,218.307,362.959,218.307Zm22.561-22.333c-.638,0-1.3.032-1.977.094h-.011a20.9,20.9,0,0,0-6.18,1.516l-.009,0c-2.3.91-6.037,2.747-11.115,5.46a104.028,104.028,0,0,0-10.063,5.844l-.01.007a5.217,5.217,0,0,0-2.316,2.684l-.01.043c-.111.45-.451,1.818,2.658,3.317a14.766,14.766,0,0,0,6.472,1.363h0c.609,0,1.245-.029,1.89-.086h.013a22.039,22.039,0,0,0,6.177-1.434c2.327-.916,6.061-2.729,11.1-5.387a107.439,107.439,0,0,0,10.223-5.866,5.525,5.525,0,0,0,2.351-2.78l.011-.046c.121-.458.488-1.854-2.6-3.338A15.1,15.1,0,0,0,385.52,195.974Z" transform="translate(-56.331 -31.207)" fill="#fff"/><path d="M427.779,243.419a53.494,53.494,0,0,1-18.979,3.692,36.277,36.277,0,0,1-16.126-3.359q-7.68-3.711-6.993-9.343.4-3.327,4.261-6.161a107.781,107.781,0,0,1,12.814-7.514,136.3,136.3,0,0,1,14.6-6.8,41.585,41.585,0,0,1,12.386-2.471q11.531-.627,19.41,3.153,15.544,7.466.162,17.837l-9.674-4.659q6.266-4.919-.263-8.065a16.729,16.729,0,0,0-9.031-1.435,21.826,21.826,0,0,0-6.633,1.523q-3.452,1.314-11.484,5.481a106.558,106.558,0,0,0-10.433,5.892c-1.634,1.118-2.54,2.223-2.729,3.313q-.742,2.486,3.183,4.378,6.432,3.108,15.941-.084Z" transform="translate(-63.976 -35.066)" fill="#fff"/><path d="M408.624,245.111h.167a50.163,50.163,0,0,0,13.694-2.024l-4.443-2.142a29.362,29.362,0,0,1-8.7,1.469,18.144,18.144,0,0,1-7.961-1.732,9.031,9.031,0,0,1-3.509-2.666,4.523,4.523,0,0,1-.755-3.974c.321-1.613,1.478-3.083,3.532-4.493a107.169,107.169,0,0,1,10.657-6.028,128.862,128.862,0,0,1,11.683-5.571,23.936,23.936,0,0,1,7.194-1.651c.729-.069,1.453-.1,2.155-.1a18.02,18.02,0,0,1,7.9,1.73c2.728,1.31,4.222,2.986,4.44,4.98a5.319,5.319,0,0,1-.964,3.526,8.922,8.922,0,0,1-.6.815l6.018,2.9a21.172,21.172,0,0,0,4.483-4.084,5.229,5.229,0,0,0,1.334-3.432c-.149-2.041-2.452-4.188-6.662-6.21a35.341,35.341,0,0,0-15.338-3.045c-1,0-2.046.029-3.1.086a39.78,39.78,0,0,0-11.793,2.346l0,0a135.128,135.128,0,0,0-14.368,6.7,106.624,106.624,0,0,0-12.557,7.353c-2.1,1.542-3.263,3.152-3.459,4.787v.006a4.932,4.932,0,0,0,1.019,3.709,13.12,13.12,0,0,0,4.86,3.589,34.382,34.382,0,0,0,15.079,3.159m0,2a36.184,36.184,0,0,1-15.95-3.359q-7.68-3.711-6.993-9.343.4-3.327,4.261-6.161a107.781,107.781,0,0,1,12.814-7.514,136.3,136.3,0,0,1,14.6-6.8,41.585,41.585,0,0,1,12.386-2.471q11.531-.627,19.41,3.153,15.544,7.466.162,17.837l-9.674-4.659q6.266-4.919-.263-8.065a16.73,16.73,0,0,0-9.031-1.435,21.826,21.826,0,0,0-6.633,1.523q-3.452,1.314-11.484,5.481a106.558,106.558,0,0,0-10.433,5.892c-1.634,1.118-2.54,2.223-2.729,3.313q-.742,2.486,3.183,4.378,6.432,3.108,15.941-.084l9.591,4.624a53.494,53.494,0,0,1-18.979,3.692Z" transform="translate(-63.976 -35.066)" fill="#fff"/><path d="M420.962,257.622l56.058-28.47,32.508,15.617-10.069,4.994L476.673,238.8l-13.316,6.715,19.3,9.294-9.884,4.915-19.215-9.265L440,257.3l22.436,10.833-9.725,4.828Z" transform="translate(-69.838 -38.015)" fill="#fff"/><path d="M452.694,270.737l5.189-2.576-22.406-10.819,18.058-9.109,19.221,9.268,5.348-2.659-19.27-9.282,17.819-8.986,22.793,10.962,5.524-2.74-27.924-13.415-51.578,26.2,27.227,13.16m.012,2.227-31.743-15.343,56.058-28.47,32.508,15.617-10.069,4.994L476.673,238.8l-13.316,6.715,19.3,9.294-9.884,4.915-19.215-9.265L440,257.3l22.436,10.833Z" transform="translate(-69.838 -38.015)" fill="#fff"/><path d="M495.416,290.584a41.588,41.588,0,0,1-17.22-4.02q-5.766-2.791-8.2-5.5a8.05,8.05,0,0,1-2.069-6.682l13.229-.554a5.191,5.191,0,0,0,1.6,4.4,18.619,18.619,0,0,0,5.383,3.6q8.6,4.15,15.617.731,3.123-1.519,3.3-3.067.066-1.364-2.318-3.061L499.8,273.12q-5.2-3.522-4.753-6.889.586-3.706,7.734-7.252a39.988,39.988,0,0,1,17.207-4.054,38.613,38.613,0,0,1,17.551,3.664q10.031,4.816,9.173,11.009l-13.242.522a4.638,4.638,0,0,0-1.637-4.03,19.217,19.217,0,0,0-4.48-2.786,16.245,16.245,0,0,0-14.917-.073q-2.512,1.236-2.675,2.725-.126,1.668,2.288,3.3l4.817,3.261q5.154,3.5,4.918,6.678-.415,3.86-8.395,7.713a38.6,38.6,0,0,1-17.975,3.68" transform="translate(-77.613 -42.291)" fill="#fff"/><path d="M496.521,291.6c-.373,0-.752,0-1.129-.013a42.782,42.782,0,0,1-17.632-4.12c-4.008-1.941-6.793-3.815-8.512-5.732l-.012-.014a9.045,9.045,0,0,1-2.3-7.481l.12-.82,15.268-.64-.181,1.2a4.211,4.211,0,0,0,1.341,3.569,17.79,17.79,0,0,0,5.089,3.386,19.732,19.732,0,0,0,8.516,2.176,14.126,14.126,0,0,0,6.229-1.444c2.285-1.112,2.685-1.92,2.744-2.249-.006-.232-.189-.946-1.888-2.158l-4.927-3.309a15.275,15.275,0,0,1-4.056-3.745,5.782,5.782,0,0,1-1.131-4.106l0-.024c.449-2.839,3.156-5.453,8.278-7.992a41.158,41.158,0,0,1,17.632-4.158c.241,0,.482-.005.718-.005a39.538,39.538,0,0,1,17.285,3.768,22.619,22.619,0,0,1,7.643,5.423,8.306,8.306,0,0,1,2.088,6.624l-.115.829-15.27.6.161-1.181a3.657,3.657,0,0,0-1.331-3.166,18.44,18.44,0,0,0-4.228-2.614,16.572,16.572,0,0,0-7.183-1.752,15.464,15.464,0,0,0-6.859,1.674c-1.289.634-2.04,1.316-2.121,1.922-.053.894.976,1.785,1.851,2.375l4.818,3.262a16.561,16.561,0,0,1,4.05,3.655,5.867,5.867,0,0,1,1.3,3.924l0,.034c-.319,2.969-3.248,5.751-8.954,8.506A39.4,39.4,0,0,1,496.521,291.6ZM470.743,280.4c1.522,1.693,4.176,3.463,7.888,5.26a40.794,40.794,0,0,0,16.81,3.921c.359.008.723.013,1.08.013A37.423,37.423,0,0,0,512.955,286c4.882-2.357,7.59-4.743,7.834-6.9.115-1.723-1.393-3.661-4.484-5.761l-4.816-3.26c-1.92-1.3-2.837-2.71-2.724-4.2l0-.035c.153-1.37,1.209-2.519,3.227-3.512a17.443,17.443,0,0,1,7.742-1.88,18.549,18.549,0,0,1,8.049,1.949,20.259,20.259,0,0,1,4.716,2.944l.029.027a5.973,5.973,0,0,1,1.956,3.706l11.293-.445a6.519,6.519,0,0,0-1.7-4.243,20.718,20.718,0,0,0-6.972-4.9,37.557,37.557,0,0,0-16.419-3.57c-.226,0-.456,0-.684.005a39.169,39.169,0,0,0-16.778,3.951,22.248,22.248,0,0,0-5.27,3.42,5.68,5.68,0,0,0-1.918,3.08c-.236,1.825,1.218,3.815,4.324,5.917l4.958,3.33c1.9,1.355,2.8,2.638,2.737,3.923l-.006.069c-.165,1.408-1.428,2.667-3.861,3.85a16.11,16.11,0,0,1-7.1,1.646,21.7,21.7,0,0,1-9.385-2.375,19.4,19.4,0,0,1-5.672-3.813l-.009-.01a6.544,6.544,0,0,1-1.909-4.038l-11.273.472A7.1,7.1,0,0,0,470.743,280.4Z" transform="translate(-77.613 -42.291)" fill="#fff"/><path d="M535.179,315.533l7.3-6.186-17.335-8.375-13.02,3.419-9.87-4.775,75.762-19.206,7.613,3.658-40.539,36.255Zm29.459-24.886-27.384,7.1,12.177,5.873Z" transform="translate(-83.322 -46.52)" fill="#fff"/><path d="M544.751,317.94l37.308-33.366-4.259-2.047-69.738,17.679,4.265,2.063,13.019-3.419,20.768,10.033-7.3,6.187,5.934,2.869m19.385-29.229,1.8,3.458-16.2,13.819-18.264-8.808,32.663-8.468m-19.05,31.612-9.907-4.79,7.3-6.186-17.335-8.375-13.02,3.419-9.87-4.775,75.762-19.206,7.613,3.658Zm19.552-29.676-27.384,7.1,12.177,5.873Z" transform="translate(-83.322 -46.52)" fill="#fff"/><path d="M713.116,343.52l-1.448-.718-1.455-.717-45.993-2.993,29.591-5.107-.95-.465-.94-.468-12.127-5.984-.758-.372-.765-.377-19.45,7.445,12.433-10.91-.6-.295-.607-.3L657.17,315.9l-.55-.274-.566-.275-7.7,17.4-11.093-26.677-.842-.421-.849-.418-12.72-6.279L606.64,308.1l-.58.332-.579.325,32.643,26.259-53-14.775-.761.431-.764.433-15.331,8.649,13.414,6.539,1.473.717,1.471.718,47.546,3.084-30.453,5.246.96.465.95.468,12.44,6.06.761.372.765.374,20-7.656L624.83,357.327l.607.3.606.293,13.07,6.37.56.273.556.273,7.832-17.689,11.228,26.978.845.413.842.407,11.912,5.807,16.358-9.351.583-.33.569-.334-32.117-25.857,52.012,14.485.758-.431.758-.435,14.664-8.384Zm-58.3.525,1.044,2.057,2.049,4.032,2.937,5.774-5.625-5.043-3.931-3.524-2-1.8a1.643,1.643,0,0,0-1.052-.31c-.1,0-.189.007-.289.017a1.826,1.826,0,0,0-1.058.418l-2.1,2.017-4.113,3.951-5.9,5.675L638,351.2l2.25-4.261,1.139-2.18c.134-.253.02-.482-.243-.644a1.423,1.423,0,0,0-.195-.091,2.31,2.31,0,0,0-1.24-.074l-4.015.792-7.883,1.557-11.326,2.234,10.241-3.6,7.127-2.506,3.639-1.277a1.006,1.006,0,0,0,.694-.568.459.459,0,0,0,.013-.177c-.041-.219-.259-.421-.68-.526l-3.334-.835-6.9-1.728L616.8,334.68l10.807,1.01,7.99.746,4.279.4a2.413,2.413,0,0,0,1.243-.2c.061-.03.112-.06.161-.088.3-.192.445-.445.32-.7l-1.051-2.062-2.061-4.042-2.951-5.8,5.652,5.077,3.941,3.533,2.011,1.8a1.6,1.6,0,0,0,1.048.31,2.815,2.815,0,0,0,.283-.015,1.818,1.818,0,0,0,1.064-.42l2.095-2.014,4.109-3.948,5.882-5.656-3.22,6.106-2.244,4.263-1.146,2.172c-.131.253-.01.482.25.641.061.033.125.067.2.1a2.315,2.315,0,0,0,1.234.071l4-.789,7.842-1.545,11.228-2.208-10.146,3.571-7.094,2.493-3.621,1.273a1,1,0,0,0-.694.566.4.4,0,0,0-.013.179c.043.22.256.421.674.524l3.322.834,6.852,1.723,10.4,2.609-10.706-1-7.943-.734-4.265-.4a2.433,2.433,0,0,0-1.24.2c-.054.03-.108.064-.155.091-.3.189-.448.444-.317.692" transform="translate(-94.274 -49.598)" fill="#fff"/><path d="M672.926,381.88l-12.388-6.039-.839-.406-1.188-.58-10.478-25.176-7.31,16.511-2.047-1-15.634-7.619,9.688-8.491-15.186,5.813-1.916-.937-12.439-6.06-.949-.468-3.759-1.822,25.184-4.339-39.3-2.549-3.121-1.521-15.126-7.373,18.875-10.652,48.718,13.58L603.7,308.609l1.866-1.047.582-.333,16.67-9.4,14.048,6.933,1.175.587,10.342,24.869L655.559,314l1.508.732.55.274,15.42,7.612-9.362,8.215,14.647-5.606,1.913.942,12.129,5.985.941.469,3.722,1.821-24.32,4.2,37.77,2.458,1.633.806,1.45.718,15.041,7.422-18.175,10.39-47.736-13.294,29.463,23.721-1.832,1.074-.583.33Zm-12.859-8.491.506.247.839.406,11.44,5.577,15.782-9.022-30.979-24.941.728-1.417-1.953-.182a1.557,1.557,0,0,0-.476.029l2.843,5.6,2.937,5.773-1.559,1.2-11.28-10.111Zm-33.445-16.3,13.113,6.391,7.36-16.623-1.615,1.555-4.114,3.952-5.9,5.674-1.578-1.187,5.477-10.381.821-1.571a1.6,1.6,0,0,0-.281.031l-2.542.5.884,1.466Zm33.766-12.661,49.773,13.862.4-.225.755-.433,13.033-7.452-11.671-5.759-2.724-1.347-45.795-2.98-.105-1.983,26.564-4.584-12.393-6.114-17.715,6.78,7.837-1.543,11.228-2.208.525,1.924-10.146,3.571-9.7,3.408,2.18.547,6.852,1.723,10.4,2.609-.336,1.966-10.706-1Zm-55.452,2.093,12.7,6.191,18.27-6.993-.019,0-7.882,1.557-11.326,2.234-.525-1.925,19.986-7.022-9.1-2.279-10.49-2.634.337-1.966,19.144,1.789-50.785-14.157-1.164.659-13.674,7.715,14.47,7.053,47.349,3.071.105,1.983Zm37.34-1.3-1.138,2.177-2.582,4.892,1.424-1.37,4.114-3.952,2.095-2.017a2.817,2.817,0,0,1,1.653-.693c.117-.011.244-.022.388-.022a2.639,2.639,0,0,1,1.714.561l.005,0,7.575,6.789-3.6-7.087a1.51,1.51,0,0,1,.677-2l.031-.018.046-.027c.038-.023.078-.047.118-.069l.06-.031a3.362,3.362,0,0,1,1.431-.309c.11,0,.221.005.33.015l4.264.4,5.679.525-7.935-1.994a1.715,1.715,0,0,1-1.408-1.282,1.355,1.355,0,0,1,.014-.6l.015-.06a1.944,1.944,0,0,1,1.326-1.236l7.784-2.736-9.471,1.866a3.651,3.651,0,0,1-.7.069,3.1,3.1,0,0,1-1.077-.185l-.047-.019c-.109-.047-.2-.1-.276-.137l-.043-.025a1.458,1.458,0,0,1-.616-1.953l0-.007,1.146-2.173,2.571-4.883-7.613,7.317a2.772,2.772,0,0,1-1.659.7,3.8,3.8,0,0,1-.384.02,2.6,2.6,0,0,1-1.722-.57l-7.609-6.824.52,1.023L642.5,335.4a1.514,1.514,0,0,1-.677,1.984l-.084.049c-.046.026-.1.058-.172.092l-.006,0a3.444,3.444,0,0,1-1.774.3l-10.06-.939,8.046,2.015a1.709,1.709,0,0,1,1.421,1.313l.009.061a1.449,1.449,0,0,1-.041.564l0,.009a1.91,1.91,0,0,1-1.321,1.236l-3.642,1.278-4.209,1.48,9.539-1.882a3.59,3.59,0,0,1,.7-.069,3.077,3.077,0,0,1,1.088.189,2.418,2.418,0,0,1,.327.152l.039.023A1.455,1.455,0,0,1,642.276,345.221Zm-4.256-9.563,1.947.182a1.582,1.582,0,0,0,.489-.03L637.6,330.2l-2.951-5.805,1.56-1.2,5.652,5.077,5.662,5.075L636.481,306.8l-.506-.253-.847-.417-12.247-6.046L607.256,308.9l31.495,25.336Zm22.909-13.769,1.578,1.187-3.22,6.106-3.069,5.828a1.655,1.655,0,0,0,.281-.031l2.546-.5-.884-1.465,11.31-9.924-12.923-6.378-7.234,16.345Z" transform="translate(-94.274 -49.598)" fill="#fff"/></g></g></g></svg>