<svg xmlns="http://www.w3.org/2000/svg" xmlns:xlink="http://www.w3.org/1999/xlink" viewBox="0 0 130.64 47.18"><defs><style>.cls-1,.cls-13{fill:none;}.cls-2{fill:url(#radial-gradient);}.cls-3{fill:#fff;}.cls-4{clip-path:url(#clip-path);}.cls-5{fill:url(#linear-gradient);}.cls-6{fill:url(#linear-gradient-2);}.cls-7{fill:url(#linear-gradient-3);}.cls-8{fill:url(#linear-gradient-4);}.cls-9{fill:url(#linear-gradient-5);}.cls-10{fill:url(#linear-gradient-6);}.cls-11{fill:url(#linear-gradient-7);}.cls-12{fill:url(#linear-gradient-8);}.cls-13{stroke:#000;stroke-miterlimit:10;stroke-width:0.22px;}</style><radialGradient id="radial-gradient" cx="194.76" cy="124.43" r="24.54" gradientTransform="translate(-112.52 -94.5) scale(0.96 0.95)" gradientUnits="userSpaceOnUse"><stop offset="0.12" stop-color="#fff"/><stop offset="0.14" stop-color="#ebebec"/><stop offset="0.22" stop-color="#aeaeae"/><stop offset="0.29" stop-color="#797979"/><stop offset="0.36" stop-color="#4d4d4e"/><stop offset="0.43" stop-color="#2c2c2d"/><stop offset="0.49" stop-color="#141415"/><stop offset="0.55" stop-color="#050506"/><stop offset="0.6" stop-color="#000001"/></radialGradient><clipPath id="clip-path" transform="translate(0 0)"><path class="cls-1" d="M85.12,11.06v2.51c0,3.51.18,4.1,2.39,5.69l5.25,3.6C96.42,25.52,98,26.49,98,32.48v2.89A11.83,11.83,0,0,1,86.19,47.18h0A11.83,11.83,0,0,1,74.34,35.37V27.44l.21.3L79,34.22s-2.26-5.68-3-7.33a.51.51,0,0,1,.08-.55l9,6.2v3.58a1.08,1.08,0,0,0,2.15,0v-.43c0-3.7.14-4.11-2-5.65L84,29.16s-2.8-2-3.77-2.78a11,11,0,0,1-2-1.77,1.06,1.06,0,0,1-.15-.55h0a1.06,1.06,0,0,1,.15-.55,11,11,0,0,1,2-1.77c1-.76,3.77-2.78,3.77-2.78s-3.45,1.4-4.64,1.93a25.21,25.21,0,0,1-2.68,1.07.52.52,0,0,1-.56-.18.51.51,0,0,1-.08-.55c.69-1.65,3-7.33,3-7.33l-4.42,6.48c-.06.09-.13.2-.21.3V11.81A11.83,11.83,0,0,1,86.19,0h0A11.83,11.83,0,0,1,98,11.81V23.9L87.27,16.49V11.06a1.08,1.08,0,0,0-2.15,0ZM73.26,27.44v7.93a11.82,11.82,0,0,1-11.85,11.8h0a11.83,11.83,0,0,1-11.85-11.8V11.8A11.83,11.83,0,0,1,61.41,0h0A11.83,11.83,0,0,1,73.26,11.8v8.86c-.08-.1-.14-.21-.2-.3l-4.43-6.48s2.27,5.68,3,7.33a.55.55,0,0,1-.08.55.54.54,0,0,1-.57.18,24.38,24.38,0,0,1-2.67-1.07c-1.2-.53-4.65-1.93-4.65-1.93s2.8,2,3.78,2.78c.42.33,1.08.84,1.53,1.27H60.34V36.12a1.08,1.08,0,0,0,2.15,0v-11H68.9c-.47.45-1.09.93-1.5,1.25-1,.76-3.78,2.78-3.78,2.78s3.45-1.4,4.65-1.93a24.38,24.38,0,0,1,2.67-1.07.54.54,0,0,1,.57.18.55.55,0,0,1,.08.55c-.69,1.65-3,7.33-3,7.33l4.43-6.48C73.12,27.66,73.18,27.55,73.26,27.44Zm-12.92-11h2.15V11.06a1.08,1.08,0,0,0-2.15,0ZM23.71,11.8V35.37a11.83,11.83,0,0,1-11.86,11.8h0A11.83,11.83,0,0,1,0,35.37V11.8A11.83,11.83,0,0,1,11.85,0h0A11.83,11.83,0,0,1,23.71,11.8Zm-10.78-.74a1.08,1.08,0,0,0-2.15,0V36.12a1.08,1.08,0,0,0,2.15,0ZM48.48,23V11.8A11.83,11.83,0,0,0,36.63,0h0A11.83,11.83,0,0,0,24.78,11.8V35.37a11.83,11.83,0,0,0,11.85,11.8h0a11.82,11.82,0,0,0,11.85-11.8V25.13H37.71v11a1.08,1.08,0,0,1-2.15,0V11.06a1.08,1.08,0,0,1,2.15,0V23ZM122.82,11.8V35.37A11.82,11.82,0,0,1,111,47.17h0a11.82,11.82,0,0,1-11.85-11.8V31.89a10.33,10.33,0,0,1,1-5.11c.82-1.49,2.19-2.49,4.36-4l7.53-5.17V11.06a1.08,1.08,0,0,0-2.15,0v5.43L99.12,23.9V11.8A11.83,11.83,0,0,1,111,0h0A11.83,11.83,0,0,1,122.82,11.8ZM112.05,36.12V28.19l-.67.5c-1.12.8-1.47,1-1.47,2.44v5a1.08,1.08,0,0,0,2.15,0Z"/></clipPath><linearGradient id="linear-gradient" x1="56.88" y1="0.23" x2="68.55" y2="25.25" gradientUnits="userSpaceOnUse"><stop offset="0" stop-color="#191a1a"/><stop offset="0.4" stop-color="#333334"/><stop offset="0.46" stop-color="#39393a"/><stop offset="0.54" stop-color="#49494a"/><stop offset="0.62" stop-color="#646465"/><stop offset="0.72" stop-color="#8a8a8b"/><stop offset="0.82" stop-color="#bbb"/><stop offset="0.92" stop-color="#f5f5f5"/><stop offset="0.94" stop-color="#fff"/></linearGradient><linearGradient id="linear-gradient-2" x1="13.06" y1="6.94" x2="71.2" y2="26.93" gradientUnits="userSpaceOnUse"><stop offset="0.14" stop-color="#242424"/><stop offset="0.46" stop-color="#333334"/><stop offset="0.59" stop-color="#353536"/><stop offset="0.66" stop-color="#3e3e3e"/><stop offset="0.72" stop-color="#4b4b4c"/><stop offset="0.77" stop-color="#5f5f60"/><stop offset="0.81" stop-color="#797979"/><stop offset="0.86" stop-color="#989899"/><stop offset="0.9" stop-color="#bebebe"/><stop offset="0.93" stop-color="#e8e8e8"/><stop offset="0.95" stop-color="#fff"/></linearGradient><linearGradient id="linear-gradient-3" x1="13.06" y1="38.72" x2="70.27" y2="19.02" xlink:href="#linear-gradient-2"/><linearGradient id="linear-gradient-4" x1="56.75" y1="48.45" x2="68.6" y2="23.05" xlink:href="#linear-gradient"/><linearGradient id="linear-gradient-5" x1="90.85" y1="48.46" x2="79.01" y2="23.05" xlink:href="#linear-gradient"/><linearGradient id="linear-gradient-6" x1="133.53" y1="41.62" x2="76.73" y2="22.1" gradientUnits="userSpaceOnUse"><stop offset="0.14" stop-color="#1f1f1f"/><stop offset="0.46" stop-color="#333334"/><stop offset="0.59" stop-color="#353536"/><stop offset="0.66" stop-color="#3e3e3e"/><stop offset="0.72" stop-color="#4b4b4c"/><stop offset="0.77" stop-color="#5f5f60"/><stop offset="0.81" stop-color="#797979"/><stop offset="0.86" stop-color="#989899"/><stop offset="0.9" stop-color="#bebebe"/><stop offset="0.93" stop-color="#e8e8e8"/><stop offset="0.95" stop-color="#fff"/></linearGradient><linearGradient id="linear-gradient-7" x1="90.72" y1="0.23" x2="79.05" y2="25.25" xlink:href="#linear-gradient"/><linearGradient id="linear-gradient-8" x1="133.53" y1="4.86" x2="76.73" y2="24.42" xlink:href="#linear-gradient-6"/></defs><g id="Capa_2" data-name="Capa 2"><g id="plecas"><path class="cls-2" d="M11.85,0h0A11.83,11.83,0,0,0,0,11.8V35.37a11.83,11.83,0,0,0,11.85,11.8h0a11.83,11.83,0,0,0,11.86-11.8V11.8A11.83,11.83,0,0,0,11.85,0Zm1.08,36.12a1.08,1.08,0,0,1-2.15,0V11.06a1.08,1.08,0,0,1,2.15,0ZM111,0h0A11.83,11.83,0,0,0,99.12,11.8V23.9l10.78-7.41V11.06a1.08,1.08,0,0,1,2.15,0v6.55l-7.53,5.17c-2.17,1.51-3.54,2.51-4.36,4a10.33,10.33,0,0,0-1,5.11v3.48A11.82,11.82,0,0,0,111,47.17h0a11.82,11.82,0,0,0,11.85-11.8V11.8A11.83,11.83,0,0,0,111,0Zm0,37.19a1.07,1.07,0,0,1-1.07-1.07v-5c0-1.41.35-1.64,1.47-2.44l.67-.5v7.93A1.08,1.08,0,0,1,111,37.19ZM73.06,27.74l-4.43,6.48s2.27-5.68,3-7.33a.55.55,0,0,0-.08-.55.54.54,0,0,0-.57-.18,24.38,24.38,0,0,0-2.67,1.07c-1.2.53-4.65,1.93-4.65,1.93s2.8-2,3.78-2.78c.41-.32,1-.82,1.5-1.25H62.49v11a1.08,1.08,0,0,1-2.15,0V23h8.59c-.45-.43-1.11-.94-1.53-1.27-1-.76-3.78-2.78-3.78-2.78s3.45,1.4,4.65,1.93a24.38,24.38,0,0,0,2.67,1.07.54.54,0,0,0,.57-.18.55.55,0,0,0,.08-.55c-.69-1.65-3-7.33-3-7.33l4.43,6.48c.06.09.12.2.2.3V11.8A11.83,11.83,0,0,0,61.41,0h0A11.83,11.83,0,0,0,49.56,11.8V35.37a11.83,11.83,0,0,0,11.85,11.8h0a11.82,11.82,0,0,0,11.85-11.8V27.44C73.18,27.55,73.12,27.66,73.06,27.74ZM60.34,11.06a1.08,1.08,0,0,1,2.15,0v5.43H60.34Zm24.78,0v2.51c0,3.51.18,4.1,2.39,5.69l5.25,3.6C96.42,25.52,98,26.49,98,32.48v2.89A11.83,11.83,0,0,1,86.19,47.18h0A11.83,11.83,0,0,1,74.34,35.37V27.44l.21.3L79,34.22s-2.26-5.68-3-7.33a.51.51,0,0,1,.08-.55l9,6.2v3.58a1.08,1.08,0,0,0,2.15,0v-.43c0-3.7.14-4.11-2-5.65L84,29.16s-2.8-2-3.77-2.78a11,11,0,0,1-2-1.77,1.06,1.06,0,0,1-.15-.55h0a1.06,1.06,0,0,1,.15-.55,11,11,0,0,1,2-1.77c1-.76,3.77-2.78,3.77-2.78s-3.45,1.4-4.64,1.93a25.21,25.21,0,0,1-2.68,1.07.52.52,0,0,1-.56-.18.51.51,0,0,1-.08-.55c.69-1.65,3-7.33,3-7.33l-4.42,6.48c-.06.09-.13.2-.21.3V11.81A11.83,11.83,0,0,1,86.19,0h0A11.83,11.83,0,0,1,98,11.81V23.9L87.27,16.49V11.06a1.08,1.08,0,0,0-2.15,0ZM37.71,23V11.06a1.08,1.08,0,0,0-2.15,0V36.12a1.08,1.08,0,0,0,2.15,0v-11H48.48V35.37a11.82,11.82,0,0,1-11.85,11.8h0a11.83,11.83,0,0,1-11.85-11.8V11.8A11.83,11.83,0,0,1,36.63,0h0A11.83,11.83,0,0,1,48.48,11.8V23Z" transform="translate(0 0)"/><path class="cls-3" d="M78.24,24.61a1.06,1.06,0,0,1-.15-.55h0a1.06,1.06,0,0,1,.15-.55,11,11,0,0,1,2-1.77c1-.76,3.77-2.78,3.77-2.78s-3.45,1.4-4.64,1.93a25.21,25.21,0,0,1-2.68,1.07.52.52,0,0,1-.56-.18.51.51,0,0,1-.08-.55c.69-1.65,3-7.33,3-7.33l-4.42,6.48c-.16.23-.37.62-.75.62s-.58-.39-.74-.62l-4.43-6.48s2.27,5.68,3,7.33a.55.55,0,0,1-.08.55.54.54,0,0,1-.57.18,24.38,24.38,0,0,1-2.67-1.07c-1.2-.53-4.65-1.93-4.65-1.93s2.8,2,3.78,2.78a10.89,10.89,0,0,1,2,1.77,1.06,1.06,0,0,1,.15.55h0a1.06,1.06,0,0,1-.15.55,10.89,10.89,0,0,1-2,1.77c-1,.76-3.78,2.78-3.78,2.78s3.45-1.4,4.65-1.93a24.38,24.38,0,0,1,2.67-1.07.54.54,0,0,1,.57.18.55.55,0,0,1,.08.55c-.69,1.65-3,7.33-3,7.33l4.43-6.48c.16-.23.36-.62.74-.62s.59.39.75.62L79,34.22s-2.26-5.68-3-7.33a.51.51,0,0,1,.08-.55.52.52,0,0,1,.56-.18,25.21,25.21,0,0,1,2.68,1.07c1.19.53,4.64,1.93,4.64,1.93s-2.8-2-3.77-2.78A11,11,0,0,1,78.24,24.61Z" transform="translate(0 0)"/><g class="cls-4"><path class="cls-5" d="M71.6,21.6a.58.58,0,0,0,0-.39c-.69-1.65-3-7.32-3-7.33h0L61.56,0h-.15A11.83,11.83,0,0,0,53,3.47l7.36,7.3a1.08,1.08,0,0,1,2.11.29v1.8l8.79,8.33A1.85,1.85,0,0,1,71.6,21.6Z" transform="translate(0 0)"/><path class="cls-6" d="M48.48,11.38c0,.14,0,.28,0,.43v8.5l-10.78-1.6V11.1A1.08,1.08,0,0,0,36.86,10a1.07,1.07,0,0,0-1.3,1.05v7.33l-10.78-1.6v-5a11.77,11.77,0,0,1,5.13-9.72ZM11.85,0h0A11.83,11.83,0,0,0,0,11.8v1.31l10.78,1.6V11.1a1.08,1.08,0,1,1,2.15,0v4l10.78,1.6V11.8A11.83,11.83,0,0,0,11.85,0ZM68.93,23c-.46-.43-1.06-.9-1.53-1.27-1-.75-3.7-2.73-3.78-2.78l-14.06-7v8.55l17,2.52Z" transform="translate(0 0)"/><path class="cls-7" d="M48.49,26.27v9.1a11.16,11.16,0,0,1-.09,1.42L30.76,45.62a11.78,11.78,0,0,1-6-10.25V28.2l10.78-.88v8.8a1.08,1.08,0,0,0,2.15,0v-9ZM12.93,36.12a1.07,1.07,0,0,1-1.3,1,1.06,1.06,0,0,1-.85-1.08V29.34L0,30.21v5.16a11.83,11.83,0,0,0,11.85,11.8h0a11.83,11.83,0,0,0,11.86-11.8V28.28l-10.78.88ZM67.4,26.38c.44-.35,1-.81,1.5-1.25H62.49v4.6l1.13-.57S66.43,27.14,67.4,26.38Zm-17.84,9c0,.28,0,.55,0,.82l10.75-5.38v-5.5l-10.78.87Z" transform="translate(0 0)"/><path class="cls-8" d="M68.63,34.22s2.27-5.68,3-7.33a.55.55,0,0,0-.08-.55.56.56,0,0,0-.32-.19h0a.18.18,0,0,1,.13.18c0,.17-.21.36-.21.36l-8.64,8.57v.85a1.07,1.07,0,0,1-1.08,1.07,1,1,0,0,1-.64-.22l-7.26,7.2a11.84,11.84,0,0,0,7.9,3h.64l6.58-12.94Z" transform="translate(0 0)"/><path class="cls-9" d="M86.84,37a1.12,1.12,0,0,1-.65.21,1.07,1.07,0,0,1-1.07-1.07v-.85l-9-8.91,0,0a.51.51,0,0,0-.08.55c.69,1.65,3,7.33,3,7.33h0l6.59,12.94.63,0h0a11.85,11.85,0,0,0,7.91-3Z" transform="translate(0 0)"/><path class="cls-10" d="M98,32.26v3.11c0,.28,0,.55,0,.82l-14-7s-2.8-2-3.77-2.78a11,11,0,0,1-2-1.77,1.06,1.06,0,0,1-.15-.55h0v0h0c0,.58.77.62.77.62l17.66,1.43a7.67,7.67,0,0,1,.48.73A11.45,11.45,0,0,1,98,32.26Zm24.78-4.06v7.17a11.76,11.76,0,0,1-6,10.25L99.2,36.79a13.37,13.37,0,0,1-.08-1.42V31.89a10.33,10.33,0,0,1,1-5.11c.08-.14.16-.27.25-.4Zm-10.77,7.92V28.19l-.67.5c-1.12.8-1.47,1-1.47,2.44v4.95a1.08,1.08,0,1,0,2.15,0Z" transform="translate(0 0)"/><path class="cls-11" d="M86.19,0h-.14L79,13.88s-2.26,5.68-3,7.33a.48.48,0,0,0,0,.39,1.58,1.58,0,0,1,.32-.41l8.79-8.33v-1.8A1.07,1.07,0,0,1,86.19,10a1.09,1.09,0,0,1,1,.78l7.36-7.3A11.88,11.88,0,0,0,86.19,0Z" transform="translate(0 0)"/><path class="cls-12" d="M117.69,2.08,99.13,11.36c0,.15,0,.29,0,.44v8.51l6.66-1,4.12-2.83V11.06a1.08,1.08,0,0,1,2.15,0v6.55l-1.45,1,12.22-1.81v-5A11.77,11.77,0,0,0,117.69,2.08Zm-23.75,19,4.1-.61V11.9l-10.1,5Zm-6.43-1.81,3.31,2.28L78.76,23.33a.72.72,0,0,0-.67.72v0h0a1.06,1.06,0,0,1,.15-.55,11,11,0,0,1,2-1.77c1-.76,3.77-2.78,3.77-2.78l2-1A8.09,8.09,0,0,0,87.51,19.26Z" transform="translate(0 0)"/></g><ellipse class="cls-13" cx="128.63" cy="42.9" rx="1.9" ry="1.89"/><path d="M128.12,42.09a2.76,2.76,0,0,1,.44,0,.7.7,0,0,1,.5.15.41.41,0,0,1,.14.33.48.48,0,0,1-.33.45h0a.47.47,0,0,1,.26.36,3.07,3.07,0,0,0,.13.48H129a2.39,2.39,0,0,1-.12-.42c0-.24-.14-.33-.35-.34h-.21v.76h-.23Zm.23.8h.23c.24,0,.39-.13.39-.33s-.16-.33-.4-.33l-.22,0Z" transform="translate(0 0)"/></g></g></svg>