<svg xmlns="http://www.w3.org/2000/svg" width="1919.999" height="1094.999" viewBox="0 0 1919.999 1094.999"><path d="M-12279,1095V.123c1.079-.015,2.16-.046,3.239-.046q47.038-.028,94.075-.052,50.875-.018,101.753-.025c12.209-.006,24.388.08,36.5.669,3.713.179,7.473.247,11.383.37-.475-.351-.888-.653-1.387-1.023h1.461q3.064,0,6.133,0,7.012,0,14.024.018c4.992.022,9.981.126,14.974.163,3.667.025,7.34.015,11.007-.006,1.224-.006,2.472-.169,3.655-.117,1.55.071,3.041.284,4.573.438-.816.53-.82.552-2.346.518-4.77-.111-9.491,0-14.23.21a78.2,78.2,0,0,1-12.545-.428,50.359,50.359,0,0,0-5.605-.336c-4.277-.009-8.555.077-12.829.136a7.4,7.4,0,0,0-1.042.157,6.08,6.08,0,0,0,1.061.188c4.271.015,8.471.086,12.729.361,5.311.345,10.8.367,16.216.515a42.339,42.339,0,0,0,7.091-.213,8.97,8.97,0,0,1,1.424-.049c2.709.071,5.427.123,8.12.24,6.859.3,13.707.622,20.558.94.385.018.764.074,1.125.126,3.781.552,7.519,1.143,11.353,1.649a23.364,23.364,0,0,0,7.208-.108,5.548,5.548,0,0,1,3.2.2,2.918,2.918,0,0,0,1.661.126c1.445-.194,2.922-.367,4.407-.53a10.907,10.907,0,0,1,4.548.342,5.021,5.021,0,0,0,1.458.228,41.4,41.4,0,0,0,4.252-.163,91.874,91.874,0,0,1,10.7-.647q32.634-.014,65.274-.012,23.339-.014,46.674-.059c2.679,0,5.356.034,8.037.049q9.888.055,19.778.1c1.461.006,2.921,0,4.385,0,2.816,0,5.637-.006,8.438.059,14.53.345,29.063.629,43.63.592,9.075-.022,18.147-.139,27.223-.237a17.878,17.878,0,0,0,5.178-.65,16.3,16.3,0,0,1,4.551-.761c1.267-.049,2.552-.083,3.825-.071q25.3.3,50.594.613c5.387.074,10.785.16,16.052.641a66.457,66.457,0,0,0,13.122-.071,60.141,60.141,0,0,1,12.193-.062,77.455,77.455,0,0,0,10.1.247c2.773-.086,5.59-.213,8.339-.129a119.383,119.383,0,0,1,12.706.965,18.648,18.648,0,0,0,7.4-.28,23.326,23.326,0,0,1,6.518-.764q4.452,0,8.909-.006c4.949,0,9.9-.009,14.851.012a36.862,36.862,0,0,1,4.619.348,44.966,44.966,0,0,0,9.5.311c2.326-.173,4.712-.268,7.088-.333,3.777-.108,7.577-.129,11.355-.24,4.472-.129,8.937-.259,13.39.025,4.949.317,9.907.394,14.924.216,2.971-.108,5.976-.114,8.962-.182a4.026,4.026,0,0,1,2.472.589c-1.477.043-2.842.083-4.21.126-.03.043-.064.086-.1.129.5.071.986.185,1.507.21,1.187.055,2.4.055,3.588.1.838.034,1.331-.034,1.565-.339.243-.32.638-.666,1.759-.7q4.646-.153,9.307-.234a8.613,8.613,0,0,1,2.237.234,13.327,13.327,0,0,0,3.89.41c3.854-.034,7.654.1,11.438.364a47.935,47.935,0,0,0,10.373-.206,9.047,9.047,0,0,1,1.177-.043q5.279,0,10.561,0,9.416.009,18.838.031a14.481,14.481,0,0,1,2.993.213,29.317,29.317,0,0,0,7.177.592q13.021.014,26.036.08c4.715.025,9.448.216,14.139.126,5.911-.114,11.726-.009,17.571.265,3.051.142,6.17.117,9.258.169.03-.046.059-.089.089-.133-.3-.1-.613-.2-.915-.3-1.239-.407-1.272-.619.031-1.008,1.167-.351,2.428-.666,3.654-1,1.6.8,2.487.971,5.3,1,1.76.025,3.522.022,5.272.074,1.011.031,2,.151,2.992.228-.019.043-.034.083-.053.123q-4.668.208-9.337.41a3.469,3.469,0,0,0,.789.08c5.078.006,10.16.022,15.238.012,7.448-.012,14.869-.154,22.206-.622a4.8,4.8,0,0,0,.912-.222,7.543,7.543,0,0,0-1-.114c-5.594.074-11.187.173-16.783.237-2.773.034-5.553.006-8.233.006.145-.043.443-.139.859-.268-2.943-.268-5.738-.521-8.533-.777-.009-.049-.019-.1-.027-.148a11.661,11.661,0,0,1,1.214-.077q9.776.37,19.544.755c.53.022,1.06.037,1.729.059-.942-.86-3.168-.773-5-1,3.547-.108,7.054-.139,10.558-.136a35.466,35.466,0,0,0,5.155-.274,25.681,25.681,0,0,1,3.729-.24c2.872.028,5.738.139,8.607.219,2.04.059,2,.062,2.031.74.009.262-.2.41-.975.465-.452.034-.875.114-1.39.182a2.624,2.624,0,0,0,.373.08c1.075.034,2.147.083,3.227.1,14.715.148,29.433.194,44.15.049,1.094-.012,2.182-.114,3.272-.173.01-.046.016-.1.024-.142-3.051-.231-6.1-.459-9.3-.7.844-.028,1.553-.083,2.259-.074,4.274.055,8.563.062,12.813.213a89.95,89.95,0,0,0,9,.21,6.868,6.868,0,0,1,2.928.419l-8.835.413a11.769,11.769,0,0,0,3.738.274,66.709,66.709,0,0,1,9.288-.191c5.054.256,10.04.133,15.051-.089a50.1,50.1,0,0,1,9.806.24,58.381,58.381,0,0,0,8.971.626q11.338.009,22.677.009c1.319,0,2.653.009,3.954-.052q11.524-.541,23.032-1.116a3.723,3.723,0,0,0,.469-.1l-2.716-.293c2.047-.176,4.047-.311,6.062-.376,1.175-.037,1.815-.2,2.136-.573.555-.641,1.9-.983,3.732-1.143,1.584-.142,3.171-.284,4.73-.453a15.25,15.25,0,0,0,1.59-.351c-2.031-.117-3.63-.206-5.276-.3a4.073,4.073,0,0,1,2.519-.582c.675-.018,1.358-.012,2.036-.012q18,0,35.994.006,58.255-.023,116.51-.049h1.34c.007-.028.013-.059.019-.086-.891-.12-1.784-.237-2.675-.357a4.7,4.7,0,0,1,.986-.071q27.171.25,54.335.505a7.232,7.232,0,0,1,1.788.262,17.117,17.117,0,0,0,4.588.629c.915.012,1.837.012,2.759.012,1.238,0,2.48,0,3.713.037,7.963.228,15.92.487,23.883.727,1.784.052,3.581.083,5.371.1a7.431,7.431,0,0,0,1.254-.243,60.013,60.013,0,0,0-8.135-.626c-2.386-.089-4.777-.148-7.162-.243-.992-.037-1.812-.188-2.016-.632,7.085.074,14.077.145,21.122.216-.1-.271-.167-.471-.25-.709.626-.009,1.141-.028,1.651-.028,5.356.018,10.715.065,16.071.055q27.059-.032,54.113-.089c5-.006,4.767-.068,7.189,1.381a2.7,2.7,0,0,0,1.522.287c1.5-.018,3-.006,4.5-.006q-2.783.208-5.581.24-19.594.263-39.192.508c-.558.006-1.118.022-1.67.052a92.136,92.136,0,0,1-11.078.191c-2.071-.142-4.071-.435-6.151-.524-4.113-.182-8.262-.293-12.406-.373a13.814,13.814,0,0,0-2.4.376l.154.154c.915,0,1.857-.049,2.739.009,2.348.148,4.647.416,7,.505,4.326.166,8.7.2,13.02.364,3.938.154,7.814.065,11.72-.071,1.584-.055,3.2-.049,4.791-.012,2.392.059,4.773.169,7.156.262a96.682,96.682,0,0,1,10.277.755,4.654,4.654,0,0,0,.931.022,33.423,33.423,0,0,1,7.457.391c2.521.382,5.026.777,7.584,1.131a62.551,62.551,0,0,0,11.947.626c1.871-.1,3.71-.32,5.5-.549a15.962,15.962,0,0,1,6.514.253,13.866,13.866,0,0,0,3.021.243c.838,0,1.673-.163,2.53-.231,2.4-.188,4.811-.5,7.232-.518q20.329-.143,40.668-.154c22.558.022,45.108.256,67.669.077,9.35-.077,18.712.083,28.071.111,2.533.006,5.065,0,7.6-.012,3.985-.015,7.97-.028,11.948.022,9.55.117,19.084.453,28.631.5,13.513.068,27.032-.034,40.548-.086a24.177,24.177,0,0,0,7.93-1.063,9.412,9.412,0,0,1,2.435-.391c1.812-.08,3.664-.111,5.494-.089q27.277.328,54.551.684a100.8,100.8,0,0,1,10.786.478,58.49,58.49,0,0,0,11.574.219A106.649,106.649,0,0,1-10359,5.544V1095ZM-10835.349,14.471a26.958,26.958,0,0,0,8.132.117c-1.718-.131-3.429-.356-5.213-.356A16.8,16.8,0,0,0-10835.349,14.471Zm-1221.174-1.331a17.883,17.883,0,0,0,6.869.163,20.943,20.943,0,0,0-4.43-.475A6.886,6.886,0,0,0-12056.522,13.14Zm1206.222-4.8a25.791,25.791,0,0,0,8.508.493,51.409,51.409,0,0,0-6.185-.66A15.933,15.933,0,0,0-10850.3,8.336Zm272.425.456a20.165,20.165,0,0,0,6.228-.345c-1.022-.056-2-.123-2.931-.123A9.824,9.824,0,0,0-10577.876,8.792Zm-745.229-1.729c-.052.1-.12.228-.215.407,11.081.274,22.061.545,33.038.814.043-.059.086-.12.129-.182-1.2-.092-2.395-.256-3.6-.271-6.478-.083-12.931-.243-19.3-.659-2.1-.136-4.176-.27-6.294-.27C-11320.587,6.9-11321.834,6.946-11323.105,7.063Zm595.028.129a.94.94,0,0,0-.176.037,29.33,29.33,0,0,0,10.345-.182C-10721.319,7.1-10724.7,7.143-10728.077,7.193Zm-1070.43.354c2.219-.126,4.176-.234,6.129-.345-1-.063-2.022-.163-3.024-.163A8.277,8.277,0,0,0-11798.507,7.547Zm-273.038-.61c2.053.755,4.576.505,6.974.456a20.359,20.359,0,0,0-4.524-.8A9.179,9.179,0,0,0-12071.545,6.937Zm1634.974-1.322c-.024.043-.05.083-.077.126,1.078.077,2.147.176,3.232.222,2.854.117,5.729.182,8.563.33a12.294,12.294,0,0,1,4.533.915,2.96,2.96,0,0,0,1.471.24c3.436-.062,6.868-.145,10.3-.157q8.033-.023,16.07-.012,4.017,0,8.037,0a70.711,70.711,0,0,0,8.5-.41c.373-.046.728-.1,1.095-.16-.031-.037-.059-.077-.087-.114-3.39-.049-6.779-.123-10.169-.145-1.886-.012-3.772-.009-5.655-.006-2.314,0-4.628.006-6.939-.015a21.3,21.3,0,0,1-3.763-.317,25.008,25.008,0,0,0-4.968-.5q-9.466-.088-18.937-.2-1.356-.016-2.711-.016C-10430.914,5.392-10433.752,5.451-10436.571,5.615Zm-796.184,1.171c-1.3.037-2.595.1-3.889.154.015.059.03.117.046.176,1.328,0,2.659.012,3.987-.009a2.693,2.693,0,0,0,.7-.194,5.619,5.619,0,0,0-.8-.127Zm800.563-.136V7c1.208.028,2.352.055,3.494.08.555.012,1.106.018,1.637.028.339-.219.3-.351-.478-.373-1.464-.04-2.925-.086-4.389-.129h-.011A1.956,1.956,0,0,0-10432.192,6.65Zm-127.742.142h4.785a.794.794,0,0,0-.006-.083h-4.795C-10559.944,6.736-10559.941,6.764-10559.935,6.792Zm-846.109-.151h14.826c-2.564-.251-5.13-.393-7.7-.393A62.789,62.789,0,0,0-11406.044,6.641Zm825.835-.5h-5.513A10.4,10.4,0,0,0-10580.209,6.139Zm-445.655.031c-.728-.012-1.461-.022-2.453-.037A3.073,3.073,0,0,0-11025.864,6.169Zm-468.561-.043a2.8,2.8,0,0,0,1.92.216,5.371,5.371,0,0,1,1.371-.025,1.586,1.586,0,0,0-1.237-.392A16.072,16.072,0,0,0-11494.425,6.126Zm-160.623-.092c-.629,0-1.255.04-1.883.065.631.065,1.254.145,1.9.185.453.031.935.006,1.4.006-.012-.065-.021-.133-.033-.2-.442-.021-.891-.059-1.334-.059Zm-285.657-.259h-7.1A16.851,16.851,0,0,0-11940.705,5.775Zm1318.663.129a2.567,2.567,0,0,0,.563.148c.706.037,1.424.068,2.139.065a6.091,6.091,0,0,0,.9-.142c-.053-.043-.107-.086-.163-.129-.946-.022-1.9-.052-2.842-.062h-.011A3.188,3.188,0,0,0-10622.042,5.9ZM-11655.329,4c-1.192.031-2.348.225-3.519.342l.1.12c2.7.092,5.4.231,8.11.262a25.8,25.8,0,0,1,8.86,1.223,5.921,5.921,0,0,0,1.72.16c7.975-.2,15.956-.314,23.956-.222q5.389.06,10.789.071a89.741,89.741,0,0,0,10.089-.576c.01-.037.019-.074.028-.108-1.541-.059-3.082-.154-4.626-.16-6.074-.031-12.15-.009-18.225-.055a28.81,28.81,0,0,1-4.5-.324,34.508,34.508,0,0,0-5.488-.5c-6.546-.1-13.091-.222-19.64-.3q-.992-.011-1.987-.011C-11651.549,3.918-11653.445,3.947-11655.329,4Zm1.153,1.624c2.15.037,4.259.074,6.366.114a15.572,15.572,0,0,0-3.64-.441A10.26,10.26,0,0,0-11654.176,5.621Zm-127.179-.342c-.006.04-.016.077-.024.117,1.438.052,2.875.108,4.317.151a1.609,1.609,0,0,0,.431-.136,2.05,2.05,0,0,0-.5-.126q-1.267-.008-2.535-.007Zm746.917-.148c-.825-.04-1.485-.077-2.382-.123A3.289,3.289,0,0,0-11034.437,5.131Zm29.565-.126c5.331.367,6.352.367,8.062,0a38.152,38.152,0,0,0-4.5-.337A18.033,18.033,0,0,0-11004.872,5Zm-802.279-.157c.01.062.016.123.025.182,1.476.031,2.955.059,4.431.1.986.025.885-.151.685-.394C-11803.765,4.77-11805.459,4.81-11807.151,4.847Zm-37.118-.243,4.533.194a5.21,5.21,0,0,0-2.263-.47A10.968,10.968,0,0,0-11844.27,4.6Zm605.721-.758h-3.2A6.2,6.2,0,0,0-11238.549,3.846Zm367.416-.567c-.021.055-.046.114-.07.173,2.542.32,5.281.336,8.153.561-.736-.481-1.337-.875-1.947-1.273Zm-1348.031.176-6.265-.133A11.786,11.786,0,0,0-12219.164,3.454Zm1217.71-1.014c1.164.348,1.318.33,2.767-.28-.329-.074-.65-.145-1.014-.228C-11000.309,2.108-11000.875,2.274-11001.454,2.441Zm-1086.1-.884c-1.9.1-3.771.28-5.655.425.013.037.025.071.04.108l7.976.444a1.834,1.834,0,0,0-1.943-.989C-12087.264,1.544-12087.4,1.548-12087.551,1.556Zm1286.307.718c-1.335-.114-2.463-.206-3.877-.327A6.664,6.664,0,0,0-10801.244,2.274Zm27.14-1.051a5.061,5.061,0,0,0-.845.169l.24.139c2.1.08,4.2.166,6.3.225a2.076,2.076,0,0,0,.863-.191c.077-.049-.246-.25-.465-.268-.989-.074-2-.136-3.011-.148l-.364,0C-10772.291,1.147-10773.2,1.185-10774.1,1.223Zm-98.045-.108a90.918,90.918,0,0,0,14.773-.1c-2.1-.19-4.189-.271-6.273-.271C-10866.491.74-10869.322.89-10872.149,1.116Zm-1350.4-.188c.9.453.992.453,2.586.052a2.443,2.443,0,0,0-1.171-.329A5.1,5.1,0,0,0-12222.551.928Z" transform="translate(12279 0)" fill="#fff"/></svg>