<svg xmlns="http://www.w3.org/2000/svg" width="128" height="105.931" viewBox="0 0 128 105.931">
  <g id="Grupo_1699" data-name="Grupo 1699" transform="translate(0)">
    <path id="Sustracción_362" data-name="Sustracción 362" d="M84.912,99.216H60.034v-20.6H56.677l28.236-16.3v.608H97.729V68.2h15.161a5.137,5.137,0,0,1-5.131,5.132H97.729v5.286H84.912v20.6Zm-55.033-20.6H12.537V73.33H5.132A5.138,5.138,0,0,1,0,68.2H12.537V62.08l8.855-12.412h1.984a8.562,8.562,0,0,0,8.552-8.553H27.494l22.17-31.073h8.207A4.852,4.852,0,0,0,62.717,5.2h-9.6L56.829,0H84.912V11.468h16.861a8.562,8.562,0,0,1-8.553,8.553H84.912v7.7H70.985a4.566,4.566,0,0,0-4.561,4.561H84.912V46.842L60.034,61.206V25.224h-.377L33.742,62.782H71.555a5.994,5.994,0,0,1-5.987,5.987H46.934L29.879,78.616Z" transform="translate(15.109 6.715)" fill="#03d4db"/>
    <path id="Sustracción_364" data-name="Sustracción 364" d="M84.912,99.216H60.034v-20.6H56.677l28.236-16.3v.608H97.729V68.2h15.161a5.137,5.137,0,0,1-5.131,5.132H97.729v5.286H84.912v20.6Zm-55.033-20.6H12.537V73.33H5.132A5.138,5.138,0,0,1,0,68.2H12.537V62.08l8.855-12.412H38.486a8.5,8.5,0,0,0,6-2.46L33.742,62.782H71.555a5.994,5.994,0,0,1-5.987,5.987H46.934L29.879,78.616Zm30.155-17.41V25.224h-.377L46.318,44.556a8.492,8.492,0,0,0,.72-3.441H27.494l22.17-31.073h8.207A4.852,4.852,0,0,0,62.717,5.2h-9.6L56.829,0H84.912V11.468h16.861a8.562,8.562,0,0,1-8.553,8.553H84.912v7.851a4.566,4.566,0,0,0-3.38,4.407h3.38V46.842L60.035,61.205Z" transform="translate(0 6.715)" fill="#ff5051"/>
    <path id="Sustracción_363" data-name="Sustracción 363" d="M84.912,99.216H60.034v-20.6H56.677l28.236-16.3v.608H97.729V68.2h15.161a5.137,5.137,0,0,1-5.131,5.132H97.729v5.286H84.912v20.6Zm-55.033-20.6H12.537V73.33H5.132A5.138,5.138,0,0,1,0,68.2H12.537V62.08l8.855-12.412h8.826a8.562,8.562,0,0,0,8.553-8.553H27.494l22.17-31.073h8.207A4.852,4.852,0,0,0,62.717,5.2h-9.6L56.829,0H84.912V11.468h16.861a8.562,8.562,0,0,1-8.553,8.553H84.912v7.7H77.827a4.566,4.566,0,0,0-4.561,4.561H84.912V46.842L60.034,61.206V25.224h-.377L33.742,62.782H71.555a5.994,5.994,0,0,1-5.987,5.987H46.934L29.879,78.616Z" transform="translate(8.267 6.715)" fill="#fff"/>
    <rect id="Rectángulo_1564" data-name="Rectángulo 1564" width="5.075" height="4.757" transform="translate(116.172 86.584)" fill="#03d4db"/>
    <rect id="Rectángulo_1565" data-name="Rectángulo 1565" width="5.075" height="4.757" transform="translate(104.755 94.83)" fill="#fff"/>
    <rect id="Rectángulo_1566" data-name="Rectángulo 1566" width="4.757" height="4.757" transform="translate(47.666 0)" fill="#ff5051"/>
    <rect id="Rectángulo_1567" data-name="Rectángulo 1567" width="5.075" height="5.075" transform="translate(51.472 60.26)" fill="#ff5051"/>
  </g>
</svg>
