<svg xmlns="http://www.w3.org/2000/svg" width="126" height="99.352" viewBox="0 0 126 99.352">
  <g id="Grupo_1716" data-name="Grupo 1716" transform="translate(0.016 -0.002)">
    <path id="Unión_641" data-name="Unión 641" d="M70.657,99.3h0ZM0,99.3V71.545a7.939,7.939,0,0,0,2.527-5.8H0V26.735H27.256V0h43.4V14.149H88.629a7.913,7.913,0,0,1-7.914,7.914H70.657V80.309H90.846a7.914,7.914,0,0,1-7.915,7.914H70.657V99.3H0ZM18.4,76.038h3.992v3.993h3.994v3.993h7.986V80.033H26.389V72.046h7.986v7.986h3.992V72.046h11.8v3.992h3.994v3.993h7.986V76.038H58.158V72.046H54.166V68.053H18.4v3.993H14.409v3.992H10.59v3.993H18.4V76.039h0ZM49.652,49.825h3.992v3.992h3.993v3.993h3.992V49.825H57.637V45.832h3.992V37.846H57.637v3.992H53.644v3.8H49.651v-3.8H45.658V37.846H41.666v7.986h3.992v3.993H41.666v7.986h3.992V53.817h3.993V49.826h0Zm-33.332,0h3.992v3.992H24.3v3.993H28.3V49.825H24.3V45.832H28.3V37.846H24.3v3.992H20.312v3.993l0-.193H16.449v.193h-.131V41.838H12.326V37.846H8.333v7.986h3.993v3.993H8.333v7.986h3.993V53.817h3.992V49.826h0Zm7.464-26.562H0V19.27H3.993V15.625H7.987V11.632h3.992V7.639h3.993V3.993h3.819V0h3.993V7.639h0V23.262h0Zm-7.81-3.992h0Zm-3.993,0h0Zm-3.992,0h0Zm7.986-3.645h0Zm-3.993,0h0Zm3.993-3.993h0Z" transform="translate(32.917 0.002)" fill="#03d4db"/>
    <path id="Unión_642" data-name="Unión 642" d="M88.073,99.3Zm-70.657,0V73.661H27.54a7.883,7.883,0,0,0,4.286-1.26v3.637h-3.82v3.993h7.812V76.039h3.993v3.993H43.8v3.993h7.986V80.033H43.8V72.046h7.986v7.986h3.992V72.046h11.8v3.992h3.994v3.993h7.986V76.038H75.574V72.046H71.582V68.053H35.818v3.993H32.332a7.859,7.859,0,0,0,3.122-6.3H17.416V36.308h-9.5A7.914,7.914,0,0,1,0,28.393H17.416V26.735H44.672V0h43.4V99.3H17.416ZM67.068,49.825H71.06v3.992h3.992v3.993h3.993V49.825H75.053V45.832h3.993V37.846H75.053v3.992H71.06v3.8H67.067v-3.8H63.075V37.846H59.081v7.986h3.993v3.993H59.081v7.986h3.993V53.817h3.992V49.826h0Zm-33.332,0h3.992v3.992H41.72v3.993h3.993V49.825H41.72V45.832h3.993V37.846H41.72v3.992H37.728v3.993l0-.193H33.865v.193h-.131V41.838H29.742V37.846H25.749v7.986h3.993v3.993H25.749v7.986h3.993V53.817h3.992V49.826h0ZM41.2,23.263H17.417V19.27h3.992V15.625H25.4V11.632h3.992V7.639h3.993V3.993h3.819V0H41.2V7.639h0V23.262h0Zm-7.81-3.992h0Zm-3.993,0h0Zm-3.992,0h0Zm7.986-3.645h0Zm-3.993,0h0Zm3.993-3.993h0Z" transform="translate(-0.01 0.002)" fill="#ff5051"/>
    <path id="Unión_639" data-name="Unión 639" d="M70.657,99.3h0ZM0,99.3V73.636a7.886,7.886,0,0,0,5.164-2.508,7.89,7.89,0,0,0,2.11-5.381H0V26.735H27.256V0h43.4V10.667h22.72a7.914,7.914,0,0,1-7.914,7.914H70.657V89.489H80.4A7.914,7.914,0,0,1,72.485,97.4H70.657v1.9H0ZM18.4,76.038H22.4v3.993h3.993v3.993h7.986V80.033H26.389V72.046h7.986v7.986h3.992V72.046h11.8v3.992h3.994v3.993h7.986V76.038H58.158V72.046H54.166V68.053H18.4v3.993H14.409v3.992H10.59v3.993H18.4V76.039h0ZM49.652,49.825h3.992v3.992h3.992v3.993H61.63V49.825H57.637V45.832H61.63V37.846H57.637v3.992H53.645v3.8H49.651v-3.8H45.658V37.846H41.666v7.986h3.992v3.993H41.666v7.986h3.992V53.817h3.993V49.826h0Zm-33.332,0h3.992v3.992H24.3v3.993H28.3V49.825H24.3V45.832H28.3V37.846H24.3v3.992H20.312v3.993l0-.193H16.449v.193h-.131V41.838H12.326V37.846H8.333v7.986h3.993v3.993H8.333v7.986h3.993V53.817h3.992V49.826h0Zm7.464-26.562H0V19.27H3.993V15.625H7.987V11.632h3.992V7.639h3.993V3.993h3.819V0h3.993V7.639h0V23.262h0Zm-7.81-3.992h0Zm-3.993,0h0Zm-3.992,0h0Zm7.986-3.645h0Zm-3.993,0h0Zm3.993-3.993h0Z" transform="translate(28.169 0.002)" fill="#fff"/>
    <rect id="Rectángulo_1812" data-name="Rectángulo 1812" width="4.565" height="4.565" transform="translate(-0.016 14.441)" fill="#ff5051"/>
    <rect id="Rectángulo_1813" data-name="Rectángulo 1813" width="4.565" height="4.565" transform="translate(121.419 94.789)" fill="#03d4db"/>
    <rect id="Rectángulo_1814" data-name="Rectángulo 1814" width="4.565" height="4.565" transform="translate(105.897 29.05)" fill="#fff"/>
  </g>
</svg>
